<?xml version="1.0" encoding="us-ascii" standalone="no"?><svg xmlns="http://www.w3.org/2000/svg" xmlns:xlink="http://www.w3.org/1999/xlink" contentStyleType="text/css" height="548px" preserveAspectRatio="none" style="width:3779px;height:548px;background:#FFFFFF;" version="1.1" viewBox="0 0 3779 548" width="3779px" zoomAndPan="magnify"><defs/><g><!--cluster ??? ??--><g id="cluster_&#26234;&#23457;&#36890; &#31995;&#32479;"><rect fill="none" height="398.26" rx="2.5" ry="2.5" style="stroke:#181818;stroke-width:1.0;" width="3542" x="185.47" y="144.13"/><text fill="#000000" font-family="sans-serif" font-size="13" font-weight="bold" lengthAdjust="spacing" textLength="69" x="1921.97" y="158.6984">&#26234;&#23457;&#36890; &#31995;&#32479;</text></g><!--cluster AdminUC--><g id="cluster_AdminUC"><rect fill="none" height="99.3" rx="2.5" ry="2.5" style="stroke:#181818;stroke-width:1.0;" width="1059" x="2275.47" y="186.13"/><text fill="#000000" font-family="sans-serif" font-size="13" font-weight="bold" lengthAdjust="spacing" textLength="65" x="2772.47" y="200.6984">&#36229;&#32423;&#31649;&#29702;&#21592;</text></g><!--cluster SchoolUC--><g id="cluster_SchoolUC"><rect fill="none" height="217.77" rx="2.5" ry="2.5" style="stroke:#181818;stroke-width:1.0;" width="708" x="698.47" y="186.13"/><text fill="#000000" font-family="sans-serif" font-size="13" font-weight="bold" lengthAdjust="spacing" textLength="65" x="1019.97" y="200.6984">&#23398;&#26657;&#31649;&#29702;&#21592;</text></g><!--cluster DeptUC--><g id="cluster_DeptUC"><rect fill="none" height="217.77" rx="2.5" ry="2.5" style="stroke:#181818;stroke-width:1.0;" width="659" x="1430.47" y="186.13"/><text fill="#000000" font-family="sans-serif" font-size="13" font-weight="bold" lengthAdjust="spacing" textLength="65" x="1727.47" y="200.6984">&#37096;&#38376;&#31649;&#29702;&#21592;</text></g><!--cluster FinanceUC--><g id="cluster_FinanceUC"><rect fill="none" height="217.77" rx="2.5" ry="2.5" style="stroke:#181818;stroke-width:1.0;" width="345" x="3358.47" y="186.13"/><text fill="#000000" font-family="sans-serif" font-size="13" font-weight="bold" lengthAdjust="spacing" textLength="65" x="3498.47" y="200.6984">&#36130;&#21153;&#31649;&#29702;&#21592;</text></g><!--cluster StudentUC--><g id="cluster_StudentUC"><rect fill="none" height="332.26" rx="2.5" ry="2.5" style="stroke:#181818;stroke-width:1.0;" width="465" x="209.47" y="186.13"/><text fill="#000000" font-family="sans-serif" font-size="13" font-weight="bold" lengthAdjust="spacing" textLength="26" x="428.97" y="200.6984">&#23398;&#29983;</text></g><!--cluster CommonUC--><g id="cluster_CommonUC"><rect fill="none" height="77.7" rx="2.5" ry="2.5" style="stroke:#181818;stroke-width:1.0;" width="138" x="2113.47" y="196.93"/><text fill="#000000" font-family="sans-serif" font-size="13" font-weight="bold" lengthAdjust="spacing" textLength="26" x="2169.47" y="211.4984">&#20844;&#20849;</text></g><g id="elem_UC_ApiKey"><ellipse cx="3236.466" cy="244.7824" fill="#F1F1F1" rx="82.196" ry="24.6524" style="stroke:#181818;stroke-width:0.5;"/><text fill="#000000" font-family="sans-serif" font-size="13" lengthAdjust="spacing" textLength="76" x="3198.466" y="240.0402">&#31649;&#29702; API Key</text><text fill="#000000" font-family="sans-serif" font-size="13" lengthAdjust="spacing" textLength="100" x="3186.466" y="255.3507">(&#28155;&#21152;/&#20572;&#29992;/&#24674;&#22797;)</text></g><g id="elem_UC_CreateSchool"><ellipse cx="2339.4704" cy="244.7775" fill="#F1F1F1" rx="48.2604" ry="13.8275" style="stroke:#181818;stroke-width:0.5;"/><text fill="#000000" font-family="sans-serif" font-size="13" lengthAdjust="spacing" textLength="52" x="2312.9664" y="247.8112">&#21019;&#24314;&#23398;&#26657;</text></g><g id="elem_UC_SchoolTier"><ellipse cx="2507.4744" cy="244.7824" fill="#F1F1F1" rx="85.0244" ry="24.6524" style="stroke:#181818;stroke-width:0.5;"/><text fill="#000000" font-family="sans-serif" font-size="13" lengthAdjust="spacing" textLength="104" x="2455.4744" y="240.0402">&#20999;&#25442;&#23398;&#26657;&#26381;&#21153;&#31561;&#32423;</text><text fill="#000000" font-family="sans-serif" font-size="13" lengthAdjust="spacing" textLength="74" x="2470.4744" y="255.3507">(Free &#8596; Pro)</text></g><g id="elem_UC_MemberMgmt"><ellipse cx="2728.4707" cy="244.7824" fill="#F1F1F1" rx="100.5807" ry="24.6524" style="stroke:#181818;stroke-width:0.5;"/><text fill="#000000" font-family="sans-serif" font-size="13" lengthAdjust="spacing" textLength="52" x="2702.4707" y="240.0402">&#31649;&#29702;&#25104;&#21592;</text><text fill="#000000" font-family="sans-serif" font-size="13" lengthAdjust="spacing" textLength="126" x="2665.4707" y="255.3507">(&#28155;&#21152;/&#31227;&#38500;/&#35282;&#33394;&#35843;&#25972;)</text></g><g id="elem_UC_Monitor"><ellipse cx="2912.4704" cy="244.7775" fill="#F1F1F1" rx="48.2604" ry="13.8275" style="stroke:#181818;stroke-width:0.5;"/><text fill="#000000" font-family="sans-serif" font-size="13" lengthAdjust="spacing" textLength="52" x="2885.9664" y="247.8112">&#31995;&#32479;&#30417;&#25511;</text></g><g id="elem_UC_Audit"><ellipse cx="3057.4698" cy="244.776" fill="#F1F1F1" rx="62.0798" ry="14.816" style="stroke:#181818;stroke-width:0.5;"/><text fill="#000000" font-family="sans-serif" font-size="13" lengthAdjust="spacing" textLength="78" x="3018.0924" y="247.7778">&#26597;&#30475;&#23457;&#35745;&#26085;&#24535;</text></g><g id="elem_UC_DeptAdminMgmt"><ellipse cx="796.466" cy="244.7824" fill="#F1F1F1" rx="82.196" ry="24.6524" style="stroke:#181818;stroke-width:0.5;"/><text fill="#000000" font-family="sans-serif" font-size="13" lengthAdjust="spacing" textLength="91" x="750.966" y="240.0402">&#31649;&#29702;&#37096;&#38376;&#31649;&#29702;&#21592;</text><text fill="#000000" font-family="sans-serif" font-size="13" lengthAdjust="spacing" textLength="100" x="746.466" y="255.3507">(&#21019;&#24314;/&#32534;&#36753;/&#21024;&#38500;)</text></g><g id="elem_UC_SchoolOverview"><ellipse cx="986.4716" cy="244.7783" fill="#F1F1F1" rx="72.4916" ry="16.8983" style="stroke:#181818;stroke-width:0.5;"/><text fill="#000000" font-family="sans-serif" font-size="13" lengthAdjust="spacing" textLength="104" x="934.4716" y="247.6914">&#26597;&#30475;&#20840;&#26657;&#20107;&#21153;&#24635;&#35272;</text></g><g id="elem_UC_SchoolReview"><ellipse cx="1152.4714" cy="244.7824" fill="#F1F1F1" rx="58.8614" ry="24.6524" style="stroke:#181818;stroke-width:0.5;"/><text fill="#000000" font-family="sans-serif" font-size="13" lengthAdjust="spacing" textLength="65" x="1119.9714" y="240.0402">&#23398;&#26657;&#32423;&#23457;&#25209;</text><text fill="#000000" font-family="sans-serif" font-size="13" lengthAdjust="spacing" textLength="67" x="1118.9714" y="255.3507">(&#36890;&#36807;/&#39539;&#22238;)</text></g><g id="elem_UC_SchoolAI"><ellipse cx="964.4698" cy="373.076" fill="#F1F1F1" rx="62.0798" ry="14.816" style="stroke:#181818;stroke-width:0.5;"/><text fill="#000000" font-family="sans-serif" font-size="13" lengthAdjust="spacing" textLength="78" x="925.0924" y="376.0778">&#20351;&#29992;&#26234;&#33021;&#24314;&#35758;</text></g><g id="elem_UC_SetSchool"><ellipse cx="1318.4716" cy="244.7783" fill="#F1F1F1" rx="72.4916" ry="16.8983" style="stroke:#181818;stroke-width:0.5;"/><text fill="#000000" font-family="sans-serif" font-size="13" lengthAdjust="spacing" textLength="104" x="1266.4716" y="247.6914">&#35774;&#32622;&#29992;&#25143;&#23398;&#26657;&#23383;&#27573;</text></g><g id="elem_UC_DeptList"><ellipse cx="1532.4686" cy="244.7824" fill="#F1F1F1" rx="86.4386" ry="24.6524" style="stroke:#181818;stroke-width:0.5;"/><text fill="#000000" font-family="sans-serif" font-size="13" lengthAdjust="spacing" textLength="91" x="1486.9686" y="240.0402">&#26597;&#30475;&#26412;&#37096;&#38376;&#20107;&#21153;</text><text fill="#000000" font-family="sans-serif" font-size="13" lengthAdjust="spacing" textLength="106" x="1479.4686" y="255.3507">(&#25353;&#29366;&#24577;/&#38454;&#27573;&#31579;&#36873;)</text></g><g id="elem_UC_DeptReview"><ellipse cx="1745.4683" cy="244.7824" fill="#F1F1F1" rx="91.3883" ry="24.6524" style="stroke:#181818;stroke-width:0.5;"/><text fill="#000000" font-family="sans-serif" font-size="13" lengthAdjust="spacing" textLength="52" x="1719.4683" y="240.0402">&#37096;&#38376;&#23457;&#25209;</text><text fill="#000000" font-family="sans-serif" font-size="13" lengthAdjust="spacing" textLength="113" x="1688.9683" y="255.3507">(&#36890;&#36807;/&#39539;&#22238;/&#38656;&#20462;&#25913;)</text></g><g id="elem_UC_DeptDetail"><ellipse cx="1972.4707" cy="244.7824" fill="#F1F1F1" rx="100.5807" ry="24.6524" style="stroke:#181818;stroke-width:0.5;"/><text fill="#000000" font-family="sans-serif" font-size="13" lengthAdjust="spacing" textLength="78" x="1933.4707" y="240.0402">&#26597;&#30475;&#20107;&#21153;&#35814;&#24773;</text><text fill="#000000" font-family="sans-serif" font-size="13" lengthAdjust="spacing" textLength="126" x="1909.4707" y="255.3507">(&#26448;&#26009;/&#34920;&#21333;/&#23457;&#25209;&#21382;&#31243;)</text></g><g id="elem_UC_DeptAI"><ellipse cx="1944.4698" cy="373.076" fill="#F1F1F1" rx="62.0798" ry="14.816" style="stroke:#181818;stroke-width:0.5;"/><text fill="#000000" font-family="sans-serif" font-size="13" lengthAdjust="spacing" textLength="78" x="1905.0924" y="376.0778">&#20351;&#29992;&#26234;&#33021;&#24314;&#35758;</text></g><g id="elem_UC_FinanceList"><ellipse cx="3436.4698" cy="244.776" fill="#F1F1F1" rx="62.0798" ry="14.816" style="stroke:#181818;stroke-width:0.5;"/><text fill="#000000" font-family="sans-serif" font-size="13" lengthAdjust="spacing" textLength="78" x="3397.0924" y="247.7778">&#26597;&#30475;&#25253;&#38144;&#20107;&#21153;</text></g><g id="elem_UC_FinanceReview"><ellipse cx="3610.4662" cy="244.7824" fill="#F1F1F1" rx="77.2462" ry="24.6524" style="stroke:#181818;stroke-width:0.5;"/><text fill="#000000" font-family="sans-serif" font-size="13" lengthAdjust="spacing" textLength="52" x="3584.4662" y="240.0402">&#36130;&#21153;&#23457;&#25209;</text><text fill="#000000" font-family="sans-serif" font-size="13" lengthAdjust="spacing" textLength="93" x="3563.9662" y="255.3507">(&#23457;&#26680;&#37329;&#39069;/&#21457;&#31080;)</text></g><g id="elem_UC_FinanceAI"><ellipse cx="3621.4698" cy="373.076" fill="#F1F1F1" rx="62.0798" ry="14.816" style="stroke:#181818;stroke-width:0.5;"/><text fill="#000000" font-family="sans-serif" font-size="13" lengthAdjust="spacing" textLength="78" x="3582.0924" y="376.0778">&#20351;&#29992;&#26234;&#33021;&#24314;&#35758;</text></g><g id="elem_UC_Upload"><ellipse cx="601.4672" cy="244.7824" fill="#F1F1F1" rx="57.4472" ry="24.6524" style="stroke:#181818;stroke-width:0.5;"/><text fill="#000000" font-family="sans-serif" font-size="13" lengthAdjust="spacing" textLength="52" x="575.4672" y="240.0402">&#19978;&#20256;&#26448;&#26009;</text><text fill="#000000" font-family="sans-serif" font-size="13" lengthAdjust="spacing" textLength="65" x="568.9672" y="255.3507">(&#22270;&#29255;/PDF)</text></g><g id="elem_UC_OCR"><ellipse cx="457.4736" cy="373.0824" fill="#F1F1F1" rx="73.0036" ry="24.6524" style="stroke:#181818;stroke-width:0.5;"/><text fill="#000000" font-family="sans-serif" font-size="13" lengthAdjust="spacing" textLength="87" x="413.9736" y="368.3402">&#26234;&#33021; OCR &#35782;&#21035;</text><text fill="#000000" font-family="sans-serif" font-size="13" lengthAdjust="spacing" textLength="69" x="422.9736" y="383.6507">&#8594; &#33258;&#21160;&#22635;&#34920;</text></g><g id="elem_UC_ManualForm"><ellipse cx="287.4698" cy="373.076" fill="#F1F1F1" rx="62.0798" ry="14.816" style="stroke:#181818;stroke-width:0.5;"/><text fill="#000000" font-family="sans-serif" font-size="13" lengthAdjust="spacing" textLength="78" x="248.0924" y="376.0778">&#25163;&#21160;&#22635;&#20889;&#34920;&#21333;</text></g><g id="elem_UC_Submit"><ellipse cx="287.4704" cy="488.5575" fill="#F1F1F1" rx="48.2604" ry="13.8275" style="stroke:#181818;stroke-width:0.5;"/><text fill="#000000" font-family="sans-serif" font-size="13" lengthAdjust="spacing" textLength="52" x="260.9664" y="491.5912">&#25552;&#20132;&#23457;&#25209;</text></g><g id="elem_UC_History"><ellipse cx="287.4698" cy="244.776" fill="#F1F1F1" rx="62.0798" ry="14.816" style="stroke:#181818;stroke-width:0.5;"/><text fill="#000000" font-family="sans-serif" font-size="13" lengthAdjust="spacing" textLength="78" x="248.0924" y="247.7778">&#26597;&#30475;&#21382;&#21490;&#35760;&#24405;</text></g><g id="elem_UC_Profile"><ellipse cx="446.4698" cy="244.776" fill="#F1F1F1" rx="62.0798" ry="14.816" style="stroke:#181818;stroke-width:0.5;"/><text fill="#000000" font-family="sans-serif" font-size="13" lengthAdjust="spacing" textLength="78" x="407.0924" y="247.7778">&#32534;&#36753;&#20010;&#20154;&#20449;&#24687;</text></g><g id="elem_UC_Auth"><ellipse cx="2182.4725" cy="244.7773" fill="#F1F1F1" rx="53.3025" ry="13.8473" style="stroke:#181818;stroke-width:0.5;"/><text fill="#000000" font-family="sans-serif" font-size="13" lengthAdjust="spacing" textLength="59" x="2150.7543" y="248.1687">&#27880;&#20876;/&#30331;&#24405;</text></g><!--entity Admin--><g id="elem_Admin"><ellipse cx="2728.47" cy="22" fill="#F1F1F1" rx="16" ry="16" style="stroke:#181818;stroke-width:0.5;"/><path d="M2728.47,42 C2732.47,42 2735.47,42 2739.47,38 C2747.47,38 2755.47,46 2755.47,54 L2755.47,58 C2755.47,62 2751.47,66 2747.47,66 L2709.47,66 C2705.47,66 2701.47,62 2701.47,58 L2701.47,54 C2701.47,46 2709.47,38 2717.47,38 C2721.47,42 2724.47,42 2728.47,42 " fill="#F1F1F1" style="stroke:#181818;stroke-width:0.5;"/><text fill="#000000" font-family="sans-serif" font-size="13" lengthAdjust="spacing" textLength="65" x="2695.97" y="79.0684">&#36229;&#32423;&#31649;&#29702;&#21592;</text><text fill="#000000" font-family="sans-serif" font-size="13" lengthAdjust="spacing" textLength="47" x="2695.97" y="94.3789">(admin)</text></g><!--entity SchoolAdmin--><g id="elem_SchoolAdmin"><ellipse cx="1069.47" cy="29.66" fill="#F1F1F1" rx="16" ry="16" style="stroke:#181818;stroke-width:0.5;"/><path d="M1069.47,49.66 C1073.47,49.66 1076.47,49.66 1080.47,45.66 C1088.47,45.66 1096.47,53.66 1096.47,61.66 L1096.47,65.66 C1096.47,69.66 1092.47,73.66 1088.47,73.66 L1050.47,73.66 C1046.47,73.66 1042.47,69.66 1042.47,65.66 L1042.47,61.66 C1042.47,53.66 1050.47,45.66 1058.47,45.66 C1062.47,49.66 1065.47,49.66 1069.47,49.66 " fill="#F1F1F1" style="stroke:#181818;stroke-width:0.5;"/><text fill="#000000" font-family="sans-serif" font-size="13" lengthAdjust="spacing" textLength="65" x="1036.97" y="86.7284">&#23398;&#26657;&#31649;&#29702;&#21592;</text></g><!--entity DeptAdmin--><g id="elem_DeptAdmin"><ellipse cx="1972.47" cy="29.66" fill="#F1F1F1" rx="16" ry="16" style="stroke:#181818;stroke-width:0.5;"/><path d="M1972.47,49.66 C1976.47,49.66 1979.47,49.66 1983.47,45.66 C1991.47,45.66 1999.47,53.66 1999.47,61.66 L1999.47,65.66 C1999.47,69.66 1995.47,73.66 1991.47,73.66 L1953.47,73.66 C1949.47,73.66 1945.47,69.66 1945.47,65.66 L1945.47,61.66 C1945.47,53.66 1953.47,45.66 1961.47,45.66 C1965.47,49.66 1968.47,49.66 1972.47,49.66 " fill="#F1F1F1" style="stroke:#181818;stroke-width:0.5;"/><text fill="#000000" font-family="sans-serif" font-size="13" lengthAdjust="spacing" textLength="65" x="1939.97" y="86.7284">&#37096;&#38376;&#31649;&#29702;&#21592;</text></g><!--entity FinanceAdmin--><g id="elem_FinanceAdmin"><ellipse cx="3686.47" cy="29.66" fill="#F1F1F1" rx="16" ry="16" style="stroke:#181818;stroke-width:0.5;"/><path d="M3686.47,49.66 C3690.47,49.66 3693.47,49.66 3697.47,45.66 C3705.47,45.66 3713.47,53.66 3713.47,61.66 L3713.47,65.66 C3713.47,69.66 3709.47,73.66 3705.47,73.66 L3667.47,73.66 C3663.47,73.66 3659.47,69.66 3659.47,65.66 L3659.47,61.66 C3659.47,53.66 3667.47,45.66 3675.47,45.66 C3679.47,49.66 3682.47,49.66 3686.47,49.66 " fill="#F1F1F1" style="stroke:#181818;stroke-width:0.5;"/><text fill="#000000" font-family="sans-serif" font-size="13" lengthAdjust="spacing" textLength="65" x="3653.97" y="86.7284">&#36130;&#21153;&#31649;&#29702;&#21592;</text></g><!--entity Student--><g id="elem_Student"><ellipse cx="142.47" cy="29.66" fill="#F1F1F1" rx="16" ry="16" style="stroke:#181818;stroke-width:0.5;"/><path d="M142.47,49.66 C146.47,49.66 149.47,49.66 153.47,45.66 C161.47,45.66 169.47,53.66 169.47,61.66 L169.47,65.66 C169.47,69.66 165.47,73.66 161.47,73.66 L123.47,73.66 C119.47,73.66 115.47,69.66 115.47,65.66 L115.47,61.66 C115.47,53.66 123.47,45.66 131.47,45.66 C135.47,49.66 138.47,49.66 142.47,49.66 " fill="#F1F1F1" style="stroke:#181818;stroke-width:0.5;"/><text fill="#000000" font-family="sans-serif" font-size="13" lengthAdjust="spacing" textLength="26" x="129.47" y="86.7284">&#23398;&#29983;</text></g><!--link Admin to UC_ApiKey--><g id="link_Admin_UC_ApiKey"><path d="M2761.32,52.36 C2833.97,53.84 3011.76,65.03 3137.47,136.13 C3173.94,156.75 3201.1226,190.5645 3218.2626,215.5145 " fill="none" id="Admin-to-UC_ApiKey" style="stroke:#181818;stroke-width:1.0;"/><polygon fill="#181818" points="3221.66,220.46,3219.8609,210.7769,3218.8288,216.3388,3213.2669,215.3067,3221.66,220.46" style="stroke:#181818;stroke-width:1.0;"/></g><!--link Admin to UC_CreateSchool--><g id="link_Admin_UC_CreateSchool"><path d="M2695.6,52.87 C2632.88,55.51 2494.39,69.13 2404.47,136.13 C2371.38,160.78 2353.7055,202.048 2345.6855,224.918 " fill="none" id="Admin-to-UC_CreateSchool" style="stroke:#181818;stroke-width:1.0;"/><polygon fill="#181818" points="2343.7,230.58,2350.4529,223.4108,2345.3546,225.8617,2342.9036,220.7634,2343.7,230.58" style="stroke:#181818;stroke-width:1.0;"/></g><!--link Admin to UC_SchoolTier--><g id="link_Admin_UC_SchoolTier"><path d="M2695.69,73.16 C2671.29,89.24 2637.66,112.63 2610.47,136.13 C2579.35,163.01 2551.1116,193.5238 2531.1816,216.1938 " fill="none" id="Admin-to-UC_SchoolTier" style="stroke:#181818;stroke-width:1.0;"/><polygon fill="#181818" points="2527.22,220.7,2536.1665,216.5817,2530.5213,216.9448,2530.1582,211.2996,2527.22,220.7" style="stroke:#181818;stroke-width:1.0;"/></g><!--link Admin to UC_MemberMgmt--><g id="link_Admin_UC_MemberMgmt"><path d="M2728.47,97.2 C2728.47,135.56 2728.47,183.25 2728.47,213.87 " fill="none" id="Admin-to-UC_MemberMgmt" style="stroke:#181818;stroke-width:1.0;"/><polygon fill="#181818" points="2728.47,219.87,2732.47,210.87,2728.47,214.87,2724.47,210.87,2728.47,219.87" style="stroke:#181818;stroke-width:1.0;"/></g><!--link Admin to UC_Monitor--><g id="link_Admin_UC_Monitor"><path d="M2761.23,70.59 C2786.56,85.83 2821.42,109.32 2846.47,136.13 C2874.31,165.92 2893.9912,203.8183 2904.0612,225.2783 " fill="none" id="Admin-to-UC_Monitor" style="stroke:#181818;stroke-width:1.0;"/><polygon fill="#181818" points="2906.61,230.71,2906.4079,220.8632,2904.486,226.1836,2899.1656,224.2616,2906.61,230.71" style="stroke:#181818;stroke-width:1.0;"/></g><!--link Admin to UC_Audit--><g id="link_Admin_UC_Audit"><path d="M2761.36,56.82 C2812.13,65.13 2910.81,86.73 2978.47,136.13 C3013.3,161.55 3036.5124,201.5057 3048.0824,224.3857 " fill="none" id="Admin-to-UC_Audit" style="stroke:#181818;stroke-width:1.0;"/><polygon fill="#181818" points="3050.79,229.74,3050.2982,219.9034,3048.5337,225.2781,3043.1591,223.5136,3050.79,229.74" style="stroke:#181818;stroke-width:1.0;"/></g><!--link SchoolAdmin to UC_DeptAdminMgmt--><g id="link_SchoolAdmin_UC_DeptAdminMgmt"><path d="M1036.55,64.02 C1000.17,77.88 940.88,103.29 896.47,136.13 C863.45,160.54 836.1143,192.11 817.6243,215.67 " fill="none" id="SchoolAdmin-to-UC_DeptAdminMgmt" style="stroke:#181818;stroke-width:1.0;"/><polygon fill="#181818" points="813.92,220.39,822.6231,215.7795,817.0069,216.4567,816.3297,210.8405,813.92,220.39" style="stroke:#181818;stroke-width:1.0;"/></g><!--link SchoolAdmin to UC_SchoolOverview--><g id="link_SchoolAdmin_UC_SchoolOverview"><path d="M1053.27,89.69 C1035.15,131.47 1009.027,191.7552 995.897,222.0352 " fill="none" id="SchoolAdmin-to-UC_SchoolOverview" style="stroke:#181818;stroke-width:1.0;"/><polygon fill="#181818" points="993.51,227.54,1000.7603,220.8742,995.4991,222.9527,993.4206,217.6915,993.51,227.54" style="stroke:#181818;stroke-width:1.0;"/></g><!--link SchoolAdmin to UC_SchoolReview--><g id="link_SchoolAdmin_UC_SchoolReview"><path d="M1085.67,89.69 C1102.42,128.32 1125.6743,181.9547 1139.8143,214.5847 " fill="none" id="SchoolAdmin-to-UC_SchoolReview" style="stroke:#181818;stroke-width:1.0;"/><polygon fill="#181818" points="1142.2,220.09,1142.2917,210.2416,1140.2119,215.5022,1134.9513,213.4225,1142.2,220.09" style="stroke:#181818;stroke-width:1.0;"/></g><!--link SchoolAdmin to UC_SchoolAI--><g id="link_SchoolAdmin_UC_SchoolAI"><path d="M1036.69,52.97 C886.15,56.29 266.11,73.7 209.47,136.13 C155.03,196.13 154.05,259.32 209.47,318.43 C244.88,356.2 622.83,344.66 674.47,348.43 C755.2,354.33 842.5218,361.599 901.0118,366.599 " fill="none" id="SchoolAdmin-to-UC_SchoolAI" style="stroke:#181818;stroke-width:1.0;"/><polygon fill="#181818" points="906.99,367.11,898.3634,362.358,902.0082,366.6841,897.682,370.3289,906.99,367.11" style="stroke:#181818;stroke-width:1.0;"/></g><!--link SchoolAdmin to UC_SetSchool--><g id="link_SchoolAdmin_UC_SetSchool"><path d="M1102.45,65.19 C1136.26,79.38 1189.28,104.45 1228.47,136.13 C1262.38,163.54 1289.5104,200.2788 1304.7904,222.8888 " fill="none" id="SchoolAdmin-to-UC_SetSchool" style="stroke:#181818;stroke-width:1.0;"/><polygon fill="#181818" points="1308.15,227.86,1306.4248,218.1634,1305.3503,223.7173,1299.7965,222.6429,1308.15,227.86" style="stroke:#181818;stroke-width:1.0;"/></g><!--link DeptAdmin to UC_DeptList--><g id="link_DeptAdmin_UC_DeptList"><path d="M1939.7,54.5 C1876.9,59.94 1736.96,78.11 1636.47,136.13 C1599.56,157.43 1570.8507,190.813 1552.4007,215.513 " fill="none" id="DeptAdmin-to-UC_DeptList" style="stroke:#181818;stroke-width:1.0;"/><polygon fill="#181818" points="1548.81,220.32,1557.4006,215.5033,1551.8022,216.3142,1550.9913,210.7157,1548.81,220.32" style="stroke:#181818;stroke-width:1.0;"/></g><!--link DeptAdmin to UC_DeptReview--><g id="link_DeptAdmin_UC_DeptReview"><path d="M1939.62,73.55 C1915.35,89.74 1881.89,113.1 1854.47,136.13 C1822.29,163.15 1792.4262,193.4545 1771.1262,216.0445 " fill="none" id="DeptAdmin-to-UC_DeptReview" style="stroke:#181818;stroke-width:1.0;"/><polygon fill="#181818" points="1767.01,220.41,1776.0945,216.6059,1770.4401,216.7721,1770.2739,211.1177,1767.01,220.41" style="stroke:#181818;stroke-width:1.0;"/></g><!--link DeptAdmin to UC_DeptDetail--><g id="link_DeptAdmin_UC_DeptDetail"><path d="M1972.47,89.69 C1972.47,128.21 1972.47,181.13 1972.47,213.82 " fill="none" id="DeptAdmin-to-UC_DeptDetail" style="stroke:#181818;stroke-width:1.0;"/><polygon fill="#181818" points="1972.47,219.82,1976.47,210.82,1972.47,214.82,1968.47,210.82,1972.47,219.82" style="stroke:#181818;stroke-width:1.0;"/></g><!--link DeptAdmin to UC_DeptAI--><g id="link_DeptAdmin_UC_DeptAI"><path d="M2005.18,54.69 C2105.65,61.91 2418.74,83.94 2678.47,97.13 C2735.38,100.01 3663.95,95.07 3703.47,136.13 C3759.66,194.5 3759.88,260.27 3703.47,318.43 C3673.31,349.53 2321.0796,367.5677 2012.4196,371.2877 " fill="none" id="DeptAdmin-to-UC_DeptAI" style="stroke:#181818;stroke-width:1.0;"/><polygon fill="#181818" points="2006.42,371.36,2015.4676,375.2512,2011.4196,371.2997,2015.3711,367.2518,2006.42,371.36" style="stroke:#181818;stroke-width:1.0;"/></g><!--link FinanceAdmin to UC_FinanceList--><g id="link_FinanceAdmin_UC_FinanceList"><path d="M3653.53,63.05 C3616.97,76.12 3557.56,100.91 3515.47,136.13 C3482.58,163.65 3458.8582,202.3509 3446.6282,224.6209 " fill="none" id="FinanceAdmin-to-UC_FinanceList" style="stroke:#181818;stroke-width:1.0;"/><polygon fill="#181818" points="3443.74,229.88,3451.5783,223.9167,3446.1468,225.4974,3444.5661,220.0659,3443.74,229.88" style="stroke:#181818;stroke-width:1.0;"/></g><!--link FinanceAdmin to UC_FinanceReview--><g id="link_FinanceAdmin_UC_FinanceReview"><path d="M3671.64,89.69 C3656.34,128.21 3635.1742,181.5535 3622.1942,214.2435 " fill="none" id="FinanceAdmin-to-UC_FinanceReview" style="stroke:#181818;stroke-width:1.0;"/><polygon fill="#181818" points="3619.98,219.82,3627.019,212.9314,3621.8252,215.1729,3619.5837,209.9791,3619.98,219.82" style="stroke:#181818;stroke-width:1.0;"/></g><!--link FinanceAdmin to UC_FinanceAI--><g id="link_FinanceAdmin_UC_FinanceAI"><path d="M3719.22,84.78 C3731.53,99.22 3744.08,117.22 3750.47,136.13 C3772.87,202.35 3768.12,225.78 3750.47,293.43 C3740.6,331.25 3704.2456,349.8962 3670.7956,360.3762 " fill="none" id="FinanceAdmin-to-UC_FinanceAI" style="stroke:#181818;stroke-width:1.0;"/><polygon fill="#181818" points="3665.07,362.17,3674.8542,363.2963,3669.8413,360.6751,3672.4625,355.6622,3665.07,362.17" style="stroke:#181818;stroke-width:1.0;"/></g><!--link Student to UC_Upload--><g id="link_Student_UC_Upload"><path d="M170.22,51.72 C237.31,51.58 411.26,59.22 526.47,136.13 C557.54,156.87 577.0044,189.7909 588.8344,214.6809 " fill="none" id="Student-to-UC_Upload" style="stroke:#181818;stroke-width:1.0;"/><polygon fill="#181818" points="591.41,220.1,591.1593,210.2543,589.2636,215.5841,583.9339,213.6885,591.41,220.1" style="stroke:#181818;stroke-width:1.0;"/></g><!--link Student to UC_OCR--><g id="link_Student_UC_OCR"><path d="M137.16,89.58 C131.87,138.88 128.57,227.26 160.47,293.43 C167.57,308.16 172.79,311.23 187.47,318.43 C260.29,354.15 288.17,331.44 367.47,348.43 C378.69,350.83 384.7886,352.2275 396.1586,355.1475 " fill="none" id="Student-to-UC_OCR" style="stroke:#181818;stroke-width:1.0;"/><polygon fill="#181818" points="401.97,356.64,394.2479,350.527,397.1272,355.3963,392.2579,358.2756,401.97,356.64" style="stroke:#181818;stroke-width:1.0;"/></g><!--link Student to UC_ManualForm--><g id="link_Student_UC_ManualForm"><path d="M114.6,74.4 C99.93,87.87 83.38,106.44 75.47,127.13 C45.11,206.54 23.24,251.34 75.47,318.43 C94.62,343.03 170.5252,357.3378 226.7352,365.0178 " fill="none" id="Student-to-UC_ManualForm" style="stroke:#181818;stroke-width:1.0;"/><polygon fill="#181818" points="232.68,365.83,224.3043,360.6485,227.726,365.1531,223.2214,368.5748,232.68,365.83" style="stroke:#181818;stroke-width:1.0;"/></g><!--link Student to UC_Submit--><g id="link_Student_UC_Submit"><path d="M114.86,65.09 C89.21,78.66 52.62,102.76 36.47,136.13 C6,199.05 13.33,227.46 36.47,293.43 C72.12,395.06 194.1026,452.5192 252.4126,475.0292 " fill="none" id="Student-to-UC_Submit" style="stroke:#181818;stroke-width:1.0;"/><polygon fill="#181818" points="258.01,477.19,251.0545,470.2172,253.3455,475.3893,248.1734,477.6804,258.01,477.19" style="stroke:#181818;stroke-width:1.0;"/></g><!--link Student to UC_History--><g id="link_Student_UC_History"><path d="M149.15,89.83 C152.49,102.59 157.39,116.55 164.47,128.13 C191.71,172.62 235.6497,207.6736 262.8697,227.0236 " fill="none" id="Student-to-UC_History" style="stroke:#181818;stroke-width:1.0;"/><polygon fill="#181818" points="267.76,230.5,262.7422,222.0253,263.6848,227.603,258.107,228.5456,267.76,230.5" style="stroke:#181818;stroke-width:1.0;"/></g><!--link Student to UC_Profile--><g id="link_Student_UC_Profile"><path d="M164.14,89.95 C174.63,104.53 188.63,119.71 205.47,128.13 C237.71,144.24 335.73,119.05 367.47,136.13 C406.06,156.88 428.3786,200.1499 438.6486,224.2599 " fill="none" id="Student-to-UC_Profile" style="stroke:#181818;stroke-width:1.0;"/><polygon fill="#181818" points="441,229.78,441.153,219.9323,439.0405,225.1799,433.7929,223.0675,441,229.78" style="stroke:#181818;stroke-width:1.0;"/></g><!--link Admin to UC_Auth--><g id="link_Admin_UC_Auth"><path d="M2695.6,55.55 C2604.03,65 2347.98,94.55 2275.47,136.13 C2234.76,159.47 2206.2743,202.278 2192.7343,225.478 " fill="none" id="Admin-to-UC_Auth" style="stroke:#181818;stroke-width:1.0;"/><polygon fill="#181818" points="2189.71,230.66,2197.7012,224.9032,2192.2303,226.3416,2190.7918,220.8707,2189.71,230.66" style="stroke:#181818;stroke-width:1.0;"/></g><!--link SchoolAdmin to UC_Auth--><g id="link_SchoolAdmin_UC_Auth"><path d="M1102.31,53.54 C1267.11,59.88 1999.58,90.45 2089.47,136.13 C2131.53,157.5 2159.7052,201.6445 2172.7652,225.3545 " fill="none" id="SchoolAdmin-to-UC_Auth" style="stroke:#181818;stroke-width:1.0;"/><polygon fill="#181818" points="2175.66,230.61,2174.8214,220.7969,2173.2476,226.2304,2167.8141,224.6567,2175.66,230.61" style="stroke:#181818;stroke-width:1.0;"/></g><!--link DeptAdmin to UC_Auth--><g id="link_DeptAdmin_UC_Auth"><path d="M2005.31,72.81 C2029.67,88.71 2063.08,112.03 2089.47,136.13 C2123.4,167.1 2153.508,205.099 2169.408,226.189 " fill="none" id="DeptAdmin-to-UC_Auth" style="stroke:#181818;stroke-width:1.0;"/><polygon fill="#181818" points="2173.02,230.98,2170.796,221.3855,2170.01,226.9875,2164.408,226.2015,2173.02,230.98" style="stroke:#181818;stroke-width:1.0;"/></g><!--link FinanceAdmin to UC_Auth--><g id="link_FinanceAdmin_UC_Auth"><path d="M3653.79,53.9 C3445.18,64.1 2307.44,120.33 2275.47,136.13 C2232.95,157.13 2204.7624,201.9068 2191.8924,225.6168 " fill="none" id="FinanceAdmin-to-UC_Auth" style="stroke:#181818;stroke-width:1.0;"/><polygon fill="#181818" points="2189.03,230.89,2196.839,224.8884,2191.4153,226.4956,2189.808,221.0719,2189.03,230.89" style="stroke:#181818;stroke-width:1.0;"/></g><!--link Student to UC_Auth--><g id="link_Student_UC_Auth"><path d="M170.11,53.87 C278.47,59.96 684.77,82.48 1019.47,97.13 C1078.9,99.73 2035.84,110.39 2089.47,136.13 C2132.22,156.64 2160.3236,201.6528 2173.1236,225.5128 " fill="none" id="Student-to-UC_Auth" style="stroke:#181818;stroke-width:1.0;"/><polygon fill="#181818" points="2175.96,230.8,2175.2302,220.9782,2173.5963,226.394,2168.1806,224.7601,2175.96,230.8" style="stroke:#181818;stroke-width:1.0;"/></g><!--link UC_Upload to UC_OCR--><g id="link_UC_Upload_UC_OCR"><path d="M576.72,267.49 C550.5,290.48 513.8406,322.6434 487.3806,345.8534 " fill="none" id="UC_Upload-to-UC_OCR" style="stroke:#181818;stroke-width:1.0;stroke-dasharray:7.0,7.0;"/><polygon fill="#181818" points="482.87,349.81,492.2736,346.8822,486.6288,346.5129,486.9982,340.8681,482.87,349.81" style="stroke:#181818;stroke-width:1.0;"/><text fill="#000000" font-family="sans-serif" font-size="13" lengthAdjust="spacing" textLength="60" x="534.79" y="314.9984">&#171;include&#187;</text></g><!--link UC_OCR to UC_Submit--><g id="link_UC_OCR_UC_Submit"><path d="M426.55,395.68 C406.19,409.81 378.88,428.57 354.47,444.73 C338.47,455.33 325.1637,463.8473 311.7137,472.3373 " fill="none" id="UC_OCR-to-UC_Submit" style="stroke:#181818;stroke-width:1.0;stroke-dasharray:7.0,7.0;"/><polygon fill="#181818" points="306.64,475.54,316.3857,474.1185,310.8681,472.8711,312.1155,467.3535,306.64,475.54" style="stroke:#181818;stroke-width:1.0;"/><text fill="#000000" font-family="sans-serif" font-size="13" lengthAdjust="spacing" textLength="57" x="378.21" y="441.2984">&#171;extend&#187;</text></g><!--link UC_ManualForm to UC_Submit--><g id="link_UC_ManualForm_UC_Submit"><path d="M287.47,388 C287.47,410.01 287.47,446.6 287.47,468.24 " fill="none" id="UC_ManualForm-to-UC_Submit" style="stroke:#181818;stroke-width:1.0;stroke-dasharray:7.0,7.0;"/><polygon fill="#181818" points="287.47,474.24,291.47,465.24,287.47,469.24,283.47,465.24,287.47,474.24" style="stroke:#181818;stroke-width:1.0;"/><text fill="#000000" font-family="sans-serif" font-size="13" lengthAdjust="spacing" textLength="57" x="288.47" y="441.2984">&#171;extend&#187;</text></g><!--link UC_SchoolReview to UC_SchoolAI--><g id="link_UC_SchoolReview_UC_SchoolAI"><path d="M1122.27,266.07 C1083.55,292.08 1022.4802,333.1137 989.4702,355.2937 " fill="none" id="UC_SchoolReview-to-UC_SchoolAI" style="stroke:#181818;stroke-width:1.0;stroke-dasharray:7.0,7.0;"/><polygon fill="#181818" points="984.49,358.64,994.1912,356.9407,988.6402,355.8514,989.7294,350.3004,984.49,358.64" style="stroke:#181818;stroke-width:1.0;"/><text fill="#000000" font-family="sans-serif" font-size="13" lengthAdjust="spacing" textLength="57" x="1065.11" y="314.9984">&#171;extend&#187;</text></g><!--link UC_DeptReview to UC_DeptAI--><g id="link_UC_DeptReview_UC_DeptAI"><path d="M1780.13,267.78 C1821.45,294 1884.1037,333.7756 1918.2737,355.4556 " fill="none" id="UC_DeptReview-to-UC_DeptAI" style="stroke:#181818;stroke-width:1.0;stroke-dasharray:7.0,7.0;"/><polygon fill="#181818" points="1923.34,358.67,1917.8835,350.4708,1919.1181,355.9913,1913.5976,357.2259,1923.34,358.67" style="stroke:#181818;stroke-width:1.0;"/><text fill="#000000" font-family="sans-serif" font-size="13" lengthAdjust="spacing" textLength="57" x="1857.89" y="314.9984">&#171;extend&#187;</text></g><!--link UC_FinanceReview to UC_FinanceAI--><g id="link_UC_FinanceReview_UC_FinanceAI"><path d="M3612.57,269.83 C3614.83,295.89 3617.8593,330.5926 3619.7193,351.9426 " fill="none" id="UC_FinanceReview-to-UC_FinanceAI" style="stroke:#181818;stroke-width:1.0;stroke-dasharray:7.0,7.0;"/><polygon fill="#181818" points="3620.24,357.92,3623.4438,348.6068,3619.806,352.9389,3615.474,349.3011,3620.24,357.92" style="stroke:#181818;stroke-width:1.0;"/><text fill="#000000" font-family="sans-serif" font-size="13" lengthAdjust="spacing" textLength="57" x="3617.63" y="314.9984">&#171;extend&#187;</text></g><!--SRC=[fLPVJzjM57_FfxZYfUj3Qqrxcpga28I6jggeZBTAbPlSKgk9ZHodNJTL2a89IGWKgl2leOCWQB9IGbSOXGIIxu9oh-sdVeLT-zgExxNDDZNoGtJExvvpxk_ykpV03r_nYzq0UBEDMdKpzmPSvQh0FDZ0EtMZNi7L7X7Zqhan_nwLcwYo1kBJKDR82RtQx7SNKAtxvQA8AoMZyTeeVVfoKIAghuebbdagoJEYAgR1Z9XuAax3IUr52W8L9ZHHdav17q1CQ8fArU9pc57IVcKIFXQpAMrCaRL9wJS8llqkHcAxgkR81sYugFMcVrvoP37R6XWoJlDwkw6twlfo0QriF92_4PDfIRuv1CGCY5j_NIGwV4Teyf0sO3BnH55I3CoSQvhhJHOs2cSq1cISxA8oPsjCaaKv0NcVUdMRkjAoIIiNWrlfnnszisrqp_NLYdihZpSmD4Wo1Gw1tsC0a6z02tjtccFN4d0J4k1eGCtKY6qJW6m69iGCWL8GY4-CWv_W2y8c_jn1vHq1pMuHymAUtKLxYvJSgP67yHc9e5WBg5X3dJObsyMDg53K82MRHy_ZnLsAnbkB5gc79H8iyJocGWYk2bKmeIgUHshZ5mcgON7ZuZAj0ITglT4nD_S4MZx6npcyUk9PkWlJZw1wTpgjSPPiilNQ2bvgU5X5baW-MI3UtjUt5aYA3D9pw_kej-xHaarAbjMNCN-skFgBp5PqdKQbYojPSd-Q146_M3EwAm8gxX0Ql9jxrHoyl7EdV9D4q6yla7JWNCTe55dwxps3wZC9FkTIIUDkD-WC8b6GsZLwyuBvvp6g_S6by3uCMkXVzWWhfEwDkKiIlj5giMVYuopUQ7NrovPrfFYPUaU7wxZrjtSAQbxDiRdW68lCHTGm26Q2CeUtFj0Zb3oh4YiblNoASxE2kN5AOjCFQsQknEJYPod3fO7Q2ETHCBTo_LuBLyyP8s5yqfXeACRHEpoNjm9wkupNDWMZtaIBgmBrWPOAUdE1iJSADL5A_TVys2Kr7g2P6vFH0ofwd4OoNTutgpbwDpSAvqYGJshVuzFwitDcpg-Oksy5z6f5ts_Uv6pyl_9qH_zuMDEJ1N1ThtFx8NZV_bcvVx53qsO5N-lgfNbXOdJCYtbg9gM8IOubEqnmR-G-C8uAg7ZmGBugl0REow1-GFBl7YSOxcnfWO9GOPFMYJS8HJahfiOKDSsTUBNSR-zHWhtkopvAI-7pPQc0NdqoMX_HfMVvHv8qHULs2PrV_RFt_NQxtwlZsICNJdR2OucyBW9yvp-W_5_HVDjgsyY8aauh8HiG7pTHeIBecnrVTF6iziJszJBmAW4MhSxpAdzip5PTj_Q81RTk3Vis9IDZjYAZyMqvHkxRMQpSsK-iItiBnNnF75V3Be0G03Vc8n5EbqJgIKE4wRon7FCYyOTczs-enl4NgdC6LgYEn17pFyzSdNzWNADtt5w3i1mu3UngdARaf5QlSI9VJt4QfuCugTifdDZj2Bu8IE66vC2M1xYofM7Nf6POXxRCzvgrMy1SFo5TGDvGRXTuJ83Rjrq6mFVWpXr9JgI8lU7Xc2DqzFJIDWJ-ga4vIH43blu5wAzC3-fKOm0yA2eNIiib06GgmSLwoMVX_m00]--></g></svg>