<svg xmlns="http://www.w3.org/2000/svg" xmlns:xlink="http://www.w3.org/1999/xlink" contentStyleType="text/css" data-diagram-type="ACTIVITY" height="1264px" preserveAspectRatio="none" style="width:2019px;height:1264px;background:#FEFEFE;" version="1.1" viewBox="0 0 2019 1264" width="2019px" zoomAndPan="magnify"><title>LoRA &#24494;&#35843;&#31649;&#32447;&#27963;&#21160;&#22270;</title><defs><filter height="300%" id="f1771mn3u7tkwv" width="300%" x="-1" y="-1"><feGaussianBlur result="blurOut" stdDeviation="2"/><feColorMatrix in="blurOut" result="blurOut2" type="matrix" values="0 0 0 0 0 0 0 0 0 0 0 0 0 0 0 0 0 0 .4 0"/><feOffset dx="4" dy="4" in="blurOut2" result="blurOut3"/><feBlend in="SourceGraphic" in2="blurOut3" mode="normal"/></filter></defs><g><rect fill="#FEFEFE" height="1264" style="stroke:none;stroke-width:1;" width="2019" x="0" y="0"/><text fill="#000000" font-family="sans-serif" font-size="14" font-weight="bold" lengthAdjust="spacing" textLength="139.665" x="938.2825" y="33.5352">LoRA &#24494;&#35843;&#31649;&#32447;&#27963;&#21160;&#22270;</text><rect fill="none" height="14.1328" style="stroke:none;stroke-width:1;" width="1986.23" x="15" y="48.5195"/><ellipse cx="139.0967" cy="77.6523" fill="#222222" filter="url(#f1771mn3u7tkwv)" rx="10" ry="10" style="stroke:#222222;stroke-width:1;"/><path d="M256.2432,105.5859 L256.2432,120.7188 L236.2432,124.7188 L256.2432,128.7188 L256.2432,143.8516 A0,0 0 0 0 256.2432,143.8516 L488.5732,143.8516 A0,0 0 0 0 488.5732,143.8516 L488.5732,115.5859 L478.5732,105.5859 L256.2432,105.5859 A0,0 0 0 0 256.2432,105.5859" fill="#FEFFDD" filter="url(#f1771mn3u7tkwv)" style="stroke:#181818;stroke-width:0.5;"/><path d="M478.5732,105.5859 L478.5732,115.5859 L488.5732,115.5859 L478.5732,105.5859" fill="#FEFFDD" style="stroke:#181818;stroke-width:0.5;"/><text fill="#000000" font-family="sans-serif" font-size="12" lengthAdjust="spacing" textLength="211.3301" x="262.2432" y="122.1875">jwc.sdust.edu.cn (&#24037;&#20316;&#27969;&#31243;/&#36890;&#30693;&#20844;&#21578;)</text><text fill="#000000" font-family="sans-serif" font-size="12" lengthAdjust="spacing" textLength="202.5938" x="262.2432" y="136.3203">yjsy.sdust.edu.cn (&#24037;&#20316;&#37096;/&#35268;&#31456;&#21046;&#24230;)</text><rect fill="#F1F1F1" filter="url(#f1771mn3u7tkwv)" height="34.1328" rx="12.5" ry="12.5" style="stroke:#181818;stroke-width:0.5;" width="194.293" x="41.9502" y="107.6523"/><text fill="#000000" font-family="sans-serif" font-size="12" lengthAdjust="spacing" textLength="174.293" x="51.9502" y="129.2539">&#29228;&#21462;&#23665;&#31185;&#22823;&#25945;&#21153;&#22788;/&#30740;&#31350;&#29983;&#38498;&#39029;&#38754;</text><rect fill="#F1F1F1" filter="url(#f1771mn3u7tkwv)" height="34.1328" rx="12.5" ry="12.5" style="stroke:#181818;stroke-width:0.5;" width="148.5313" x="64.8311" y="163.8516"/><text fill="#000000" font-family="sans-serif" font-size="12" lengthAdjust="spacing" textLength="128.5313" x="74.8311" y="185.4531">HTML &#35299;&#26512; &#8594; &#25552;&#21462;&#25991;&#26412;</text><rect fill="#F1F1F1" filter="url(#f1771mn3u7tkwv)" height="34.1328" rx="12.5" ry="12.5" style="stroke:#181818;stroke-width:0.5;" width="232.1797" x="23.0068" y="217.9844"/><text fill="#000000" font-family="sans-serif" font-size="12" lengthAdjust="spacing" textLength="212.1797" x="33.0068" y="239.5859">&#29983;&#25104; instruction/input/output &#19977;&#20803;&#32452;</text><path d="M277.1934,277.1172 L277.1934,285.1836 L257.1934,289.1836 L277.1934,293.1836 L277.1934,301.25 A0,0 0 0 0 277.1934,301.25 L421.375,301.25 A0,0 0 0 0 421.375,301.25 L421.375,287.1172 L411.375,277.1172 L277.1934,277.1172 A0,0 0 0 0 277.1934,277.1172" fill="#FEFFDD" filter="url(#f1771mn3u7tkwv)" style="stroke:#181818;stroke-width:0.5;"/><path d="M411.375,277.1172 L411.375,287.1172 L421.375,287.1172 L411.375,277.1172" fill="#FEFFDD" style="stroke:#181818;stroke-width:0.5;"/><text fill="#000000" font-family="sans-serif" font-size="12" lengthAdjust="spacing" textLength="123.1816" x="283.1934" y="293.7188">&#32422; 9 &#26465;&#39640;&#36136;&#37327;&#35757;&#32451;&#26679;&#26412;</text><rect fill="#F1F1F1" filter="url(#f1771mn3u7tkwv)" height="34.1328" rx="12.5" ry="12.5" style="stroke:#181818;stroke-width:0.5;" width="236.1934" x="21" y="272.1172"/><text fill="#000000" font-family="sans-serif" font-size="12" lengthAdjust="spacing" textLength="216.1934" x="31" y="293.7188">&#36755;&#20986; sdust_process_corpus_lora.jsonl</text><line style="stroke:#000000;stroke-width:1.5;" x1="15" x2="15" y1="48.5195" y2="1247.375"/><path d="M763.1436,324.1836 L763.1436,339.3164 L743.1436,343.3164 L763.1436,347.3164 L763.1436,362.4492 A0,0 0 0 0 763.1436,362.4492 L1075.3896,362.4492 A0,0 0 0 0 1075.3896,362.4492 L1075.3896,334.1836 L1065.3896,324.1836 L763.1436,324.1836 A0,0 0 0 0 763.1436,324.1836" fill="#FEFFDD" filter="url(#f1771mn3u7tkwv)" style="stroke:#181818;stroke-width:0.5;"/><path d="M1065.3896,324.1836 L1065.3896,334.1836 L1075.3896,334.1836 L1065.3896,324.1836" fill="#FEFFDD" style="stroke:#181818;stroke-width:0.5;"/><text fill="#000000" font-family="sans-serif" font-size="12" lengthAdjust="spacing" textLength="291.2461" x="769.1436" y="340.7852">BASE_MODEL_DIR = models/qwen2.5-0.5b-local/</text><text fill="#000000" font-family="sans-serif" font-size="12" lengthAdjust="spacing" textLength="99.6855" x="769.1436" y="354.918">&#20174; GGUF &#25991;&#20214;&#21152;&#36733;</text><rect fill="#F1F1F1" filter="url(#f1771mn3u7tkwv)" height="34.1328" rx="12.5" ry="12.5" style="stroke:#181818;stroke-width:0.5;" width="208.0859" x="535.0576" y="326.25"/><text fill="#000000" font-family="sans-serif" font-size="12" lengthAdjust="spacing" textLength="188.0859" x="545.0576" y="347.8516">&#21152;&#36733;&#26412;&#22320; Qwen2.5-0.5B &#22522;&#24231;&#27169;&#22411;</text><path d="M711.7158,380.3828 L711.7158,395.5156 L691.7158,399.5156 L711.7158,403.5156 L711.7158,418.6484 A0,0 0 0 0 711.7158,418.6484 L988.7236,418.6484 A0,0 0 0 0 988.7236,418.6484 L988.7236,390.3828 L978.7236,380.3828 L711.7158,380.3828 A0,0 0 0 0 711.7158,380.3828" fill="#FEFFDD" filter="url(#f1771mn3u7tkwv)" style="stroke:#181818;stroke-width:0.5;"/><path d="M978.7236,380.3828 L978.7236,390.3828 L988.7236,390.3828 L978.7236,380.3828" fill="#FEFFDD" style="stroke:#181818;stroke-width:0.5;"/><text fill="#000000" font-family="sans-serif" font-size="12" lengthAdjust="spacing" textLength="184.043" x="717.7158" y="396.9844">r=16, alpha=32, dropout=0.05</text><text fill="#000000" font-family="sans-serif" font-size="12" lengthAdjust="spacing" textLength="256.0078" x="717.7158" y="411.1172">targets: q/k/v/o_proj + gate/up/down_proj</text><rect fill="#F1F1F1" filter="url(#f1771mn3u7tkwv)" height="34.1328" rx="12.5" ry="12.5" style="stroke:#181818;stroke-width:0.5;" width="105.2305" x="586.4854" y="382.4492"/><text fill="#000000" font-family="sans-serif" font-size="12" lengthAdjust="spacing" textLength="85.2305" x="596.4854" y="404.0508">&#37197;&#32622; LoRA &#21442;&#25968;</text><path d="M710.0869,429.5156 L710.0869,451.7148 L690.0869,455.7148 L710.0869,459.7148 L710.0869,481.9141 A0,0 0 0 0 710.0869,481.9141 L918.5283,481.9141 A0,0 0 0 0 918.5283,481.9141 L918.5283,439.5156 L908.5283,429.5156 L710.0869,429.5156 A0,0 0 0 0 710.0869,429.5156" fill="#FEFFDD" filter="url(#f1771mn3u7tkwv)" style="stroke:#181818;stroke-width:0.5;"/><path d="M908.5283,429.5156 L908.5283,439.5156 L918.5283,439.5156 L908.5283,429.5156" fill="#FEFFDD" style="stroke:#181818;stroke-width:0.5;"/><text fill="#000000" font-family="sans-serif" font-size="12" lengthAdjust="spacing" textLength="187.4414" x="716.0869" y="446.1172">batch=1, grad_accum=8 (&#31561;&#25928;8)</text><text fill="#000000" font-family="sans-serif" font-size="12" lengthAdjust="spacing" textLength="145.752" x="716.0869" y="460.25">lr=2e-4, max_seq=1024</text><text fill="#000000" font-family="sans-serif" font-size="12" lengthAdjust="spacing" textLength="177.2695" x="716.0869" y="474.3828">&#35774;&#22791;: Apple MPS / CUDA / CPU</text><rect fill="#F1F1F1" filter="url(#f1771mn3u7tkwv)" height="34.1328" rx="12.5" ry="12.5" style="stroke:#181818;stroke-width:0.5;" width="101.9727" x="588.1143" y="438.6484"/><text fill="#000000" font-family="sans-serif" font-size="12" lengthAdjust="spacing" textLength="81.9727" x="598.1143" y="460.25">50 epoch &#35757;&#32451;</text><path d="M798.6279,506.9141 L798.6279,514.9805 L778.6279,518.9805 L798.6279,522.9805 L798.6279,531.0469 A0,0 0 0 0 798.6279,531.0469 L1109.415,531.0469 A0,0 0 0 0 1109.415,531.0469 L1109.415,516.9141 L1099.415,506.9141 L798.6279,506.9141 A0,0 0 0 0 798.6279,506.9141" fill="#FEFFDD" filter="url(#f1771mn3u7tkwv)" style="stroke:#181818;stroke-width:0.5;"/><path d="M1099.415,506.9141 L1099.415,516.9141 L1109.415,516.9141 L1099.415,506.9141" fill="#FEFFDD" style="stroke:#181818;stroke-width:0.5;"/><text fill="#000000" font-family="sans-serif" font-size="12" lengthAdjust="spacing" textLength="289.7871" x="804.6279" y="523.5156">adapter_config.json + adapter_model.safetensors</text><rect fill="#F1F1F1" filter="url(#f1771mn3u7tkwv)" height="34.1328" rx="12.5" ry="12.5" style="stroke:#181818;stroke-width:0.5;" width="279.0547" x="499.5732" y="501.9141"/><text fill="#000000" font-family="sans-serif" font-size="12" lengthAdjust="spacing" textLength="259.0547" x="509.5732" y="523.5156">&#20445;&#23384; checkpoint-50/ checkpoint-100/ final/</text><line style="stroke:#000000;stroke-width:1.5;" x1="493.5732" x2="493.5732" y1="48.5195" y2="1247.375"/><rect fill="#F1F1F1" filter="url(#f1771mn3u7tkwv)" height="34.1328" rx="12.5" ry="12.5" style="stroke:#181818;stroke-width:0.5;" width="168.9922" x="1155.8203" y="556.0469"/><text fill="#000000" font-family="sans-serif" font-size="12" lengthAdjust="spacing" textLength="148.9922" x="1165.8203" y="577.6484">&#21152;&#36733; LoRA adapter (final/)</text><rect fill="#F1F1F1" filter="url(#f1771mn3u7tkwv)" height="34.1328" rx="12.5" ry="12.5" style="stroke:#181818;stroke-width:0.5;" width="226.1094" x="1127.2617" y="610.1797"/><text fill="#000000" font-family="sans-serif" font-size="12" lengthAdjust="spacing" textLength="206.1094" x="1137.2617" y="631.7813">merge_and_unload() &#21512;&#24182;&#21040;&#22522;&#24231;&#27169;&#22411;</text><path d="M1373.5322,669.3125 L1373.5322,677.3789 L1353.5322,681.3789 L1373.5322,685.3789 L1373.5322,693.4453 A0,0 0 0 0 1373.5322,693.4453 L1541.8896,693.4453 A0,0 0 0 0 1541.8896,693.4453 L1541.8896,679.3125 L1531.8896,669.3125 L1373.5322,669.3125 A0,0 0 0 0 1373.5322,669.3125" fill="#FEFFDD" filter="url(#f1771mn3u7tkwv)" style="stroke:#181818;stroke-width:0.5;"/><path d="M1531.8896,669.3125 L1531.8896,679.3125 L1541.8896,679.3125 L1531.8896,669.3125" fill="#FEFFDD" style="stroke:#181818;stroke-width:0.5;"/><text fill="#000000" font-family="sans-serif" font-size="12" lengthAdjust="spacing" textLength="147.3574" x="1379.5322" y="685.9141">model.safetensors &#8776; 1GB</text><rect fill="#F1F1F1" filter="url(#f1771mn3u7tkwv)" height="34.1328" rx="12.5" ry="12.5" style="stroke:#181818;stroke-width:0.5;" width="226.4316" x="1127.1006" y="664.3125"/><text fill="#000000" font-family="sans-serif" font-size="12" lengthAdjust="spacing" textLength="206.4316" x="1137.1006" y="685.9141">&#20445;&#23384; lora_output_merged/ (HF &#26684;&#24335;)</text><rect fill="#F1F1F1" filter="url(#f1771mn3u7tkwv)" height="34.1328" rx="12.5" ry="12.5" style="stroke:#181818;stroke-width:0.5;" width="207.9219" x="1136.3555" y="718.4453"/><text fill="#000000" font-family="sans-serif" font-size="12" lengthAdjust="spacing" textLength="187.9219" x="1146.3555" y="740.0469">convert_hf_to_gguf &#8594; q8_0 &#37327;&#21270;</text><path d="M1380.2178,777.5781 L1380.2178,785.6445 L1360.2178,789.6445 L1380.2178,793.6445 L1380.2178,801.7109 A0,0 0 0 0 1380.2178,801.7109 L1581.3467,801.7109 A0,0 0 0 0 1581.3467,801.7109 L1581.3467,787.5781 L1571.3467,777.5781 L1380.2178,777.5781 A0,0 0 0 0 1380.2178,777.5781" fill="#FEFFDD" filter="url(#f1771mn3u7tkwv)" style="stroke:#181818;stroke-width:0.5;"/><path d="M1571.3467,777.5781 L1571.3467,787.5781 L1581.3467,787.5781 L1571.3467,777.5781" fill="#FEFFDD" style="stroke:#181818;stroke-width:0.5;"/><text fill="#000000" font-family="sans-serif" font-size="12" lengthAdjust="spacing" textLength="180.1289" x="1386.2178" y="794.1797">GGUF &#26684;&#24335;&#65292;llama.cpp &#30452;&#25509;&#21152;&#36733;</text><rect fill="#F1F1F1" filter="url(#f1771mn3u7tkwv)" height="34.1328" rx="12.5" ry="12.5" style="stroke:#181818;stroke-width:0.5;" width="239.8027" x="1120.415" y="772.5781"/><text fill="#000000" font-family="sans-serif" font-size="12" lengthAdjust="spacing" textLength="219.8027" x="1130.415" y="794.1797">&#36755;&#20986; models/qwen2.5-0.5b-lora.gguf</text><line style="stroke:#000000;stroke-width:1.5;" x1="1114.415" x2="1114.415" y1="48.5195" y2="1247.375"/><rect fill="#F1F1F1" filter="url(#f1771mn3u7tkwv)" height="34.1328" rx="12.5" ry="12.5" style="stroke:#181818;stroke-width:0.5;" width="91.7891" x="1778.0872" y="826.7109"/><text fill="#000000" font-family="sans-serif" font-size="12" lengthAdjust="spacing" textLength="71.7891" x="1788.0872" y="848.3125">&#21551;&#21160; start.sh</text><polygon fill="#FFF9C4" filter="url(#f1771mn3u7tkwv)" points="1739.5598,880.8438,1908.4036,880.8438,1920.4036,892.8438,1908.4036,904.8438,1739.5598,904.8438,1727.5598,892.8438,1739.5598,880.8438" style="stroke:#181818;stroke-width:0.5;"/><text fill="#000000" font-family="sans-serif" font-size="12" lengthAdjust="spacing" textLength="168.8438" x="1739.5598" y="897.3789">&#26816;&#27979;&#21040; lora_output_merged/?</text><text fill="#000000" font-family="sans-serif" font-size="12" lengthAdjust="spacing" textLength="12" x="1715.5598" y="890.3125">&#26159;</text><text fill="#000000" font-family="sans-serif" font-size="12" lengthAdjust="spacing" textLength="12" x="1920.4036" y="890.3125">&#21542;</text><polygon fill="#FFF9C4" filter="url(#f1771mn3u7tkwv)" points="1665.1563,914.8438,1742.1074,914.8438,1754.1074,926.8438,1742.1074,938.8438,1665.1563,938.8438,1653.1563,926.8438,1665.1563,914.8438" style="stroke:#181818;stroke-width:0.5;"/><text fill="#000000" font-family="sans-serif" font-size="12" lengthAdjust="spacing" textLength="76.9512" x="1665.1563" y="931.3789">GGUF &#24050;&#23384;&#22312;?</text><text fill="#000000" font-family="sans-serif" font-size="12" lengthAdjust="spacing" textLength="12" x="1641.1563" y="924.3125">&#26159;</text><text fill="#000000" font-family="sans-serif" font-size="12" lengthAdjust="spacing" textLength="12" x="1754.1074" y="924.3125">&#21542;</text><rect fill="#F1F1F1" filter="url(#f1771mn3u7tkwv)" height="34.1328" rx="12.5" ry="12.5" style="stroke:#181818;stroke-width:0.5;" width="68" x="1596.7319" y="948.8438"/><text fill="#000000" font-family="sans-serif" font-size="12" lengthAdjust="spacing" textLength="48" x="1606.7319" y="970.4453">&#36339;&#36807;&#36716;&#25442;</text><rect fill="#F1F1F1" filter="url(#f1771mn3u7tkwv)" height="34.1328" rx="12.5" ry="12.5" style="stroke:#181818;stroke-width:0.5;" width="183.5996" x="1684.7319" y="948.8438"/><text fill="#000000" font-family="sans-serif" font-size="12" lengthAdjust="spacing" textLength="163.5996" x="1694.7319" y="970.4453">&#33258;&#21160;&#25191;&#34892; convert_hf_to_gguf</text><polygon fill="#FFF9C4" filter="url(#f1771mn3u7tkwv)" points="1703.6318,988.9766,1715.6318,1000.9766,1703.6318,1012.9766,1691.6318,1000.9766,1703.6318,988.9766" style="stroke:#181818;stroke-width:0.5;"/><rect fill="#F1F1F1" filter="url(#f1771mn3u7tkwv)" height="34.1328" rx="12.5" ry="12.5" style="stroke:#181818;stroke-width:0.5;" width="222.5703" x="1592.3467" y="1032.9766"/><text fill="#000000" font-family="sans-serif" font-size="12" lengthAdjust="spacing" textLength="202.5703" x="1602.3467" y="1054.5781">export MODEL_PATH=&#24494;&#35843;&#27169;&#22411;&#36335;&#24452;</text><rect fill="#F1F1F1" filter="url(#f1771mn3u7tkwv)" height="34.1328" rx="12.5" ry="12.5" style="stroke:#181818;stroke-width:0.5;" width="92" x="1898.3315" y="914.8438"/><text fill="#000000" font-family="sans-serif" font-size="12" lengthAdjust="spacing" textLength="72" x="1908.3315" y="936.4453">&#20351;&#29992;&#21407;&#22987;&#27169;&#22411;</text><polygon fill="#FFF9C4" filter="url(#f1771mn3u7tkwv)" points="1823.9817,1073.1094,1835.9817,1085.1094,1823.9817,1097.1094,1811.9817,1085.1094,1823.9817,1073.1094" style="stroke:#181818;stroke-width:0.5;"/><rect fill="#F1F1F1" filter="url(#f1771mn3u7tkwv)" height="34.1328" rx="12.5" ry="12.5" style="stroke:#181818;stroke-width:0.5;" width="156.0371" x="1745.9631" y="1117.1094"/><text fill="#000000" font-family="sans-serif" font-size="12" lengthAdjust="spacing" textLength="136.0371" x="1755.9631" y="1138.7109">&#21551;&#21160; llama.cpp &#25512;&#29702;&#26381;&#21153;</text><rect fill="#F1F1F1" filter="url(#f1771mn3u7tkwv)" height="34.1328" rx="12.5" ry="12.5" style="stroke:#181818;stroke-width:0.5;" width="192.8691" x="1727.5471" y="1171.2422"/><text fill="#000000" font-family="sans-serif" font-size="12" lengthAdjust="spacing" textLength="172.8691" x="1737.5471" y="1192.8438">Qwen2.5-0.5B-LoRA &#24120;&#39547;&#20869;&#23384;</text><ellipse cx="1823.9817" cy="1236.375" fill="none" filter="url(#f1771mn3u7tkwv)" rx="11" ry="11" style="stroke:#222222;stroke-width:1;"/><ellipse cx="1823.9817" cy="1236.375" fill="#222222" rx="6" ry="6" style="stroke:#222222;stroke-width:1;"/><line style="stroke:#000000;stroke-width:1.5;" x1="1586.3467" x2="1586.3467" y1="48.5195" y2="1247.375"/><line style="stroke:#000000;stroke-width:1.5;" x1="2000.3315" x2="2000.3315" y1="48.5195" y2="1247.375"/><line style="stroke:#181818;stroke-width:1;" x1="139.0967" x2="139.0967" y1="87.6523" y2="107.6523"/><polygon fill="#181818" points="135.0967,97.6523,139.0967,107.6523,143.0967,97.6523,139.0967,101.6523" style="stroke:#181818;stroke-width:1;"/><line style="stroke:#181818;stroke-width:1;" x1="139.0967" x2="139.0967" y1="141.7852" y2="163.8516"/><polygon fill="#181818" points="135.0967,153.8516,139.0967,163.8516,143.0967,153.8516,139.0967,157.8516" style="stroke:#181818;stroke-width:1;"/><line style="stroke:#181818;stroke-width:1;" x1="139.0967" x2="139.0967" y1="197.9844" y2="217.9844"/><polygon fill="#181818" points="135.0967,207.9844,139.0967,217.9844,143.0967,207.9844,139.0967,211.9844" style="stroke:#181818;stroke-width:1;"/><line style="stroke:#181818;stroke-width:1;" x1="139.0967" x2="139.0967" y1="252.1172" y2="272.1172"/><polygon fill="#181818" points="135.0967,262.1172,139.0967,272.1172,143.0967,262.1172,139.0967,266.1172" style="stroke:#181818;stroke-width:1;"/><line style="stroke:#181818;stroke-width:1;" x1="639.1006" x2="639.1006" y1="360.3828" y2="382.4492"/><polygon fill="#181818" points="635.1006,372.4492,639.1006,382.4492,643.1006,372.4492,639.1006,376.4492" style="stroke:#181818;stroke-width:1;"/><line style="stroke:#181818;stroke-width:1;" x1="639.1006" x2="639.1006" y1="416.582" y2="438.6484"/><polygon fill="#181818" points="635.1006,428.6484,639.1006,438.6484,643.1006,428.6484,639.1006,432.6484" style="stroke:#181818;stroke-width:1;"/><line style="stroke:#181818;stroke-width:1;" x1="639.1006" x2="639.1006" y1="472.7813" y2="501.9141"/><polygon fill="#181818" points="635.1006,491.9141,639.1006,501.9141,643.1006,491.9141,639.1006,495.9141" style="stroke:#181818;stroke-width:1;"/><line style="stroke:#181818;stroke-width:1;" x1="1240.3164" x2="1240.3164" y1="590.1797" y2="610.1797"/><polygon fill="#181818" points="1236.3164,600.1797,1240.3164,610.1797,1244.3164,600.1797,1240.3164,604.1797" style="stroke:#181818;stroke-width:1;"/><line style="stroke:#181818;stroke-width:1;" x1="1240.3164" x2="1240.3164" y1="644.3125" y2="664.3125"/><polygon fill="#181818" points="1236.3164,654.3125,1240.3164,664.3125,1244.3164,654.3125,1240.3164,658.3125" style="stroke:#181818;stroke-width:1;"/><line style="stroke:#181818;stroke-width:1;" x1="1240.3164" x2="1240.3164" y1="698.4453" y2="718.4453"/><polygon fill="#181818" points="1236.3164,708.4453,1240.3164,718.4453,1244.3164,708.4453,1240.3164,712.4453" style="stroke:#181818;stroke-width:1;"/><line style="stroke:#181818;stroke-width:1;" x1="1240.3164" x2="1240.3164" y1="752.5781" y2="772.5781"/><polygon fill="#181818" points="1236.3164,762.5781,1240.3164,772.5781,1244.3164,762.5781,1240.3164,766.5781" style="stroke:#181818;stroke-width:1;"/><line style="stroke:#181818;stroke-width:1;" x1="1653.1563" x2="1630.7319" y1="926.8438" y2="926.8438"/><line style="stroke:#181818;stroke-width:1;" x1="1630.7319" x2="1630.7319" y1="926.8438" y2="948.8438"/><polygon fill="#181818" points="1626.7319,938.8438,1630.7319,948.8438,1634.7319,938.8438,1630.7319,942.8438" style="stroke:#181818;stroke-width:1;"/><line style="stroke:#181818;stroke-width:1;" x1="1754.1074" x2="1776.5317" y1="926.8438" y2="926.8438"/><line style="stroke:#181818;stroke-width:1;" x1="1776.5317" x2="1776.5317" y1="926.8438" y2="948.8438"/><polygon fill="#181818" points="1772.5317,938.8438,1776.5317,948.8438,1780.5317,938.8438,1776.5317,942.8438" style="stroke:#181818;stroke-width:1;"/><line style="stroke:#181818;stroke-width:1;" x1="1630.7319" x2="1630.7319" y1="982.9766" y2="1000.9766"/><line style="stroke:#181818;stroke-width:1;" x1="1630.7319" x2="1691.6318" y1="1000.9766" y2="1000.9766"/><polygon fill="#181818" points="1681.6318,996.9766,1691.6318,1000.9766,1681.6318,1004.9766,1685.6318,1000.9766" style="stroke:#181818;stroke-width:1;"/><line style="stroke:#181818;stroke-width:1;" x1="1776.5317" x2="1776.5317" y1="982.9766" y2="1000.9766"/><line style="stroke:#181818;stroke-width:1;" x1="1776.5317" x2="1715.6318" y1="1000.9766" y2="1000.9766"/><polygon fill="#181818" points="1725.6318,996.9766,1715.6318,1000.9766,1725.6318,1004.9766,1721.6318,1000.9766" style="stroke:#181818;stroke-width:1;"/><line style="stroke:#181818;stroke-width:1;" x1="1703.6318" x2="1703.6318" y1="1012.9766" y2="1032.9766"/><polygon fill="#181818" points="1699.6318,1022.9766,1703.6318,1032.9766,1707.6318,1022.9766,1703.6318,1026.9766" style="stroke:#181818;stroke-width:1;"/><line style="stroke:#181818;stroke-width:1;" x1="1727.5598" x2="1703.6318" y1="892.8438" y2="892.8438"/><line style="stroke:#181818;stroke-width:1;" x1="1703.6318" x2="1703.6318" y1="892.8438" y2="914.8438"/><polygon fill="#181818" points="1699.6318,904.8438,1703.6318,914.8438,1707.6318,904.8438,1703.6318,908.8438" style="stroke:#181818;stroke-width:1;"/><line style="stroke:#181818;stroke-width:1;" x1="1920.4036" x2="1944.3315" y1="892.8438" y2="892.8438"/><line style="stroke:#181818;stroke-width:1;" x1="1944.3315" x2="1944.3315" y1="892.8438" y2="914.8438"/><polygon fill="#181818" points="1940.3315,904.8438,1944.3315,914.8438,1948.3315,904.8438,1944.3315,908.8438" style="stroke:#181818;stroke-width:1;"/><line style="stroke:#181818;stroke-width:1;" x1="1703.6318" x2="1703.6318" y1="1067.1094" y2="1085.1094"/><line style="stroke:#181818;stroke-width:1;" x1="1703.6318" x2="1811.9817" y1="1085.1094" y2="1085.1094"/><polygon fill="#181818" points="1801.9817,1081.1094,1811.9817,1085.1094,1801.9817,1089.1094,1805.9817,1085.1094" style="stroke:#181818;stroke-width:1;"/><line style="stroke:#181818;stroke-width:1;" x1="1944.3315" x2="1944.3315" y1="948.9766" y2="1085.1094"/><line style="stroke:#181818;stroke-width:1;" x1="1944.3315" x2="1835.9817" y1="1085.1094" y2="1085.1094"/><polygon fill="#181818" points="1845.9817,1081.1094,1835.9817,1085.1094,1845.9817,1089.1094,1841.9817,1085.1094" style="stroke:#181818;stroke-width:1;"/><line style="stroke:#181818;stroke-width:1;" x1="1823.9817" x2="1823.9817" y1="860.8438" y2="880.8438"/><polygon fill="#181818" points="1819.9817,870.8438,1823.9817,880.8438,1827.9817,870.8438,1823.9817,874.8438" style="stroke:#181818;stroke-width:1;"/><line style="stroke:#181818;stroke-width:1;" x1="1823.9817" x2="1823.9817" y1="1097.1094" y2="1117.1094"/><polygon fill="#181818" points="1819.9817,1107.1094,1823.9817,1117.1094,1827.9817,1107.1094,1823.9817,1111.1094" style="stroke:#181818;stroke-width:1;"/><line style="stroke:#181818;stroke-width:1;" x1="1823.9817" x2="1823.9817" y1="1151.2422" y2="1171.2422"/><polygon fill="#181818" points="1819.9817,1161.2422,1823.9817,1171.2422,1827.9817,1161.2422,1823.9817,1165.2422" style="stroke:#181818;stroke-width:1;"/><line style="stroke:#181818;stroke-width:1;" x1="1823.9817" x2="1823.9817" y1="1205.375" y2="1225.375"/><polygon fill="#181818" points="1819.9817,1215.375,1823.9817,1225.375,1827.9817,1215.375,1823.9817,1219.375" style="stroke:#181818;stroke-width:1;"/><line style="stroke:#181818;stroke-width:1;" x1="139.0967" x2="139.0967" y1="306.25" y2="311.25"/><line style="stroke:#181818;stroke-width:1;" x1="139.0967" x2="639.1006" y1="311.25" y2="311.25"/><line style="stroke:#181818;stroke-width:1;" x1="639.1006" x2="639.1006" y1="311.25" y2="326.25"/><polygon fill="#181818" points="635.1006,316.25,639.1006,326.25,643.1006,316.25,639.1006,320.25" style="stroke:#181818;stroke-width:1;"/><line style="stroke:#181818;stroke-width:1;" x1="639.1006" x2="639.1006" y1="536.0469" y2="541.0469"/><line style="stroke:#181818;stroke-width:1;" x1="639.1006" x2="1240.3164" y1="541.0469" y2="541.0469"/><line style="stroke:#181818;stroke-width:1;" x1="1240.3164" x2="1240.3164" y1="541.0469" y2="556.0469"/><polygon fill="#181818" points="1236.3164,546.0469,1240.3164,556.0469,1244.3164,546.0469,1240.3164,550.0469" style="stroke:#181818;stroke-width:1;"/><line style="stroke:#181818;stroke-width:1;" x1="1240.3164" x2="1240.3164" y1="806.7109" y2="811.7109"/><line style="stroke:#181818;stroke-width:1;" x1="1240.3164" x2="1823.9817" y1="811.7109" y2="811.7109"/><line style="stroke:#181818;stroke-width:1;" x1="1823.9817" x2="1823.9817" y1="811.7109" y2="826.7109"/><polygon fill="#181818" points="1819.9817,816.7109,1823.9817,826.7109,1827.9817,816.7109,1823.9817,820.7109" style="stroke:#181818;stroke-width:1;"/><text fill="#000000" font-family="sans-serif" font-size="12" lengthAdjust="spacing" textLength="48" x="230.2866" y="60.1211">&#25968;&#25454;&#20934;&#22791;</text><text fill="#000000" font-family="sans-serif" font-size="12" lengthAdjust="spacing" textLength="57.4336" x="775.2773" y="60.1211">LoRA &#35757;&#32451;</text><text fill="#000000" font-family="sans-serif" font-size="12" lengthAdjust="spacing" textLength="63.9609" x="1318.4004" y="60.1211">&#21512;&#24182; &amp; &#36716;&#25442;</text><text fill="#000000" font-family="sans-serif" font-size="12" lengthAdjust="spacing" textLength="48" x="1769.3391" y="60.1211">&#25512;&#29702;&#37096;&#32626;</text><!--SRC=[fPHRJ-DM4CVV_Ib6gjHDL8W3XOeDYYhkL0ALBikpPMmdCJYsyGMMYWTQBWdtR0i8kh0G5aYs2u7TSjac1BuBoh6Tftw5Jc8euQA-RF9W-PmPpynl_ZFF8FW5F-ePMEjPaaaMn_-0w_5bw59UD06vp3Z74tOcQMUlh9CScKsJDvTe-aMHA7rGb5LMOwFGptA3OKqnPRv5aHGDlcflA_qhB7WXn9gIqQx8Hg_uim0rjHMNUeJbbH5H3eEXcKB51SiPuh1eZBQAR5IH-UP7OThRdxVKKPGX6fBmVwLIOzRAiRMG8R5fiXiRetI3rGmgOCSFoD8g-VZHJhqckobhPPtC9idk96rlBzllp-pbhUBwJZ5vMjpSQQHanH104yCHWm8O6E5yEc_gXa_WJHydWuUSxnNo6zRfBtPwZaRwzjOUcJeWhsUzQ3uwe8y-QL-SIDDEQjB-i4tYPoIxxwK4cOTIA2hG-RAx2vpKE-jj0gwdVmDhAO7PMginQ-EW4PDVthBY2H1b7QaXA4McaPjfq8ffu0CAdsV8r8ITcqHRv_9t4ij2EGD6rHHEq7M6KpJLr1aaoVe6T4MMAciCW9tTX-TWRIQB7zQSatGnjkHa3ktSXBLzZWaWqZ9lzsoC2f3PRIUVnnkoSGm_ZGXohQ- -sk-hRmQobINPb9LEahTp3p0sD_MsCTq_jhPrCQq_l80WH1LUa7HwwCw_lrfIE5QYqRgGMuIEZhvsG0Q5t9aRiG9OSMh1pcTkTB3qAxRyGJWjMFDT5R2I6c63tzPM0QyfAj8A-dt-Uhn6KOG5Gm_043r83zDAYTG0V0DXrX1eKwLHf7Bvh29clHy4LU4YDo0U1End3IuIhAc2iCRo3CjnPZJO01xxSCPQYJUKb25fmLgXkguAekmhHXU6WZN-sZeyTpANgDG0DAagIhkxfnTeQEbhRIezUleg4YXSRPB3DU0Y0ZUeAg9iLDVxwShN6Z- -XqGP6TvlCCkpgY5eg0Cv98RB4i1YRq_BdV3fR4Wm15bND1qxJX9nylSPV0rE_i1QsFclwoxo6q_mkC6ygBkeW4GPLkOPKvOKblTumVq6YH_VbyLj7IKrCgw2cR8tJuEd4rk-VK4kbhptAtYK8rpFnA6cevaAO573WcOmaH1ZA4muR8RACpJKmFW1fKpcL-_6ucdHuLIKtEv7TELNpkMVYtb9OgEiZrDLiD-SM8jxDuh4RREOjXFJEDns_bE9Kk885n6KjuvFZpHIOWWyrhjnwtGEGJnLy_TUC282hWbhxQWaav93EJOv_uIOo4RweGL0m3d_oxcAkRrfn2CiIi15azY_lO_zYMbOCoadEG-F0PLTP5uCuJCWl58LpG1tDdkQNdO6tStgziivFoANk5ZkHGWKybVsSfeiRf7Kt6rVtG_U4hW3vXAoDXPmus8dAXT6jJl0dpyNt-V8z1IMsuWBMr6fVm40]--></g></svg>