<svg xmlns="http://www.w3.org/2000/svg" xmlns:xlink="http://www.w3.org/1999/xlink" contentStyleType="text/css" data-diagram-type="ACTIVITY" height="940px" preserveAspectRatio="none" style="width:1866px;height:940px;background:#FEFEFE;" version="1.1" viewBox="0 0 1866 940" width="1866px" zoomAndPan="magnify"><title>LoRA &#24494;&#35843;&#31649;&#32447;&#27963;&#21160;&#22270;&#65288;MLX &#20027;&#32447; + PEFT &#22791;&#36873;&#65289;</title><defs><filter height="300%" id="f1fw4h1rmg67og" width="300%" x="-1" y="-1"><feGaussianBlur result="blurOut" stdDeviation="2"/><feColorMatrix in="blurOut" result="blurOut2" type="matrix" values="0 0 0 0 0 0 0 0 0 0 0 0 0 0 0 0 0 0 .4 0"/><feOffset dx="4" dy="4" in="blurOut2" result="blurOut3"/><feBlend in="SourceGraphic" in2="blurOut3" mode="normal"/></filter></defs><g><rect fill="#FEFEFE" height="940" style="stroke:none;stroke-width:1;" width="1866" x="0" y="0"/><text fill="#000000" font-family="sans-serif" font-size="14" font-weight="bold" lengthAdjust="spacing" textLength="318.1377" x="772.5239" y="33.5352">LoRA &#24494;&#35843;&#31649;&#32447;&#27963;&#21160;&#22270;&#65288;MLX &#20027;&#32447; + PEFT &#22791;&#36873;&#65289;</text><rect fill="none" height="14.1328" style="stroke:none;stroke-width:1;" width="1833.1855" x="15" y="48.5195"/><ellipse cx="151.0352" cy="77.6523" fill="#222222" filter="url(#f1fw4h1rmg67og)" rx="10" ry="10" style="stroke:#222222;stroke-width:1;"/><rect fill="#F1F1F1" filter="url(#f1fw4h1rmg67og)" height="34.1328" rx="12.5" ry="12.5" style="stroke:#181818;stroke-width:0.5;" width="240.7461" x="30.6621" y="107.6523"/><text fill="#000000" font-family="sans-serif" font-size="12" lengthAdjust="spacing" textLength="220.7461" x="40.6621" y="129.2539">&#29983;&#25104;&#20998;&#31867;&#35821;&#26009; sdust_classification.jsonl</text><path d="M301.0703,159.7188 L301.0703,174.8516 L281.0703,178.8516 L301.0703,182.8516 L301.0703,197.9844 A0,0 0 0 0 301.0703,197.9844 L623.3535,197.9844 A0,0 0 0 0 623.3535,197.9844 L623.3535,169.7188 L613.3535,159.7188 L301.0703,159.7188 A0,0 0 0 0 301.0703,159.7188" fill="#FEFFDD" filter="url(#f1fw4h1rmg67og)" style="stroke:#181818;stroke-width:0.5;"/><path d="M613.3535,159.7188 L613.3535,169.7188 L623.3535,169.7188 L613.3535,159.7188" fill="#FEFFDD" style="stroke:#181818;stroke-width:0.5;"/><text fill="#000000" font-family="sans-serif" font-size="12" lengthAdjust="spacing" textLength="114.9727" x="307.0703" y="176.3203">&#20998;&#31867;&#65306;10 &#31867;&#20107;&#21153;&#35782;&#21035;</text><text fill="#000000" font-family="sans-serif" font-size="12" lengthAdjust="spacing" textLength="301.2832" x="307.0703" y="190.4531">&#22810;&#20219;&#21153;&#65306;document_type + prefill_fields + ambiguity</text><rect fill="#F1F1F1" filter="url(#f1fw4h1rmg67og)" height="34.1328" rx="12.5" ry="12.5" style="stroke:#181818;stroke-width:0.5;" width="260.0703" x="21" y="161.7852"/><text fill="#000000" font-family="sans-serif" font-size="12" lengthAdjust="spacing" textLength="240.0703" x="31" y="183.3867">&#29983;&#25104;&#22810;&#20219;&#21153;&#35821;&#26009; sdust_multitask_lora.jsonl</text><line style="stroke:#000000;stroke-width:1.5;" x1="15" x2="15" y1="48.5195" y2="923.3125"/><polygon fill="#FFF9C4" filter="url(#f1fw4h1rmg67og)" points="657.3535,217.9844,803.5156,217.9844,815.5156,229.9844,803.5156,241.9844,657.3535,241.9844,645.3535,229.9844,657.3535,217.9844" style="stroke:#181818;stroke-width:0.5;"/><text fill="#000000" font-family="sans-serif" font-size="12" lengthAdjust="spacing" textLength="146.1621" x="657.3535" y="234.5195">Apple Silicon / MLX &#21487;&#29992;?</text><text fill="#000000" font-family="sans-serif" font-size="12" lengthAdjust="spacing" textLength="12" x="633.3535" y="227.4531">&#26159;</text><text fill="#000000" font-family="sans-serif" font-size="12" lengthAdjust="spacing" textLength="12" x="815.5156" y="227.4531">&#21542;</text><polygon fill="#FFF9C4" filter="url(#f1fw4h1rmg67og)" points="730.4346,576.7813,742.4346,588.7813,730.4346,600.7813,718.4346,588.7813,730.4346,576.7813" style="stroke:#181818;stroke-width:0.5;"/><line style="stroke:#000000;stroke-width:1.5;" x1="628.3535" x2="628.3535" y1="48.5195" y2="923.3125"/><rect fill="#F1F1F1" filter="url(#f1fw4h1rmg67og)" height="34.1328" rx="12.5" ry="12.5" style="stroke:#181818;stroke-width:0.5;" width="165.7988" x="867.9268" y="261.9844"/><text fill="#000000" font-family="sans-serif" font-size="12" lengthAdjust="spacing" textLength="145.7988" x="877.9268" y="283.5859">&#21152;&#36733; models/Qwen3-14B</text><rect fill="#F1F1F1" filter="url(#f1fw4h1rmg67og)" height="34.1328" rx="12.5" ry="12.5" style="stroke:#181818;stroke-width:0.5;" width="172.6016" x="864.5254" y="316.1172"/><text fill="#000000" font-family="sans-serif" font-size="12" lengthAdjust="spacing" textLength="152.6016" x="874.5254" y="337.7188">training/train_lora_mlx.py</text><rect fill="#F1F1F1" filter="url(#f1fw4h1rmg67og)" height="34.1328" rx="12.5" ry="12.5" style="stroke:#181818;stroke-width:0.5;" width="125.6738" x="887.9893" y="370.25"/><text fill="#000000" font-family="sans-serif" font-size="12" lengthAdjust="spacing" textLength="105.6738" x="897.9893" y="391.8516">&#35757;&#32451; LoRA adapter</text><rect fill="#F1F1F1" filter="url(#f1fw4h1rmg67og)" height="34.1328" rx="12.5" ry="12.5" style="stroke:#181818;stroke-width:0.5;" width="173.6797" x="863.9863" y="424.3828"/><text fill="#000000" font-family="sans-serif" font-size="12" lengthAdjust="spacing" textLength="153.6797" x="873.9863" y="445.9844">mlx_lm fuse --dequantize</text><rect fill="#F1F1F1" filter="url(#f1fw4h1rmg67og)" height="34.1328" rx="12.5" ry="12.5" style="stroke:#181818;stroke-width:0.5;" width="149.4219" x="876.1152" y="478.5156"/><text fill="#000000" font-family="sans-serif" font-size="12" lengthAdjust="spacing" textLength="129.4219" x="886.1152" y="500.1172">convert_hf_to_gguf.py</text><rect fill="#F1F1F1" filter="url(#f1fw4h1rmg67og)" height="34.1328" rx="12.5" ry="12.5" style="stroke:#181818;stroke-width:0.5;" width="224.6211" x="838.5156" y="532.6484"/><text fill="#000000" font-family="sans-serif" font-size="12" lengthAdjust="spacing" textLength="204.6211" x="848.5156" y="554.25">&#36755;&#20986; models/qwen3-14b-lora.gguf</text><line style="stroke:#000000;stroke-width:1.5;" x1="832.5156" x2="832.5156" y1="48.5195" y2="923.3125"/><rect fill="#F1F1F1" filter="url(#f1fw4h1rmg67og)" height="34.1328" rx="12.5" ry="12.5" style="stroke:#181818;stroke-width:0.5;" width="158.2109" x="1079.1367" y="261.9844"/><text fill="#000000" font-family="sans-serif" font-size="12" lengthAdjust="spacing" textLength="138.2109" x="1089.1367" y="283.5859">&#21152;&#36733; models/Qwen3-4B</text><rect fill="#F1F1F1" filter="url(#f1fw4h1rmg67og)" height="34.1328" rx="12.5" ry="12.5" style="stroke:#181818;stroke-width:0.5;" width="144.5703" x="1085.957" y="316.1172"/><text fill="#000000" font-family="sans-serif" font-size="12" lengthAdjust="spacing" textLength="124.5703" x="1095.957" y="337.7188">training/train_lora.py</text><rect fill="#F1F1F1" filter="url(#f1fw4h1rmg67og)" height="34.1328" rx="12.5" ry="12.5" style="stroke:#181818;stroke-width:0.5;" width="154.5957" x="1080.9443" y="370.25"/><text fill="#000000" font-family="sans-serif" font-size="12" lengthAdjust="spacing" textLength="134.5957" x="1090.9443" y="391.8516">training/merge_lora.py</text><rect fill="#F1F1F1" filter="url(#f1fw4h1rmg67og)" height="34.1328" rx="12.5" ry="12.5" style="stroke:#181818;stroke-width:0.5;" width="149.9727" x="1083.2559" y="424.3828"/><text fill="#000000" font-family="sans-serif" font-size="12" lengthAdjust="spacing" textLength="129.9727" x="1093.2559" y="445.9844">&#36755;&#20986; 4B GGUF &#22791;&#36873;&#27169;&#22411;</text><line style="stroke:#000000;stroke-width:1.5;" x1="1073.1367" x2="1073.1367" y1="48.5195" y2="923.3125"/><rect fill="#F1F1F1" filter="url(#f1fw4h1rmg67og)" height="34.1328" rx="12.5" ry="12.5" style="stroke:#181818;stroke-width:0.5;" width="159.6992" x="1488.1802" y="620.7813"/><text fill="#000000" font-family="sans-serif" font-size="12" lengthAdjust="spacing" textLength="139.6992" x="1498.1802" y="642.3828">&#21551;&#21160; zhishitong/start.sh</text><polygon fill="#FFF9C4" filter="url(#f1fw4h1rmg67og)" points="1457.188,674.9141,1678.8716,674.9141,1690.8716,686.9141,1678.8716,698.9141,1457.188,698.9141,1445.188,686.9141,1457.188,674.9141" style="stroke:#181818;stroke-width:0.5;"/><text fill="#000000" font-family="sans-serif" font-size="12" lengthAdjust="spacing" textLength="221.6836" x="1457.188" y="691.4492">&#26816;&#27979;&#21040; models/qwen3-14b-lora.gguf?</text><text fill="#000000" font-family="sans-serif" font-size="12" lengthAdjust="spacing" textLength="12" x="1433.188" y="684.3828">&#26159;</text><text fill="#000000" font-family="sans-serif" font-size="12" lengthAdjust="spacing" textLength="12" x="1690.8716" y="684.3828">&#21542;</text><rect fill="#F1F1F1" filter="url(#f1fw4h1rmg67og)" height="34.1328" rx="12.5" ry="12.5" style="stroke:#181818;stroke-width:0.5;" width="327.3945" x="1253.3477" y="708.9141"/><text fill="#000000" font-family="sans-serif" font-size="12" lengthAdjust="spacing" textLength="307.3945" x="1263.3477" y="730.5156">export MODEL_PATH=models/qwen3-14b-lora.gguf</text><rect fill="#F1F1F1" filter="url(#f1fw4h1rmg67og)" height="34.1328" rx="12.5" ry="12.5" style="stroke:#181818;stroke-width:0.5;" width="236.5449" x="1600.7422" y="708.9141"/><text fill="#000000" font-family="sans-serif" font-size="12" lengthAdjust="spacing" textLength="216.5449" x="1610.7422" y="730.5156">&#20351;&#29992; MODEL_PATH &#25351;&#23450;&#27169;&#22411;&#25110; 4B &#22791;&#36873;</text><polygon fill="#FFF9C4" filter="url(#f1fw4h1rmg67og)" points="1568.0298,749.0469,1580.0298,761.0469,1568.0298,773.0469,1556.0298,761.0469,1568.0298,749.0469" style="stroke:#181818;stroke-width:0.5;"/><rect fill="#F1F1F1" filter="url(#f1fw4h1rmg67og)" height="34.1328" rx="12.5" ry="12.5" style="stroke:#181818;stroke-width:0.5;" width="209.375" x="1463.3423" y="793.0469"/><text fill="#000000" font-family="sans-serif" font-size="12" lengthAdjust="spacing" textLength="189.375" x="1473.3423" y="814.6484">&#21551;&#21160; llama.cpp &#25512;&#29702;&#26381;&#21153; (:18080)</text><rect fill="#F1F1F1" filter="url(#f1fw4h1rmg67og)" height="34.1328" rx="12.5" ry="12.5" style="stroke:#181818;stroke-width:0.5;" width="174.6289" x="1480.7153" y="847.1797"/><text fill="#000000" font-family="sans-serif" font-size="12" lengthAdjust="spacing" textLength="154.6289" x="1490.7153" y="868.7813">&#26412;&#22320; RAG/&#21512;&#35268;&#20998;&#26512;&#20828;&#24213;&#24120;&#39547;</text><ellipse cx="1568.0298" cy="912.3125" fill="none" filter="url(#f1fw4h1rmg67og)" rx="11" ry="11" style="stroke:#222222;stroke-width:1;"/><ellipse cx="1568.0298" cy="912.3125" fill="#222222" rx="6" ry="6" style="stroke:#222222;stroke-width:1;"/><line style="stroke:#000000;stroke-width:1.5;" x1="1247.3477" x2="1247.3477" y1="48.5195" y2="923.3125"/><line style="stroke:#000000;stroke-width:1.5;" x1="1847.2871" x2="1847.2871" y1="48.5195" y2="923.3125"/><line style="stroke:#181818;stroke-width:1;" x1="151.0352" x2="151.0352" y1="87.6523" y2="107.6523"/><polygon fill="#181818" points="147.0352,97.6523,151.0352,107.6523,155.0352,97.6523,151.0352,101.6523" style="stroke:#181818;stroke-width:1;"/><line style="stroke:#181818;stroke-width:1;" x1="151.0352" x2="151.0352" y1="141.7852" y2="161.7852"/><polygon fill="#181818" points="147.0352,151.7852,151.0352,161.7852,155.0352,151.7852,151.0352,155.7852" style="stroke:#181818;stroke-width:1;"/><line style="stroke:#181818;stroke-width:1;" x1="950.8262" x2="950.8262" y1="296.1172" y2="316.1172"/><polygon fill="#181818" points="946.8262,306.1172,950.8262,316.1172,954.8262,306.1172,950.8262,310.1172" style="stroke:#181818;stroke-width:1;"/><line style="stroke:#181818;stroke-width:1;" x1="950.8262" x2="950.8262" y1="350.25" y2="370.25"/><polygon fill="#181818" points="946.8262,360.25,950.8262,370.25,954.8262,360.25,950.8262,364.25" style="stroke:#181818;stroke-width:1;"/><line style="stroke:#181818;stroke-width:1;" x1="950.8262" x2="950.8262" y1="404.3828" y2="424.3828"/><polygon fill="#181818" points="946.8262,414.3828,950.8262,424.3828,954.8262,414.3828,950.8262,418.3828" style="stroke:#181818;stroke-width:1;"/><line style="stroke:#181818;stroke-width:1;" x1="950.8262" x2="950.8262" y1="458.5156" y2="478.5156"/><polygon fill="#181818" points="946.8262,468.5156,950.8262,478.5156,954.8262,468.5156,950.8262,472.5156" style="stroke:#181818;stroke-width:1;"/><line style="stroke:#181818;stroke-width:1;" x1="950.8262" x2="950.8262" y1="512.6484" y2="532.6484"/><polygon fill="#181818" points="946.8262,522.6484,950.8262,532.6484,954.8262,522.6484,950.8262,526.6484" style="stroke:#181818;stroke-width:1;"/><line style="stroke:#181818;stroke-width:1;" x1="1158.2422" x2="1158.2422" y1="296.1172" y2="316.1172"/><polygon fill="#181818" points="1154.2422,306.1172,1158.2422,316.1172,1162.2422,306.1172,1158.2422,310.1172" style="stroke:#181818;stroke-width:1;"/><line style="stroke:#181818;stroke-width:1;" x1="1158.2422" x2="1158.2422" y1="350.25" y2="370.25"/><polygon fill="#181818" points="1154.2422,360.25,1158.2422,370.25,1162.2422,360.25,1158.2422,364.25" style="stroke:#181818;stroke-width:1;"/><line style="stroke:#181818;stroke-width:1;" x1="1158.2422" x2="1158.2422" y1="404.3828" y2="424.3828"/><polygon fill="#181818" points="1154.2422,414.3828,1158.2422,424.3828,1162.2422,414.3828,1158.2422,418.3828" style="stroke:#181818;stroke-width:1;"/><line style="stroke:#181818;stroke-width:1;" x1="1445.188" x2="1417.0449" y1="686.9141" y2="686.9141"/><line style="stroke:#181818;stroke-width:1;" x1="1417.0449" x2="1417.0449" y1="686.9141" y2="708.9141"/><polygon fill="#181818" points="1413.0449,698.9141,1417.0449,708.9141,1421.0449,698.9141,1417.0449,702.9141" style="stroke:#181818;stroke-width:1;"/><line style="stroke:#181818;stroke-width:1;" x1="1690.8716" x2="1719.0146" y1="686.9141" y2="686.9141"/><line style="stroke:#181818;stroke-width:1;" x1="1719.0146" x2="1719.0146" y1="686.9141" y2="708.9141"/><polygon fill="#181818" points="1715.0146,698.9141,1719.0146,708.9141,1723.0146,698.9141,1719.0146,702.9141" style="stroke:#181818;stroke-width:1;"/><line style="stroke:#181818;stroke-width:1;" x1="1417.0449" x2="1417.0449" y1="743.0469" y2="761.0469"/><line style="stroke:#181818;stroke-width:1;" x1="1417.0449" x2="1556.0298" y1="761.0469" y2="761.0469"/><polygon fill="#181818" points="1546.0298,757.0469,1556.0298,761.0469,1546.0298,765.0469,1550.0298,761.0469" style="stroke:#181818;stroke-width:1;"/><line style="stroke:#181818;stroke-width:1;" x1="1719.0146" x2="1719.0146" y1="743.0469" y2="761.0469"/><line style="stroke:#181818;stroke-width:1;" x1="1719.0146" x2="1580.0298" y1="761.0469" y2="761.0469"/><polygon fill="#181818" points="1590.0298,757.0469,1580.0298,761.0469,1590.0298,765.0469,1586.0298,761.0469" style="stroke:#181818;stroke-width:1;"/><line style="stroke:#181818;stroke-width:1;" x1="1568.0298" x2="1568.0298" y1="654.9141" y2="674.9141"/><polygon fill="#181818" points="1564.0298,664.9141,1568.0298,674.9141,1572.0298,664.9141,1568.0298,668.9141" style="stroke:#181818;stroke-width:1;"/><line style="stroke:#181818;stroke-width:1;" x1="1568.0298" x2="1568.0298" y1="773.0469" y2="793.0469"/><polygon fill="#181818" points="1564.0298,783.0469,1568.0298,793.0469,1572.0298,783.0469,1568.0298,787.0469" style="stroke:#181818;stroke-width:1;"/><line style="stroke:#181818;stroke-width:1;" x1="1568.0298" x2="1568.0298" y1="827.1797" y2="847.1797"/><polygon fill="#181818" points="1564.0298,837.1797,1568.0298,847.1797,1572.0298,837.1797,1568.0298,841.1797" style="stroke:#181818;stroke-width:1;"/><line style="stroke:#181818;stroke-width:1;" x1="1568.0298" x2="1568.0298" y1="881.3125" y2="901.3125"/><polygon fill="#181818" points="1564.0298,891.3125,1568.0298,901.3125,1572.0298,891.3125,1568.0298,895.3125" style="stroke:#181818;stroke-width:1;"/><line style="stroke:#181818;stroke-width:1;" x1="645.3535" x2="633.3535" y1="229.9844" y2="229.9844"/><line style="stroke:#181818;stroke-width:1;" x1="633.3535" x2="633.3535" y1="229.9844" y2="247.9844"/><line style="stroke:#181818;stroke-width:1;" x1="633.3535" x2="950.8262" y1="247.9844" y2="247.9844"/><line style="stroke:#181818;stroke-width:1;" x1="950.8262" x2="950.8262" y1="247.9844" y2="261.9844"/><polygon fill="#181818" points="946.8262,251.9844,950.8262,261.9844,954.8262,251.9844,950.8262,255.9844" style="stroke:#181818;stroke-width:1;"/><line style="stroke:#181818;stroke-width:1;" x1="815.5156" x2="1158.2422" y1="229.9844" y2="229.9844"/><line style="stroke:#181818;stroke-width:1;" x1="1158.2422" x2="1158.2422" y1="229.9844" y2="261.9844"/><polygon fill="#181818" points="1154.2422,251.9844,1158.2422,261.9844,1162.2422,251.9844,1158.2422,255.9844" style="stroke:#181818;stroke-width:1;"/><line style="stroke:#181818;stroke-width:1;" x1="950.8262" x2="950.8262" y1="566.7813" y2="570.7813"/><line style="stroke:#181818;stroke-width:1;" x1="950.8262" x2="700.4346" y1="570.7813" y2="570.7813"/><line style="stroke:#181818;stroke-width:1;" x1="700.4346" x2="700.4346" y1="570.7813" y2="588.7813"/><line style="stroke:#181818;stroke-width:1;" x1="700.4346" x2="718.4346" y1="588.7813" y2="588.7813"/><polygon fill="#181818" points="708.4346,584.7813,718.4346,588.7813,708.4346,592.7813,712.4346,588.7813" style="stroke:#181818;stroke-width:1;"/><line style="stroke:#181818;stroke-width:1;" x1="1158.2422" x2="1158.2422" y1="458.5156" y2="588.7813"/><line style="stroke:#181818;stroke-width:1;" x1="1158.2422" x2="742.4346" y1="588.7813" y2="588.7813"/><polygon fill="#181818" points="752.4346,584.7813,742.4346,588.7813,752.4346,592.7813,748.4346,588.7813" style="stroke:#181818;stroke-width:1;"/><line style="stroke:#181818;stroke-width:1;" x1="151.0352" x2="151.0352" y1="195.918" y2="202.9844"/><line style="stroke:#181818;stroke-width:1;" x1="151.0352" x2="730.4346" y1="202.9844" y2="202.9844"/><line style="stroke:#181818;stroke-width:1;" x1="730.4346" x2="730.4346" y1="202.9844" y2="217.9844"/><polygon fill="#181818" points="726.4346,207.9844,730.4346,217.9844,734.4346,207.9844,730.4346,211.9844" style="stroke:#181818;stroke-width:1;"/><line style="stroke:#181818;stroke-width:1;" x1="730.4346" x2="730.4346" y1="600.7813" y2="605.7813"/><line style="stroke:#181818;stroke-width:1;" x1="730.4346" x2="1568.0298" y1="605.7813" y2="605.7813"/><line style="stroke:#181818;stroke-width:1;" x1="1568.0298" x2="1568.0298" y1="605.7813" y2="620.7813"/><polygon fill="#181818" points="1564.0298,610.7813,1568.0298,620.7813,1572.0298,610.7813,1568.0298,614.7813" style="stroke:#181818;stroke-width:1;"/><text fill="#000000" font-family="sans-serif" font-size="12" lengthAdjust="spacing" textLength="48" x="297.6768" y="60.1211">&#25968;&#25454;&#20934;&#22791;</text><text fill="#000000" font-family="sans-serif" font-size="12" lengthAdjust="spacing" textLength="72" x="694.4346" y="60.1211">&#35757;&#32451;&#36335;&#32447;&#36873;&#25321;</text><text fill="#000000" font-family="sans-serif" font-size="12" lengthAdjust="spacing" textLength="77.918" x="913.8672" y="60.1211">MLX 14B &#20027;&#32447;</text><text fill="#000000" font-family="sans-serif" font-size="12" lengthAdjust="spacing" textLength="90.9551" x="1114.7646" y="60.1211">PEFT &#36328;&#24179;&#21488;&#22791;&#36873;</text><text fill="#000000" font-family="sans-serif" font-size="12" lengthAdjust="spacing" textLength="48" x="1523.3174" y="60.1211">&#25512;&#29702;&#37096;&#32626;</text><!--SRC=[fLDRJnD157xVNt4I7u0OMX1Yi0qnt8eF414myMqpT6VRaTsTPNUMM_f0WaAX8aq48aXG8j4IfQstW2sN_sAORNdYBpYxRGbeC2RilapET-QSyttdcpfely4drO6xNk3PxREP3VWrim9zTB03-76sd9yjPRTBXHFtUv4lPlYRu_F3v7XJu6wWvVnmGLoxKLV97YM6YIoammYAZiOiwXXA5zMe1RSYFTv_AKF1Ad8q5g466oBJ69hlN0BjE5Be135Ym2m7Nm9Gb95nmgQw2TAfeNJ-rIOIkTVLAacCC0t_ctP_tnCuFIYAADo6WPx8CF2T-REP1Ky8AU6kvjsbB9-V4y64P3DaCIbKMddh9jCyELVwKYpdzjorTR0LnsPoL4EsJLGIHOnG8_3KfeOMliZVsJWjYhxRLwxeWZnXo1wLnU2eTiMW38D5Od4c0LGQdHzkD3U1E9mMKdwHEPxyvA6riY91eL57nmQJsPI91HtJmYhHD5abM5Di4K3w28avGZW96mfuNGJ7SdQlL9mjx-U41eAuczfDI4I5-WxJ5E8D4Or4gG51y9JYoxdIIkP-0x0uDg3UVPrh43CaFAYvjRCgP4A4GdpnNVde27IgOCqEFfh0HakZI0bx6BCGCSHQW_x1PoxhscJ0dFBXoa2LjI45cGnRVboao9eEgcDZQ6nKy9Y332PCuuDYnd5iCJckoepAiPYZNfGxViNd2xL9nggJZ3JwWdk9OKa06Efv-eFFndT1UJ_3VtxZo_cA7QxbT3sbMlyBICTM35-1ggC9vNfx7qUgpdCpstmh5VPMH5JFWoypfVJSsMocTFGr8OLuEYVC2zDnOiS9ewAkRyk07G_xQtFVpxW_KZoP_mVZFnSOmfCcjHZqF-pkwPC7EeOVjF-tNA7JenFXYKjtmNqnpxCR5HvkSitZLw5M8rKZeMb8Hu6eQKA5fBkv99mCzQ7cjgQsfWRnTjpDptmp3uCTlK6UJfO_FXElmTrAy-URlB3A3mxETejXyIwfAVq6]--></g></svg>