<svg xmlns="http://www.w3.org/2000/svg" xmlns:xlink="http://www.w3.org/1999/xlink" contentStyleType="text/css" data-diagram-type="SEQUENCE" height="1582px" preserveAspectRatio="none" style="width:1305px;height:1582px;background:#FEFEFE;" version="1.1" viewBox="0 0 1305 1582" width="1305px" zoomAndPan="magnify"><title>&#26234;&#33021; OCR &#22810;&#32423;&#38477;&#32423;&#22788;&#29702;&#27969;&#31243;</title><defs><filter height="300%" id="f1nsyaayo30zfw" width="300%" x="-1" y="-1"><feGaussianBlur result="blurOut" stdDeviation="2"/><feColorMatrix in="blurOut" result="blurOut2" type="matrix" values="0 0 0 0 0 0 0 0 0 0 0 0 0 0 0 0 0 0 .4 0"/><feOffset dx="4" dy="4" in="blurOut2" result="blurOut3"/><feBlend in="SourceGraphic" in2="blurOut3" mode="normal"/></filter></defs><g><rect fill="#FEFEFE" height="1582" style="stroke:none;stroke-width:1;" width="1305" x="0" y="0"/><text fill="#000000" font-family="sans-serif" font-size="14" font-weight="bold" lengthAdjust="spacing" textLength="180.3867" x="557.4575" y="28.5352">&#26234;&#33021; OCR &#22810;&#32423;&#38477;&#32423;&#22788;&#29702;&#27969;&#31243;</text><rect fill="none" filter="url(#f1nsyaayo30zfw)" height="555.0547" style="stroke:#000000;stroke-width:1.5;" width="536.7051" x="528.2949" y="263.1523"/><rect fill="none" filter="url(#f1nsyaayo30zfw)" height="372.9922" style="stroke:#000000;stroke-width:1.5;" width="516.7051" x="538.2949" y="438.2148"/><rect fill="none" filter="url(#f1nsyaayo30zfw)" height="261.5938" style="stroke:#000000;stroke-width:1.5;" width="619.7656" x="538.2949" y="1042.1367"/><g><title>&#29992;&#25143;</title><rect fill="#000000" fill-opacity="0.00000" height="1384.0391" width="8" x="16" y="119.6211"/><line style="stroke:#181818;stroke-width:0.5;stroke-dasharray:5.0,5.0;" x1="20" x2="20" y1="119.6211" y2="1503.6602"/></g><g><title>&#21069;&#31471;</title><rect fill="#000000" fill-opacity="0.00000" height="1384.0391" width="8" x="190.4688" y="119.6211"/><line style="stroke:#181818;stroke-width:0.5;stroke-dasharray:5.0,5.0;" x1="193.9326" x2="193.9326" y1="119.6211" y2="1503.6602"/></g><g><title>OCR &#36335;&#30001;</title><rect fill="#000000" fill-opacity="0.00000" height="1384.0391" width="8" x="343.2461" y="119.6211"/><line style="stroke:#181818;stroke-width:0.5;stroke-dasharray:5.0,5.0;" x1="346.7236" x2="346.7236" y1="119.6211" y2="1503.6602"/></g><g><title>OCR &#26381;&#21153;</title><rect fill="#000000" fill-opacity="0.00000" height="1384.0391" width="8" x="589.0234" y="119.6211"/><line style="stroke:#181818;stroke-width:0.5;stroke-dasharray:5.0,5.0;" x1="592.2949" x2="592.2949" y1="119.6211" y2="1503.6602"/></g><g><title>EasyOCR</title><rect fill="#000000" fill-opacity="0.00000" height="1384.0391" width="8" x="753.0156" y="119.6211"/><line style="stroke:#181818;stroke-width:0.5;stroke-dasharray:5.0,5.0;" x1="756.1504" x2="756.1504" y1="119.6211" y2="1503.6602"/></g><g><title>Key &#27744;</title><rect fill="#000000" fill-opacity="0.00000" height="1384.0391" width="8" x="835.1494" y="119.6211"/><line style="stroke:#181818;stroke-width:0.5;stroke-dasharray:5.0,5.0;" x1="838.8809" x2="838.8809" y1="119.6211" y2="1503.6602"/></g><g><title>&#22806;&#37096; LLM API</title><rect fill="#000000" fill-opacity="0.00000" height="1384.0391" width="8" x="928.4658" y="119.6211"/><line style="stroke:#181818;stroke-width:0.5;stroke-dasharray:5.0,5.0;" x1="932.418" x2="932.418" y1="119.6211" y2="1503.6602"/></g><g><title>&#26412;&#22320;&#25512;&#29702;</title><rect fill="#000000" fill-opacity="0.00000" height="1384.0391" width="8" x="1024.1377" y="119.6211"/><line style="stroke:#181818;stroke-width:0.5;stroke-dasharray:5.0,5.0;" x1="1027.5137" x2="1027.5137" y1="119.6211" y2="1503.6602"/></g><g><title>&#27169;&#26495;&#26381;&#21153;</title><rect fill="#000000" fill-opacity="0.00000" height="1384.0391" width="8" x="1135.876" y="119.6211"/><line style="stroke:#181818;stroke-width:0.5;stroke-dasharray:5.0,5.0;" x1="1139.7617" x2="1139.7617" y1="119.6211" y2="1503.6602"/></g><g><title>&#25968;&#25454;&#24211;</title><rect fill="#000000" fill-opacity="0.00000" height="1384.0391" width="8" x="1266.3018" y="119.6211"/><line style="stroke:#181818;stroke-width:0.5;stroke-dasharray:5.0,5.0;" x1="1270.3018" x2="1270.3018" y1="119.6211" y2="1503.6602"/></g><g class="participant participant-head" data-participant="User"><text fill="#000000" font-family="sans-serif" font-size="12" lengthAdjust="spacing" textLength="24" x="5" y="117.0898">&#29992;&#25143;</text><ellipse cx="20" cy="50.9883" fill="#E2E2F0" filter="url(#f1nsyaayo30zfw)" rx="8" ry="8" style="stroke:#181818;stroke-width:0.5;"/><path d="M20,58.9883 L20,85.9883 M7,66.9883 L33,66.9883 M20,85.9883 L7,100.9883 M20,85.9883 L33,100.9883" fill="none" filter="url(#f1nsyaayo30zfw)" style="stroke:#181818;stroke-width:0.5;"/></g><g class="participant participant-tail" data-participant="User"><text fill="#000000" font-family="sans-serif" font-size="12" lengthAdjust="spacing" textLength="24" x="5" y="1514.2617">&#29992;&#25143;</text><ellipse cx="20" cy="1525.293" fill="#E2E2F0" filter="url(#f1nsyaayo30zfw)" rx="8" ry="8" style="stroke:#181818;stroke-width:0.5;"/><path d="M20,1533.293 L20,1560.293 M7,1541.293 L33,1541.293 M20,1560.293 L7,1575.293 M20,1560.293 L33,1575.293" fill="none" filter="url(#f1nsyaayo30zfw)" style="stroke:#181818;stroke-width:0.5;"/></g><g class="participant participant-head" data-participant="FE"><rect fill="#E2E2F0" filter="url(#f1nsyaayo30zfw)" height="42.2656" rx="2.5" ry="2.5" style="stroke:#181818;stroke-width:0.5;" width="114.0723" x="135.9326" y="73.3555"/><text fill="#000000" font-family="sans-serif" font-size="12" lengthAdjust="spacing" textLength="24" x="180.9688" y="91.957">&#21069;&#31471;</text><text fill="#000000" font-family="sans-serif" font-size="12" lengthAdjust="spacing" textLength="100.0723" x="142.9326" y="106.0898">(WorkbenchPage)</text></g><g class="participant participant-tail" data-participant="FE"><rect fill="#E2E2F0" filter="url(#f1nsyaayo30zfw)" height="42.2656" rx="2.5" ry="2.5" style="stroke:#181818;stroke-width:0.5;" width="114.0723" x="135.9326" y="1502.6602"/><text fill="#000000" font-family="sans-serif" font-size="12" lengthAdjust="spacing" textLength="24" x="180.9688" y="1521.2617">&#21069;&#31471;</text><text fill="#000000" font-family="sans-serif" font-size="12" lengthAdjust="spacing" textLength="100.0723" x="142.9326" y="1535.3945">(WorkbenchPage)</text></g><g class="participant participant-head" data-participant="OcrR"><rect fill="#E2E2F0" filter="url(#f1nsyaayo30zfw)" height="42.2656" rx="2.5" ry="2.5" style="stroke:#181818;stroke-width:0.5;" width="82.0449" x="304.7236" y="73.3555"/><text fill="#000000" font-family="sans-serif" font-size="12" lengthAdjust="spacing" textLength="53.0098" x="319.2412" y="91.957">OCR &#36335;&#30001;</text><text fill="#000000" font-family="sans-serif" font-size="12" lengthAdjust="spacing" textLength="68.0449" x="311.7236" y="106.0898">(ocr_router)</text></g><g class="participant participant-tail" data-participant="OcrR"><rect fill="#E2E2F0" filter="url(#f1nsyaayo30zfw)" height="42.2656" rx="2.5" ry="2.5" style="stroke:#181818;stroke-width:0.5;" width="82.0449" x="304.7236" y="1502.6602"/><text fill="#000000" font-family="sans-serif" font-size="12" lengthAdjust="spacing" textLength="53.0098" x="319.2412" y="1521.2617">OCR &#36335;&#30001;</text><text fill="#000000" font-family="sans-serif" font-size="12" lengthAdjust="spacing" textLength="68.0449" x="311.7236" y="1535.3945">(ocr_router)</text></g><g class="participant participant-head" data-participant="OcrSvc"><rect fill="#E2E2F0" filter="url(#f1nsyaayo30zfw)" height="42.2656" rx="2.5" ry="2.5" style="stroke:#181818;stroke-width:0.5;" width="86.457" x="548.2949" y="73.3555"/><text fill="#000000" font-family="sans-serif" font-size="12" lengthAdjust="spacing" textLength="53.0098" x="565.0186" y="91.957">OCR &#26381;&#21153;</text><text fill="#000000" font-family="sans-serif" font-size="12" lengthAdjust="spacing" textLength="72.457" x="555.2949" y="106.0898">(ocr_service)</text></g><g class="participant participant-tail" data-participant="OcrSvc"><rect fill="#E2E2F0" filter="url(#f1nsyaayo30zfw)" height="42.2656" rx="2.5" ry="2.5" style="stroke:#181818;stroke-width:0.5;" width="86.457" x="548.2949" y="1502.6602"/><text fill="#000000" font-family="sans-serif" font-size="12" lengthAdjust="spacing" textLength="53.0098" x="565.0186" y="1521.2617">OCR &#26381;&#21153;</text><text fill="#000000" font-family="sans-serif" font-size="12" lengthAdjust="spacing" textLength="72.457" x="555.2949" y="1535.3945">(ocr_service)</text></g><g class="participant participant-head" data-participant="Easy"><rect fill="#E2E2F0" filter="url(#f1nsyaayo30zfw)" height="42.2656" rx="2.5" ry="2.5" style="stroke:#181818;stroke-width:0.5;" width="64.7305" x="723.1504" y="73.3555"/><text fill="#000000" font-family="sans-serif" font-size="12" lengthAdjust="spacing" textLength="50.7305" x="730.1504" y="91.957">EasyOCR</text><text fill="#000000" font-family="sans-serif" font-size="12" lengthAdjust="spacing" textLength="31.8047" x="739.6133" y="106.0898">(&#26412;&#22320;)</text></g><g class="participant participant-tail" data-participant="Easy"><rect fill="#E2E2F0" filter="url(#f1nsyaayo30zfw)" height="42.2656" rx="2.5" ry="2.5" style="stroke:#181818;stroke-width:0.5;" width="64.7305" x="723.1504" y="1502.6602"/><text fill="#000000" font-family="sans-serif" font-size="12" lengthAdjust="spacing" textLength="50.7305" x="730.1504" y="1521.2617">EasyOCR</text><text fill="#000000" font-family="sans-serif" font-size="12" lengthAdjust="spacing" textLength="31.8047" x="739.6133" y="1535.3945">(&#26412;&#22320;)</text></g><g class="participant participant-head" data-participant="KeyPool"><rect fill="#E2E2F0" filter="url(#f1nsyaayo30zfw)" height="42.2656" rx="2.5" ry="2.5" style="stroke:#181818;stroke-width:0.5;" width="73.5371" x="800.8809" y="73.3555"/><text fill="#000000" font-family="sans-serif" font-size="12" lengthAdjust="spacing" textLength="36.5859" x="819.3564" y="91.957">Key &#27744;</text><text fill="#000000" font-family="sans-serif" font-size="12" lengthAdjust="spacing" textLength="59.5371" x="807.8809" y="106.0898">(key_pool)</text></g><g class="participant participant-tail" data-participant="KeyPool"><rect fill="#E2E2F0" filter="url(#f1nsyaayo30zfw)" height="42.2656" rx="2.5" ry="2.5" style="stroke:#181818;stroke-width:0.5;" width="73.5371" x="800.8809" y="1502.6602"/><text fill="#000000" font-family="sans-serif" font-size="12" lengthAdjust="spacing" textLength="36.5859" x="819.3564" y="1521.2617">Key &#27744;</text><text fill="#000000" font-family="sans-serif" font-size="12" lengthAdjust="spacing" textLength="59.5371" x="807.8809" y="1535.3945">(key_pool)</text></g><g class="participant participant-head" data-participant="LLM"><rect fill="#E2E2F0" filter="url(#f1nsyaayo30zfw)" height="42.2656" rx="2.5" ry="2.5" style="stroke:#181818;stroke-width:0.5;" width="87.0957" x="887.418" y="73.3555"/><text fill="#000000" font-family="sans-serif" font-size="12" lengthAdjust="spacing" textLength="73.0957" x="894.418" y="91.957">&#22806;&#37096; LLM API</text><text fill="#000000" font-family="sans-serif" font-size="12" lengthAdjust="spacing" textLength="43.8047" x="909.0635" y="106.0898">(&#22810;&#27169;&#24577;)</text></g><g class="participant participant-tail" data-participant="LLM"><rect fill="#E2E2F0" filter="url(#f1nsyaayo30zfw)" height="42.2656" rx="2.5" ry="2.5" style="stroke:#181818;stroke-width:0.5;" width="87.0957" x="887.418" y="1502.6602"/><text fill="#000000" font-family="sans-serif" font-size="12" lengthAdjust="spacing" textLength="73.0957" x="894.418" y="1521.2617">&#22806;&#37096; LLM API</text><text fill="#000000" font-family="sans-serif" font-size="12" lengthAdjust="spacing" textLength="43.8047" x="909.0635" y="1535.3945">(&#22810;&#27169;&#24577;)</text></g><g class="participant participant-head" data-participant="Local"><rect fill="#E2E2F0" filter="url(#f1nsyaayo30zfw)" height="42.2656" rx="2.5" ry="2.5" style="stroke:#181818;stroke-width:0.5;" width="78.248" x="987.5137" y="73.3555"/><text fill="#000000" font-family="sans-serif" font-size="12" lengthAdjust="spacing" textLength="48" x="1002.6377" y="91.957">&#26412;&#22320;&#25512;&#29702;</text><text fill="#000000" font-family="sans-serif" font-size="12" lengthAdjust="spacing" textLength="64.248" x="994.5137" y="106.0898">(llama.cpp)</text></g><g class="participant participant-tail" data-participant="Local"><rect fill="#E2E2F0" filter="url(#f1nsyaayo30zfw)" height="42.2656" rx="2.5" ry="2.5" style="stroke:#181818;stroke-width:0.5;" width="78.248" x="987.5137" y="1502.6602"/><text fill="#000000" font-family="sans-serif" font-size="12" lengthAdjust="spacing" textLength="48" x="1002.6377" y="1521.2617">&#26412;&#22320;&#25512;&#29702;</text><text fill="#000000" font-family="sans-serif" font-size="12" lengthAdjust="spacing" textLength="64.248" x="994.5137" y="1535.3945">(llama.cpp)</text></g><g class="participant participant-head" data-participant="TplSvc"><rect fill="#E2E2F0" filter="url(#f1nsyaayo30zfw)" height="42.2656" rx="2.5" ry="2.5" style="stroke:#181818;stroke-width:0.5;" width="119.2285" x="1078.7617" y="73.3555"/><text fill="#000000" font-family="sans-serif" font-size="12" lengthAdjust="spacing" textLength="48" x="1114.376" y="91.957">&#27169;&#26495;&#26381;&#21153;</text><text fill="#000000" font-family="sans-serif" font-size="12" lengthAdjust="spacing" textLength="105.2285" x="1085.7617" y="106.0898">(template_service)</text></g><g class="participant participant-tail" data-participant="TplSvc"><rect fill="#E2E2F0" filter="url(#f1nsyaayo30zfw)" height="42.2656" rx="2.5" ry="2.5" style="stroke:#181818;stroke-width:0.5;" width="119.2285" x="1078.7617" y="1502.6602"/><text fill="#000000" font-family="sans-serif" font-size="12" lengthAdjust="spacing" textLength="48" x="1114.376" y="1521.2617">&#27169;&#26495;&#26381;&#21153;</text><text fill="#000000" font-family="sans-serif" font-size="12" lengthAdjust="spacing" textLength="105.2285" x="1085.7617" y="1535.3945">(template_service)</text></g><g class="participant participant-head" data-participant="DB"><text fill="#000000" font-family="sans-serif" font-size="12" lengthAdjust="spacing" textLength="36" x="1249.3018" y="117.0898">&#25968;&#25454;&#24211;</text><path d="M1252.3018,69.4883 C1252.3018,59.4883 1270.3018,59.4883 1270.3018,59.4883 C1270.3018,59.4883 1288.3018,59.4883 1288.3018,69.4883 L1288.3018,95.4883 C1288.3018,105.4883 1270.3018,105.4883 1270.3018,105.4883 C1270.3018,105.4883 1252.3018,105.4883 1252.3018,95.4883 L1252.3018,69.4883" fill="#E2E2F0" filter="url(#f1nsyaayo30zfw)" style="stroke:#181818;stroke-width:1.5;"/><path d="M1252.3018,69.4883 C1252.3018,79.4883 1270.3018,79.4883 1270.3018,79.4883 C1270.3018,79.4883 1288.3018,79.4883 1288.3018,69.4883" fill="none" style="stroke:#181818;stroke-width:1.5;"/></g><g class="participant participant-tail" data-participant="DB"><text fill="#000000" font-family="sans-serif" font-size="12" lengthAdjust="spacing" textLength="36" x="1249.3018" y="1514.2617">&#25968;&#25454;&#24211;</text><path d="M1252.3018,1526.793 C1252.3018,1516.793 1270.3018,1516.793 1270.3018,1516.793 C1270.3018,1516.793 1288.3018,1516.793 1288.3018,1526.793 L1288.3018,1552.793 C1288.3018,1562.793 1270.3018,1562.793 1270.3018,1562.793 C1270.3018,1562.793 1252.3018,1562.793 1252.3018,1552.793 L1252.3018,1526.793" fill="#E2E2F0" filter="url(#f1nsyaayo30zfw)" style="stroke:#181818;stroke-width:1.5;"/><path d="M1252.3018,1526.793 C1252.3018,1536.793 1270.3018,1536.793 1270.3018,1536.793 C1270.3018,1536.793 1288.3018,1536.793 1288.3018,1526.793" fill="none" style="stroke:#181818;stroke-width:1.5;"/></g><g class="message" data-participant-1="User" data-participant-2="FE"><polygon fill="#181818" points="182.4688,145.7539,192.4688,149.7539,182.4688,153.7539,186.4688,149.7539" style="stroke:#181818;stroke-width:1;"/><line style="stroke:#181818;stroke-width:1;" x1="20" x2="188.4688" y1="149.7539" y2="149.7539"/><text fill="#000000" font-family="sans-serif" font-size="12" lengthAdjust="spacing" textLength="76.3477" x="69.0605" y="145.2227">&#19978;&#20256;&#22270;&#29255;/PDF</text></g><g class="message" data-participant-1="FE" data-participant-2="OcrR"><polygon fill="#181818" points="335.2461,173.8867,345.2461,177.8867,335.2461,181.8867,339.2461,177.8867" style="stroke:#181818;stroke-width:1;"/><line style="stroke:#181818;stroke-width:1;" x1="194.4688" x2="341.2461" y1="177.8867" y2="177.8867"/><text fill="#000000" font-family="sans-serif" font-size="12" lengthAdjust="spacing" textLength="128.7773" x="206.4688" y="173.3555">POST /api/ocr/upload</text></g><rect fill="#EEEEEE" filter="url(#f1nsyaayo30zfw)" height="3" style="stroke:#EEEEEE;stroke-width:1;" width="1296.3018" x="0" y="205.9531"/><line style="stroke:#000000;stroke-width:1;" x1="0" x2="1296.3018" y1="205.9531" y2="205.9531"/><line style="stroke:#000000;stroke-width:1;" x1="0" x2="1296.3018" y1="208.9531" y2="208.9531"/><rect fill="#EEEEEE" filter="url(#f1nsyaayo30zfw)" height="22.1328" style="stroke:#000000;stroke-width:2;" width="183.4473" x="556.4272" y="195.8867"/><text fill="#000000" font-family="sans-serif" font-size="12" font-weight="bold" lengthAdjust="spacing" textLength="165.4922" x="562.4272" y="211.4883">Step 1: &#25991;&#23383;&#25552;&#21462;&#65288;&#22810;&#32423;&#38477;&#32423;&#65289;</text><g class="message" data-participant-1="OcrR" data-participant-2="OcrSvc"><polygon fill="#181818" points="581.0234,244.1523,591.0234,248.1523,581.0234,252.1523,585.0234,248.1523" style="stroke:#181818;stroke-width:1;"/><line style="stroke:#181818;stroke-width:1;" x1="347.2461" x2="587.0234" y1="248.1523" y2="248.1523"/><text fill="#000000" font-family="sans-serif" font-size="12" lengthAdjust="spacing" textLength="167.8359" x="386.2168" y="243.6211">process_document(file, user)</text></g><path d="M528.2949,263.1523 L589.1152,263.1523 L589.1152,269.2852 L579.1152,279.2852 L528.2949,279.2852 L528.2949,263.1523" fill="#EEEEEE" style="stroke:#000000;stroke-width:1.5;"/><rect fill="none" height="555.0547" style="stroke:#000000;stroke-width:1.5;" width="536.7051" x="528.2949" y="263.1523"/><text fill="#000000" font-family="sans-serif" font-size="12" font-weight="bold" lengthAdjust="spacing" textLength="15.8203" x="543.2949" y="275.7539">alt</text><text fill="#000000" font-family="sans-serif" font-size="12" font-weight="bold" lengthAdjust="spacing" textLength="91.2129" x="604.1152" y="276.7539">[&#29992;&#25143;&#26159; Free &#29256;]</text><g class="message" data-participant-1="OcrSvc" data-participant-2="Easy"><polygon fill="#181818" points="745.0156,295.418,755.0156,299.418,745.0156,303.418,749.0156,299.418" style="stroke:#181818;stroke-width:1;"/><line style="stroke:#181818;stroke-width:1;" x1="593.0234" x2="751.0156" y1="299.418" y2="299.418"/><text fill="#000000" font-family="sans-serif" font-size="12" lengthAdjust="spacing" textLength="139.9922" x="605.0234" y="294.8867">easyocr.readtext(image)</text></g><g class="message" data-participant-1="Easy" data-participant-2="OcrSvc"><polygon fill="#181818" points="604.0234,337.6836,594.0234,341.6836,604.0234,345.6836,600.0234,341.6836" style="stroke:#181818;stroke-width:1;"/><line style="stroke:#181818;stroke-width:1;stroke-dasharray:2.0,2.0;" x1="598.0234" x2="756.0156" y1="341.6836" y2="341.6836"/><text fill="#000000" font-family="sans-serif" font-size="12" lengthAdjust="spacing" textLength="49.8047" x="650.1172" y="323.0195">raw_text</text><text fill="#000000" font-family="sans-serif" font-size="12" lengthAdjust="spacing" textLength="138.9258" x="605.5566" y="337.1523">(&#21360;&#21047;&#20307;&#8805;95%, &#25163;&#20889;~85%)</text></g><path d="M762,354.6836 L762,406.6836 L861,406.6836 L861,364.6836 L851,354.6836 L762,354.6836" fill="#FEFFDD" filter="url(#f1nsyaayo30zfw)" style="stroke:#181818;stroke-width:0.5;"/><path d="M851,354.6836 L851,364.6836 L861,364.6836 L851,354.6836" fill="#FEFFDD" style="stroke:#181818;stroke-width:0.5;"/><text fill="#000000" font-family="sans-serif" font-size="12" lengthAdjust="spacing" textLength="78.8438" x="768" y="371.2852">&#26412;&#22320; CPU &#25512;&#29702;</text><text fill="#000000" font-family="sans-serif" font-size="12" lengthAdjust="spacing" textLength="60" x="768" y="385.418">&#26080;&#22806;&#37096;&#20381;&#36182;</text><text fill="#000000" font-family="sans-serif" font-size="12" lengthAdjust="spacing" textLength="48" x="768" y="399.5508">&#19981;&#38480;&#27425;&#25968;</text><line style="stroke:#000000;stroke-width:1;stroke-dasharray:2.0,2.0;" x1="528.2949" x2="1065" y1="416.082" y2="416.082"/><text fill="#000000" font-family="sans-serif" font-size="12" font-weight="bold" lengthAdjust="spacing" textLength="114.0469" x="533.2949" y="427.6836">[&#29992;&#25143;&#26159; Pro / Pro+]</text><path d="M538.2949,438.2148 L599.1152,438.2148 L599.1152,444.3477 L589.1152,454.3477 L538.2949,454.3477 L538.2949,438.2148" fill="#EEEEEE" style="stroke:#000000;stroke-width:1.5;"/><rect fill="none" height="372.9922" style="stroke:#000000;stroke-width:1.5;" width="516.7051" x="538.2949" y="438.2148"/><text fill="#000000" font-family="sans-serif" font-size="12" font-weight="bold" lengthAdjust="spacing" textLength="15.8203" x="553.2949" y="450.8164">alt</text><text fill="#000000" font-family="sans-serif" font-size="12" font-weight="bold" lengthAdjust="spacing" textLength="109.8984" x="614.1152" y="451.8164">[Key &#27744;&#26377;&#21487;&#29992; Key]</text><g class="message" data-participant-1="OcrSvc" data-participant-2="KeyPool"><polygon fill="#181818" points="827.1494,470.4805,837.1494,474.4805,827.1494,478.4805,831.1494,474.4805" style="stroke:#181818;stroke-width:1;"/><line style="stroke:#181818;stroke-width:1;" x1="593.0234" x2="833.1494" y1="474.4805" y2="474.4805"/><text fill="#000000" font-family="sans-serif" font-size="12" lengthAdjust="spacing" textLength="79.8223" x="676.1753" y="469.9492">get_key("ocr")</text></g><g class="message" data-participant-1="KeyPool" data-participant-2="OcrSvc"><polygon fill="#181818" points="604.0234,498.6133,594.0234,502.6133,604.0234,506.6133,600.0234,502.6133" style="stroke:#181818;stroke-width:1;"/><line style="stroke:#181818;stroke-width:1;stroke-dasharray:2.0,2.0;" x1="598.0234" x2="838.1494" y1="502.6133" y2="502.6133"/><text fill="#000000" font-family="sans-serif" font-size="12" lengthAdjust="spacing" textLength="153.5215" x="639.3257" y="498.082">{api_base, api_key, model}</text></g><g class="message" data-participant-1="OcrSvc" data-participant-2="LLM"><polygon fill="#181818" points="920.4658,540.8789,930.4658,544.8789,920.4658,548.8789,924.4658,544.8789" style="stroke:#181818;stroke-width:1;"/><line style="stroke:#181818;stroke-width:1;" x1="593.0234" x2="926.4658" y1="544.8789" y2="544.8789"/><text fill="#000000" font-family="sans-serif" font-size="12" lengthAdjust="spacing" textLength="120.082" x="702.7036" y="526.2148">multipart/form-data</text><text fill="#000000" font-family="sans-serif" font-size="12" lengthAdjust="spacing" textLength="92.0156" x="716.7368" y="540.3477">(&#22270;&#29255; + prompt)</text></g><g class="message" data-participant-1="LLM" data-participant-2="OcrSvc"><polygon fill="#181818" points="604.0234,569.0117,594.0234,573.0117,604.0234,577.0117,600.0234,573.0117" style="stroke:#181818;stroke-width:1;"/><line style="stroke:#181818;stroke-width:1;stroke-dasharray:2.0,2.0;" x1="598.0234" x2="931.4658" y1="573.0117" y2="573.0117"/><text fill="#000000" font-family="sans-serif" font-size="12" lengthAdjust="spacing" textLength="68.1797" x="728.6548" y="568.4805">&#32467;&#26500;&#21270; JSON</text></g><path d="M937,586.0117 L937,638.0117 L1042,638.0117 L1042,596.0117 L1032,586.0117 L937,586.0117" fill="#FEFFDD" filter="url(#f1nsyaayo30zfw)" style="stroke:#181818;stroke-width:0.5;"/><path d="M1032,586.0117 L1032,596.0117 L1042,596.0117 L1032,586.0117" fill="#FEFFDD" style="stroke:#181818;stroke-width:0.5;"/><text fill="#000000" font-family="sans-serif" font-size="12" lengthAdjust="spacing" textLength="60" x="943" y="602.6133">&#22810;&#27169;&#24577;&#35782;&#21035;</text><text fill="#000000" font-family="sans-serif" font-size="12" lengthAdjust="spacing" textLength="74.6719" x="943" y="616.7461">&#31934;&#24230; &gt;&gt; &#26412;&#22320;</text><text fill="#000000" font-family="sans-serif" font-size="12" lengthAdjust="spacing" textLength="84" x="943" y="630.8789">&#26377;&#26376;&#24230;&#37197;&#39069;&#38480;&#21046;</text><line style="stroke:#000000;stroke-width:1;stroke-dasharray:2.0,2.0;" x1="538.2949" x2="1055" y1="647.4102" y2="647.4102"/><text fill="#000000" font-family="sans-serif" font-size="12" font-weight="bold" lengthAdjust="spacing" textLength="131.2617" x="543.2949" y="659.0117">[&#25152;&#26377; Key &#22833;&#25928; &#8594; &#38477;&#32423;]</text><g class="message" data-participant-1="OcrSvc" data-participant-2="OcrSvc"><line style="stroke:#181818;stroke-width:1;" x1="593.0234" x2="635.0234" y1="682.6758" y2="682.6758"/><line style="stroke:#181818;stroke-width:1;" x1="635.0234" x2="635.0234" y1="682.6758" y2="695.6758"/><line style="stroke:#181818;stroke-width:1;" x1="594.0234" x2="635.0234" y1="695.6758" y2="695.6758"/><polygon fill="#181818" points="604.0234,691.6758,594.0234,695.6758,604.0234,699.6758,600.0234,695.6758" style="stroke:#181818;stroke-width:1;"/><text fill="#000000" font-family="sans-serif" font-size="12" lengthAdjust="spacing" textLength="90.5273" x="600.0234" y="678.1445">&#38477;&#32423;&#21040; EasyOCR</text></g><g class="message" data-participant-1="OcrSvc" data-participant-2="Easy"><polygon fill="#181818" points="745.0156,719.8086,755.0156,723.8086,745.0156,727.8086,749.0156,723.8086" style="stroke:#181818;stroke-width:1;"/><line style="stroke:#181818;stroke-width:1;" x1="593.0234" x2="751.0156" y1="723.8086" y2="723.8086"/><text fill="#000000" font-family="sans-serif" font-size="12" lengthAdjust="spacing" textLength="139.9922" x="605.0234" y="719.2773">easyocr.readtext(image)</text></g><g class="message" data-participant-1="Easy" data-participant-2="OcrSvc"><polygon fill="#181818" points="604.0234,747.9414,594.0234,751.9414,604.0234,755.9414,600.0234,751.9414" style="stroke:#181818;stroke-width:1;"/><line style="stroke:#181818;stroke-width:1;stroke-dasharray:2.0,2.0;" x1="598.0234" x2="756.0156" y1="751.9414" y2="751.9414"/><text fill="#000000" font-family="sans-serif" font-size="12" lengthAdjust="spacing" textLength="49.8047" x="650.1172" y="747.4102">raw_text</text></g><path d="M598,764.9414 L598,802.9414 L679,802.9414 L679,774.9414 L669,764.9414 L598,764.9414" fill="#FEFFDD" filter="url(#f1nsyaayo30zfw)" style="stroke:#181818;stroke-width:0.5;"/><path d="M669,764.9414 L669,774.9414 L679,774.9414 L669,764.9414" fill="#FEFFDD" style="stroke:#181818;stroke-width:0.5;"/><text fill="#000000" font-family="sans-serif" font-size="12" lengthAdjust="spacing" textLength="48" x="604" y="781.543">&#33258;&#21160;&#38477;&#32423;</text><text fill="#000000" font-family="sans-serif" font-size="12" lengthAdjust="spacing" textLength="60" x="604" y="795.6758">&#29992;&#25143;&#26080;&#24863;&#30693;</text><rect fill="#EEEEEE" filter="url(#f1nsyaayo30zfw)" height="3" style="stroke:#EEEEEE;stroke-width:1;" width="1296.3018" x="0" y="845.2734"/><line style="stroke:#000000;stroke-width:1;" x1="0" x2="1296.3018" y1="845.2734" y2="845.2734"/><line style="stroke:#000000;stroke-width:1;" x1="0" x2="1296.3018" y1="848.2734" y2="848.2734"/><rect fill="#EEEEEE" filter="url(#f1nsyaayo30zfw)" height="22.1328" style="stroke:#000000;stroke-width:2;" width="135.4473" x="580.4272" y="835.207"/><text fill="#000000" font-family="sans-serif" font-size="12" font-weight="bold" lengthAdjust="spacing" textLength="117.4922" x="586.4272" y="850.8086">Step 2: &#25991;&#26723;&#31867;&#22411;&#26816;&#27979;</text><g class="message" data-participant-1="OcrSvc" data-participant-2="TplSvc"><polygon fill="#181818" points="1127.876,883.4727,1137.876,887.4727,1127.876,891.4727,1131.876,887.4727" style="stroke:#181818;stroke-width:1;"/><line style="stroke:#181818;stroke-width:1;" x1="593.0234" x2="1133.876" y1="887.4727" y2="887.4727"/><text fill="#000000" font-family="sans-serif" font-size="12" lengthAdjust="spacing" textLength="124.6523" x="804.1235" y="882.9414">detect_type(raw_text)</text></g><g class="message" data-participant-1="TplSvc" data-participant-2="TplSvc"><line style="stroke:#181818;stroke-width:1;" x1="1139.876" x2="1181.876" y1="943.8711" y2="943.8711"/><line style="stroke:#181818;stroke-width:1;" x1="1181.876" x2="1181.876" y1="943.8711" y2="956.8711"/><line style="stroke:#181818;stroke-width:1;" x1="1140.876" x2="1181.876" y1="956.8711" y2="956.8711"/><polygon fill="#181818" points="1150.876,952.8711,1140.876,956.8711,1150.876,960.8711,1146.876,956.8711" style="stroke:#181818;stroke-width:1;"/><text fill="#000000" font-family="sans-serif" font-size="12" lengthAdjust="spacing" textLength="60" x="1175.0889" y="911.0742">&#20851;&#38190;&#35789;&#21305;&#37197;</text><text fill="#000000" font-family="sans-serif" font-size="12" lengthAdjust="spacing" textLength="97.4414" x="1156.3682" y="925.207">(&#21457;&#31080;+&#37329;&#39069;&#8594;&#25253;&#38144;</text><text fill="#000000" font-family="sans-serif" font-size="12" lengthAdjust="spacing" textLength="112.6289" x="1150.6729" y="939.3398">&#35831;&#20551;+&#22825;&#25968;&#8594;&#35831;&#20551; ...)</text></g><g class="message" data-participant-1="TplSvc" data-participant-2="OcrSvc"><polygon fill="#181818" points="604.0234,981.0039,594.0234,985.0039,604.0234,989.0039,600.0234,985.0039" style="stroke:#181818;stroke-width:1;"/><line style="stroke:#181818;stroke-width:1;stroke-dasharray:2.0,2.0;" x1="598.0234" x2="1138.876" y1="985.0039" y2="985.0039"/><text fill="#000000" font-family="sans-serif" font-size="12" lengthAdjust="spacing" textLength="89.3379" x="821.7808" y="980.4727">document_type</text></g><rect fill="#EEEEEE" filter="url(#f1nsyaayo30zfw)" height="3" style="stroke:#EEEEEE;stroke-width:1;" width="1296.3018" x="0" y="1013.0703"/><line style="stroke:#000000;stroke-width:1;" x1="0" x2="1296.3018" y1="1013.0703" y2="1013.0703"/><line style="stroke:#000000;stroke-width:1;" x1="0" x2="1296.3018" y1="1016.0703" y2="1016.0703"/><rect fill="#EEEEEE" filter="url(#f1nsyaayo30zfw)" height="22.1328" style="stroke:#000000;stroke-width:2;" width="158.3809" x="568.9604" y="1003.0039"/><text fill="#000000" font-family="sans-serif" font-size="12" font-weight="bold" lengthAdjust="spacing" textLength="140.4258" x="574.9604" y="1018.6055">Step 3: JSON &#32467;&#26500;&#21270;&#22635;&#20805;</text><path d="M538.2949,1042.1367 L599.1152,1042.1367 L599.1152,1048.2695 L589.1152,1058.2695 L538.2949,1058.2695 L538.2949,1042.1367" fill="#EEEEEE" style="stroke:#000000;stroke-width:1.5;"/><rect fill="none" height="261.5938" style="stroke:#000000;stroke-width:1.5;" width="619.7656" x="538.2949" y="1042.1367"/><text fill="#000000" font-family="sans-serif" font-size="12" font-weight="bold" lengthAdjust="spacing" textLength="15.8203" x="553.2949" y="1054.7383">alt</text><text fill="#000000" font-family="sans-serif" font-size="12" font-weight="bold" lengthAdjust="spacing" textLength="123.2578" x="614.1152" y="1055.7383">[Free &#29992;&#25143;&#65288;&#20004;&#38454;&#27573;&#65289;]</text><g class="message" data-participant-1="OcrSvc" data-participant-2="Local"><polygon fill="#181818" points="1016.1377,1102.668,1026.1377,1106.668,1016.1377,1110.668,1020.1377,1106.668" style="stroke:#181818;stroke-width:1;"/><line style="stroke:#181818;stroke-width:1;" x1="593.0234" x2="1022.1377" y1="1106.668" y2="1106.668"/><text fill="#000000" font-family="sans-serif" font-size="12" lengthAdjust="spacing" textLength="162.5098" x="729.3257" y="1073.8711">POST /v1/chat/completions</text><text fill="#000000" font-family="sans-serif" font-size="12" lengthAdjust="spacing" textLength="157.3418" x="731.9097" y="1088.0039">(system: "&#20320;&#26159;&#34920;&#21333;&#22635;&#20805;&#21161;&#25163;"</text><text fill="#000000" font-family="sans-serif" font-size="12" lengthAdjust="spacing" textLength="86.4609" x="769.2485" y="1102.1367">user: raw_text)</text></g><g class="message" data-participant-1="Local" data-participant-2="OcrSvc"><polygon fill="#181818" points="604.0234,1130.8008,594.0234,1134.8008,604.0234,1138.8008,600.0234,1134.8008" style="stroke:#181818;stroke-width:1;"/><line style="stroke:#181818;stroke-width:1;stroke-dasharray:2.0,2.0;" x1="598.0234" x2="1027.1377" y1="1134.8008" y2="1134.8008"/><text fill="#000000" font-family="sans-serif" font-size="12" lengthAdjust="spacing" textLength="59.6426" x="780.7593" y="1130.2695">filled_json</text></g><path d="M1033,1147.8008 L1033,1199.8008 L1145,1199.8008 L1145,1157.8008 L1135,1147.8008 L1033,1147.8008" fill="#FEFFDD" filter="url(#f1nsyaayo30zfw)" style="stroke:#181818;stroke-width:0.5;"/><path d="M1135,1147.8008 L1135,1157.8008 L1145,1157.8008 L1135,1147.8008" fill="#FEFFDD" style="stroke:#181818;stroke-width:0.5;"/><text fill="#000000" font-family="sans-serif" font-size="12" lengthAdjust="spacing" textLength="84.4922" x="1039" y="1164.4023">Qwen2.5-0.5B</text><text fill="#000000" font-family="sans-serif" font-size="12" lengthAdjust="spacing" textLength="76.3828" x="1039" y="1178.5352">&#32431;&#25991;&#26412;&#8594;JSON</text><text fill="#000000" font-family="sans-serif" font-size="12" lengthAdjust="spacing" textLength="91.0605" x="1039" y="1192.668">CPU/Metal/GPU</text><line style="stroke:#000000;stroke-width:1;stroke-dasharray:2.0,2.0;" x1="538.2949" x2="1158.0605" y1="1209.1992" y2="1209.1992"/><text fill="#000000" font-family="sans-serif" font-size="12" font-weight="bold" lengthAdjust="spacing" textLength="166.1367" x="543.2949" y="1220.8008">[Pro/Pro+ &#29992;&#25143;&#65288;&#19968;&#27493;&#21040;&#20301;&#65289;]</text><g class="message" data-participant-1="OcrSvc" data-participant-2="LLM"><polygon fill="#181818" points="920.4658,1240.4648,930.4658,1244.4648,920.4658,1248.4648,924.4658,1244.4648" style="stroke:#181818;stroke-width:1;"/><line style="stroke:#181818;stroke-width:1;" x1="593.0234" x2="926.4658" y1="1244.4648" y2="1244.4648"/><text fill="#000000" font-family="sans-serif" font-size="12" lengthAdjust="spacing" textLength="92.168" x="716.6606" y="1239.9336">&#24050;&#22312; Step 1 &#23436;&#25104;</text></g><path d="M937,1257.4648 L937,1295.4648 L1080,1295.4648 L1080,1267.4648 L1070,1257.4648 L937,1257.4648" fill="#FEFFDD" filter="url(#f1nsyaayo30zfw)" style="stroke:#181818;stroke-width:0.5;"/><path d="M1070,1257.4648 L1070,1267.4648 L1080,1267.4648 L1070,1257.4648" fill="#FEFFDD" style="stroke:#181818;stroke-width:0.5;"/><text fill="#000000" font-family="sans-serif" font-size="12" lengthAdjust="spacing" textLength="122.5254" x="943" y="1274.0664">OCR + JSON &#19968;&#27425;&#35843;&#29992;</text><text fill="#000000" font-family="sans-serif" font-size="12" lengthAdjust="spacing" textLength="48" x="943" y="1288.1992">&#30465;&#26102;&#30465;&#21147;</text><rect fill="#EEEEEE" filter="url(#f1nsyaayo30zfw)" height="3" style="stroke:#EEEEEE;stroke-width:1;" width="1296.3018" x="0" y="1330.7969"/><line style="stroke:#000000;stroke-width:1;" x1="0" x2="1296.3018" y1="1330.7969" y2="1330.7969"/><line style="stroke:#000000;stroke-width:1;" x1="0" x2="1296.3018" y1="1333.7969" y2="1333.7969"/><rect fill="#EEEEEE" filter="url(#f1nsyaayo30zfw)" height="22.1328" style="stroke:#000000;stroke-width:2;" width="111.4473" x="592.4272" y="1320.7305"/><text fill="#000000" font-family="sans-serif" font-size="12" font-weight="bold" lengthAdjust="spacing" textLength="93.4922" x="598.4272" y="1336.332">Step 4: &#36820;&#22238;&#32467;&#26524;</text><g class="message" data-participant-1="OcrSvc" data-participant-2="DB"><polygon fill="#181818" points="1258.3018,1383.1289,1268.3018,1387.1289,1258.3018,1391.1289,1262.3018,1387.1289" style="stroke:#181818;stroke-width:1;"/><line style="stroke:#181818;stroke-width:1;" x1="593.0234" x2="1264.3018" y1="1387.1289" y2="1387.1289"/><text fill="#000000" font-family="sans-serif" font-size="12" lengthAdjust="spacing" textLength="48" x="907.6626" y="1368.4648">&#20445;&#23384;&#35760;&#24405;</text><text fill="#000000" font-family="sans-serif" font-size="12" lengthAdjust="spacing" textLength="176.3438" x="843.4907" y="1382.5977">(ocr_provider, ocr_model, tier)</text></g><g class="message" data-participant-1="OcrSvc" data-participant-2="OcrR"><polygon fill="#181818" points="358.2461,1411.2617,348.2461,1415.2617,358.2461,1419.2617,354.2461,1415.2617" style="stroke:#181818;stroke-width:1;"/><line style="stroke:#181818;stroke-width:1;stroke-dasharray:2.0,2.0;" x1="352.2461" x2="592.0234" y1="1415.2617" y2="1415.2617"/><text fill="#000000" font-family="sans-serif" font-size="12" lengthAdjust="spacing" textLength="221.7773" x="359.2461" y="1410.7305">{raw_text, filled_json, document_type}</text></g><g class="message" data-participant-1="OcrR" data-participant-2="FE"><polygon fill="#181818" points="205.4688,1439.3945,195.4688,1443.3945,205.4688,1447.3945,201.4688,1443.3945" style="stroke:#181818;stroke-width:1;"/><line style="stroke:#181818;stroke-width:1;stroke-dasharray:2.0,2.0;" x1="199.4688" x2="346.2461" y1="1443.3945" y2="1443.3945"/><text fill="#000000" font-family="sans-serif" font-size="12" lengthAdjust="spacing" textLength="48" x="246.8574" y="1438.8633">&#36820;&#22238;&#32467;&#26524;</text></g><g class="message" data-participant-1="FE" data-participant-2="User"><polygon fill="#181818" points="31,1481.6602,21,1485.6602,31,1489.6602,27,1485.6602" style="stroke:#181818;stroke-width:1;"/><line style="stroke:#181818;stroke-width:1;" x1="25" x2="193.4688" y1="1485.6602" y2="1485.6602"/><text fill="#000000" font-family="sans-serif" font-size="12" lengthAdjust="spacing" textLength="119.9766" x="47.2461" y="1466.9961">&#23637;&#31034;&#21487;&#32534;&#36753; JSON &#34920;&#21333;</text><text fill="#000000" font-family="sans-serif" font-size="12" lengthAdjust="spacing" textLength="150.4688" x="32" y="1481.1289">+ &#25991;&#26723;&#31867;&#22411;&#26631;&#31614; + &#23618;&#32423;&#26631;&#35782;</text></g><!--SRC=[fLLhJnj75Fs-l-BALHGGncveaLea8kL5rJOfRaZKBqZMPZt0blNkTZqcfL4gqmIm8IxGy0Y9IN1ZMgS13Aa8AU7nNoBFhFqfVw5tTjUFfIIg52CCktFctdlEFNFdD7H_m4Sw3NnvZstcgwc7y2Or3xqNhW8hFBJt_gmkP_6R5UxQinDyPymkJYFuWt99YM5LDsLBZiCDMHaUj8oa7hjWQ8O57_LS4ZzDY1WPa9CQxJ5qsgV-HE1CHzDYWloG9Bf2hf14GXuavpHrK0U5w9HOpQWXEMRSLFL1e5QII19LgKO4tygTW_SJbMI5ObK1Uxx8qxi1a1DmFO6nCIvL5TMKTGe1bidQpqlzUijtXZLy0yiPYc0jhGuQgVYm8bjbjsJFRoFUKAmeSiTYNN2lObtzBvpdicmgxy4n-OYga3g-RqJnxxWa9qPn5y9vRftbjboaUEl7VKr6WM-l8cwOZ4PDmz1S9BwFuCCnXeN5wfqYNBvy1Sv5liGzA1WlvdbgpDs42_uDRcx-Qn6bHBYcoN4vf9Yc1pSK-LW64Mtbg4wLahYfoPJu-LupDS4t9bFvXfmWk6jXYsStsTvzP_dYUKaItO7siwWxT47vrLHvVvKzEhGpa-78nHu9t-AQa1bN8xrzro0icseOXGqdJSsGOvBKtGrzb9XmfWluuYJRME8pisncyUr-kjaaR_Sp88piX793OcKOrBGC1RqOZHbACeu-R1bGDHA499RLYcxIABXMuWzAq6CH0dOcBG5-l0WOI_GA8n7yWuM5B2B7AFcHjgXnuIe7x43Qc_DQyiseG8dUPBTOUhTySFzDPktppbD1u9bfDh7yysUTfzpTka49MEhW40LZe9RExHXSY5o7MjluqghR-FBXIcLdiLyllyfMbsVvUXvrboIYOGiQR2AM0M7ntUOa4LGzZ_5SXisWvOlYXRFe9-nP3eiO93IATcm98F50QnrQ0_WOtyBEHOKDWY3-msr1Y1inejq-8OLmRXV4SOwemdRX0SEAjmiV2RqSVq2Rw5tSf8sqOfClfVtwFdzybzrRXA_wUh-fu_nwkgdg1wHIcc3fv_sw_UAGxVq1PyzwIgEykGpFfV5bTJnR_Nq5bMNfbqvGHrcUII72qP0Ljlb26jvC_0Qk_KvWM2_IcsBfBV16mGdW_s6nzzli7TphkChaNsogw9Q2t5sJBAtokq_i9sikHpqcYT_wWUjm3XpFFxMtNxF7q_nfYkzCrmwPLxSx031-Z52Yq2WTDKbBhQPMoLjk1hBnlwlpcvLIbjtx1tKMxPwPizUARTN9EHGT9ULJQzNvLByEbT8k6vjiOuLdQ6zSS9yX50er8ZThKJlYJXKD7fzqEUvec8NbdxFnSOU9E1JkgNSKmQ5IVbMeFdZ9DtTmeXoR0ywKhC-faJDXPKYcOGKzgX6g6de2oIH64pWgko1GFbZ5GrZ95rbsmKt8ffxXmGyWCJ5y6grps-i6z_71IQMHMFJxXA6VC2PgrNnxa-WTeSxsZqETvx6pUoNHjDmwwYLOz-iuGC9N29Mry1UHwzwGmA4G5eEXcNQARwoXISi7sHEOkqTezmNB5Rrf36pp7a_FIkywR-AYR7E55x7NyvMjEvWDAyoDyQMN-Csc7laDzodQz6YUFNhiT2ftp6eNpuiBv6Y5RJoeR6wnWmNl0iOXCQB6Y1K4yUGCd21GLOptskR65NEh9dgmMTsWtpgtlLkaTcir5-NTMCwjXefiBzY5FJ5BznShXtCkNRVd_NgR__YiJjeRXoW9s_u5po0-uY2I_WK0]--></g></svg>