<svg xmlns="http://www.w3.org/2000/svg" xmlns:xlink="http://www.w3.org/1999/xlink" contentStyleType="text/css" data-diagram-type="STATE" height="519px" preserveAspectRatio="none" style="width:1152px;height:519px;background:#FEFEFE;" version="1.1" viewBox="0 0 1152 519" width="1152px" zoomAndPan="magnify"><title>&#23457;&#25209;&#35760;&#24405;&#29366;&#24577;&#26426;</title><defs><filter height="300%" id="f10u0abit81ulg" width="300%" x="-1" y="-1"><feGaussianBlur result="blurOut" stdDeviation="2"/><feColorMatrix in="blurOut" result="blurOut2" type="matrix" values="0 0 0 0 0 0 0 0 0 0 0 0 0 0 0 0 0 0 .4 0"/><feOffset dx="4" dy="4" in="blurOut2" result="blurOut3"/><feBlend in="SourceGraphic" in2="blurOut3" mode="normal"/></filter></defs><g><rect fill="#FEFEFE" height="519" style="stroke:none;stroke-width:1;" width="1152" x="0" y="0"/><text fill="#000000" font-family="sans-serif" font-size="14" font-weight="bold" lengthAdjust="spacing" textLength="98" x="520.1641" y="23.5352">&#23457;&#25209;&#35760;&#24405;&#29366;&#24577;&#26426;</text><g id="pending"><rect fill="#E3F2FD" filter="url(#f10u0abit81ulg)" height="81.2422" rx="12.5" ry="12.5" style="stroke:#1565C0;stroke-width:0.5;" width="88.8276" x="614.59" y="140.4883"/><line style="stroke:#1565C0;stroke-width:0.5;" x1="614.59" x2="703.4176" y1="165.7988" y2="165.7988"/><text fill="#000000" font-family="sans-serif" font-size="13" lengthAdjust="spacing" textLength="51.6064" x="633.2006" y="158.0566">pending</text><text fill="#000000" font-family="sans-serif" font-size="13" lengthAdjust="spacing" textLength="60.1133" x="619.59" y="183.3672">&#9203; &#24050;&#25552;&#20132;</text><text fill="#000000" font-family="sans-serif" font-size="13" lengthAdjust="spacing" textLength="52" x="619.59" y="198.6777">&#31561;&#24453;&#23457;&#25209;</text><text fill="#000000" font-family="sans-serif" font-size="13" lengthAdjust="spacing" textLength="68.8276" x="619.59" y="213.9883">AI &#20998;&#26512;&#23436;&#25104;</text></g><g id="approved"><rect fill="#E3F2FD" filter="url(#f10u0abit81ulg)" height="65.9316" rx="12.5" ry="12.5" style="stroke:#1565C0;stroke-width:0.5;" width="93.1133" x="231.44" y="298.7383"/><line style="stroke:#1565C0;stroke-width:0.5;" x1="231.44" x2="324.5533" y1="324.0488" y2="324.0488"/><text fill="#000000" font-family="sans-serif" font-size="13" lengthAdjust="spacing" textLength="59.0015" x="248.4959" y="316.3066">approved</text><text fill="#000000" font-family="sans-serif" font-size="13" lengthAdjust="spacing" textLength="73.1133" x="236.44" y="341.6172">&#9989; &#23457;&#25209;&#36890;&#36807;</text><text fill="#000000" font-family="sans-serif" font-size="13" lengthAdjust="spacing" textLength="60.4551" x="236.44" y="356.9277">(&#26368;&#32456;&#29366;&#24577;)</text></g><g id="rejected"><rect fill="#E3F2FD" filter="url(#f10u0abit81ulg)" height="65.9316" rx="12.5" ry="12.5" style="stroke:#1565C0;stroke-width:0.5;" width="93.1133" x="359.44" y="298.7383"/><line style="stroke:#1565C0;stroke-width:0.5;" x1="359.44" x2="452.5533" y1="324.0488" y2="324.0488"/><text fill="#000000" font-family="sans-serif" font-size="13" lengthAdjust="spacing" textLength="50.7051" x="380.6441" y="316.3066">rejected</text><text fill="#000000" font-family="sans-serif" font-size="13" lengthAdjust="spacing" textLength="73.1133" x="364.44" y="341.6172">&#10060; &#23457;&#25209;&#39539;&#22238;</text><text fill="#000000" font-family="sans-serif" font-size="13" lengthAdjust="spacing" textLength="60.4551" x="364.44" y="356.9277">(&#26368;&#32456;&#29366;&#24577;)</text></g><g id="needs_revision"><rect fill="#E3F2FD" filter="url(#f10u0abit81ulg)" height="50.6211" rx="12.5" ry="12.5" style="stroke:#1565C0;stroke-width:0.5;" width="113.3486" x="602.33" y="306.3883"/><line style="stroke:#1565C0;stroke-width:0.5;" x1="602.33" x2="715.6786" y1="331.6988" y2="331.6988"/><text fill="#000000" font-family="sans-serif" font-size="13" lengthAdjust="spacing" textLength="93.3486" x="612.33" y="323.9566">needs_revision</text><text fill="#000000" font-family="sans-serif" font-size="13" lengthAdjust="spacing" textLength="91.8633" x="607.33" y="349.2672">&#9888;&#65039; &#38656;&#20462;&#25913;&#34917;&#20132;</text></g><g id="cancelled"><rect fill="#E3F2FD" filter="url(#f10u0abit81ulg)" height="65.9316" rx="12.5" ry="12.5" style="stroke:#1565C0;stroke-width:0.5;" width="80.4551" x="760.77" y="441.6683"/><line style="stroke:#1565C0;stroke-width:0.5;" x1="760.77" x2="841.2251" y1="466.9788" y2="466.9788"/><text fill="#000000" font-family="sans-serif" font-size="13" lengthAdjust="spacing" textLength="58.7476" x="771.6238" y="459.2366">cancelled</text><text fill="#000000" font-family="sans-serif" font-size="13" lengthAdjust="spacing" textLength="60.1133" x="765.77" y="484.5472">&#128683; &#24050;&#21462;&#28040;</text><text fill="#000000" font-family="sans-serif" font-size="13" lengthAdjust="spacing" textLength="60.4551" x="765.77" y="499.8577">(&#26368;&#32456;&#29366;&#24577;)</text></g><g id="withdrawn"><rect fill="#E3F2FD" filter="url(#f10u0abit81ulg)" height="50.6211" rx="12.5" ry="12.5" style="stroke:#1565C0;stroke-width:0.5;" width="85.8633" x="935.07" y="306.3883"/><line style="stroke:#1565C0;stroke-width:0.5;" x1="935.07" x2="1020.9333" y1="331.6988" y2="331.6988"/><text fill="#000000" font-family="sans-serif" font-size="13" lengthAdjust="spacing" textLength="65.4697" x="945.2668" y="323.9566">withdrawn</text><text fill="#000000" font-family="sans-serif" font-size="13" lengthAdjust="spacing" textLength="65.8633" x="940.07" y="349.2672">&#8617;&#65039; &#24050;&#25764;&#22238;</text></g><ellipse cx="659" cy="53.4883" fill="#222222" filter="url(#f10u0abit81ulg)" rx="10" ry="10" style="stroke:#222222;stroke-width:1;"/><g class="entity" data-entity="GMN2" data-source-line="38" data-uid="ent0003" id="entity_GMN2"><path d="M738.67,153.1483 L738.67,177.1183 L703.77,181.1183 L738.67,185.1183 L738.67,209.0799 A0,0 0 0 0 738.67,209.0799 L1145.3282,209.0799 A0,0 0 0 0 1145.3282,209.0799 L1145.3282,163.1483 L1135.3282,153.1483 L738.67,153.1483 A0,0 0 0 0 738.67,153.1483" fill="#FEFFDD" filter="url(#f10u0abit81ulg)" style="stroke:#181818;stroke-width:0.5;"/><path d="M1135.3282,153.1483 L1135.3282,163.1483 L1145.3282,163.1483 L1135.3282,153.1483" fill="#FEFFDD" style="stroke:#181818;stroke-width:0.5;"/><text fill="#000000" font-family="sans-serif" font-size="13" lengthAdjust="spacing" textLength="198.2817" x="744.67" y="170.7166">current_stage &#23383;&#27573;&#36861;&#36394;&#24403;&#21069;&#38454;&#27573;:</text><text fill="#000000" font-family="sans-serif" font-size="13" lengthAdjust="spacing" textLength="385.6582" x="744.67" y="186.0272">dept_review &#8594; finance_review &#8594; school_review &#8594; completed</text><text fill="#000000" font-family="sans-serif" font-size="13" lengthAdjust="spacing" textLength="238.564" x="744.67" y="201.3377">&#37329;&#39069; &#8804; 5000 &#26102;&#33258;&#21160;&#36339;&#36807; school_review</text></g><g class="entity" data-entity="GMN5" data-source-line="44" data-uid="ent0006" id="entity_GMN5"><path d="M6,311.3883 L6,352.0094 A0,0 0 0 0 6,352.0094 L196,352.0094 A0,0 0 0 0 196,352.0094 L196,335.6983 L231.15,331.6983 L196,327.6983 L196,321.3883 L186,311.3883 L6,311.3883 A0,0 0 0 0 6,311.3883" fill="#FEFFDD" filter="url(#f10u0abit81ulg)" style="stroke:#181818;stroke-width:0.5;"/><path d="M186,311.3883 L186,321.3883 L196,321.3883 L186,311.3883" fill="#FEFFDD" style="stroke:#181818;stroke-width:0.5;"/><text fill="#000000" font-family="sans-serif" font-size="13" lengthAdjust="spacing" textLength="169" x="12" y="328.9566">&#22810;&#38454;&#27573;&#23457;&#25209;&#20013;&#65292;&#27599;&#38454;&#27573;&#23457;&#25209;&#20154;</text><text fill="#000000" font-family="sans-serif" font-size="13" lengthAdjust="spacing" textLength="154.1147" x="12" y="344.2672">&#37117;&#36890;&#36807;&#21518;&#25165;&#26368;&#32456; approved</text></g><!--link *start* to pending--><g class="link" data-entity-1="*start*" data-entity-2="pending" data-source-line="13" data-uid="lnk3" id="link_*start*_pending"><path d="M659,63.9383 C659,79.9083 659,107.1583 659,134.0083" fill="none" id="*start*-to-pending" style="stroke:#181818;stroke-width:1;"/><polygon fill="#181818" points="659,140.0083,663,131.0083,659,135.0083,655,131.0083,659,140.0083" style="stroke:#181818;stroke-width:1;"/><text fill="#000000" font-family="sans-serif" font-size="13" lengthAdjust="spacing" textLength="78" x="660" y="107.0566">&#29992;&#25143;&#25552;&#20132;&#30003;&#35831;</text></g><!--link pending to approved--><g class="link" data-entity-1="pending" data-entity-2="approved" data-source-line="17" data-uid="lnk4" id="link_pending_approved"><path d="M614.25,182.9383 C549.75,186.0283 428.99,199.0783 343,251.7383 C324.22,263.2383 311.7996,277.1812 300.4596,293.6012" fill="none" id="pending-to-approved" style="stroke:#181818;stroke-width:1;"/><polygon fill="#181818" points="297.05,298.5383,305.4558,293.4058,299.8914,294.4241,298.8731,288.8596,297.05,298.5383" style="stroke:#181818;stroke-width:1;"/><text fill="#000000" font-family="sans-serif" font-size="13" lengthAdjust="spacing" textLength="65" x="344" y="265.3066">&#23457;&#25209;&#20154;&#36890;&#36807;</text></g><!--link pending to rejected--><g class="link" data-entity-1="pending" data-entity-2="rejected" data-source-line="18" data-uid="lnk5" id="link_pending_rejected"><path d="M614.09,183.4383 C562.44,187.4183 478.45,201.7683 429,251.7383 C416.75,264.1183 411.9526,276.7126 409.2426,292.7026" fill="none" id="pending-to-rejected" style="stroke:#181818;stroke-width:1;"/><polygon fill="#181818" points="408.24,298.6183,413.6876,290.4132,409.0755,293.6886,405.8001,289.0764,408.24,298.6183" style="stroke:#181818;stroke-width:1;"/><text fill="#000000" font-family="sans-serif" font-size="13" lengthAdjust="spacing" textLength="65" x="430" y="265.3066">&#23457;&#25209;&#20154;&#39539;&#22238;</text></g><!--link pending to needs_revision--><g class="link" data-entity-1="pending" data-entity-2="needs_revision" data-source-line="19" data-uid="lnk6" id="link_pending_needs_revision"><path d="M614.5,189.6583 C560.78,200.8283 481.02,225.2983 510,268.7383 C530.45,299.3783 563.3638,313.5058 596.2238,321.3458" fill="none" id="pending-to-needs_revision" style="stroke:#181818;stroke-width:1;"/><polygon fill="#181818" points="602.06,322.7383,594.234,316.7588,597.1965,321.5779,592.3774,324.5404,602.06,322.7383" style="stroke:#181818;stroke-width:1;"/><text fill="#000000" font-family="sans-serif" font-size="13" lengthAdjust="spacing" textLength="104" x="511" y="265.3066">&#23457;&#25209;&#20154;&#26631;&#35760;&#38656;&#20462;&#25913;</text></g><!--link needs_revision to pending--><g class="link" data-entity-1="needs_revision" data-entity-2="pending" data-source-line="27" data-uid="lnk9" id="link_needs_revision_pending"><path d="M657.53,305.9883 C656.92,294.6383 656.3,281.0083 656,268.7383 C655.63,253.5383 655.7702,242.8531 656.3802,228.2131" fill="none" id="needs_revision-to-pending" style="stroke:#181818;stroke-width:1;"/><polygon fill="#181818" points="656.63,222.2183,652.2588,231.044,656.4218,227.2139,660.2519,231.377,656.63,222.2183" style="stroke:#181818;stroke-width:1;"/><text fill="#000000" font-family="sans-serif" font-size="13" lengthAdjust="spacing" textLength="117" x="657" y="265.3066">&#29992;&#25143;&#20462;&#25913;&#21518;&#37325;&#26032;&#25552;&#20132;</text></g><!--link pending to cancelled--><g class="link" data-entity-1="pending" data-entity-2="cancelled" data-source-line="20" data-uid="lnk7" id="link_pending_cancelled"><path d="M703.74,211.3883 C709.5,214.9483 715.36,218.4783 721,221.7383 C746.14,236.2283 762.71,227.7183 779,251.7383 C818.01,309.2383 813.9526,389.2549 807.5526,435.4949" fill="none" id="pending-to-cancelled" style="stroke:#181818;stroke-width:1;"/><polygon fill="#181818" points="806.73,441.4383,811.9261,433.0717,807.4155,436.4855,804.0017,431.9749,806.73,441.4383" style="stroke:#181818;stroke-width:1;"/><text fill="#000000" font-family="sans-serif" font-size="13" lengthAdjust="spacing" textLength="97.8174" x="811.64" y="336.7666">&#31995;&#32479;/&#31649;&#29702;&#21592;&#21462;&#28040;</text></g><!--link pending to withdrawn--><g class="link" data-entity-1="pending" data-entity-2="withdrawn" data-source-line="21" data-uid="lnk8" id="link_pending_withdrawn"><path d="M703.9,212.7983 C709.53,216.0483 715.31,219.1183 721,221.7383 C762.76,240.9583 777.28,234.7283 820,251.7383 C831.57,256.3383 886.7726,284.197 929.4526,305.917" fill="none" id="pending-to-withdrawn" style="stroke:#181818;stroke-width:1;"/><polygon fill="#181818" points="934.8,308.6383,928.5931,300.9914,930.3438,306.3705,924.9647,308.1213,934.8,308.6383" style="stroke:#181818;stroke-width:1;"/><text fill="#000000" font-family="sans-serif" font-size="13" lengthAdjust="spacing" textLength="78" x="855.28" y="265.3066">&#29992;&#25143;&#20027;&#21160;&#25764;&#22238;</text></g><!--link withdrawn to pending--><g class="link" data-entity-1="withdrawn" data-entity-2="pending" data-source-line="33" data-uid="lnk11" id="link_withdrawn_pending"><path d="M972.71,305.9883 C967.52,287.9983 957.71,264.6283 940,251.7383 C860.57,193.9183 813.21,255.6383 721,221.7383 C715.25,219.6183 714.7528,219.7429 709.1628,216.7329" fill="none" id="withdrawn-to-pending" style="stroke:#181818;stroke-width:1;"/><polygon fill="#181818" points="703.88,213.8883,709.9078,221.6771,708.2824,216.2588,713.7006,214.6333,703.88,213.8883" style="stroke:#181818;stroke-width:1;"/><text fill="#000000" font-family="sans-serif" font-size="13" lengthAdjust="spacing" textLength="117" x="955.68" y="265.3066">&#29992;&#25143;&#32534;&#36753;&#21518;&#37325;&#26032;&#25552;&#20132;</text></g><!--link needs_revision to cancelled--><g class="link" data-entity-1="needs_revision" data-entity-2="cancelled" data-source-line="28" data-uid="lnk10" id="link_needs_revision_cancelled"><path d="M676.01,357.4783 C687.74,373.7183 704.18,394.9583 721,411.6683 C732.96,423.5483 742.4311,431.6104 755.5511,441.5704" fill="none" id="needs_revision-to-cancelled" style="stroke:#181818;stroke-width:1;"/><polygon fill="#181818" points="760.33,445.1983,755.5802,436.5705,756.3476,442.175,750.743,442.9424,760.33,445.1983" style="stroke:#181818;stroke-width:1;"/><text fill="#000000" font-family="sans-serif" font-size="13" lengthAdjust="spacing" textLength="52" x="722" y="408.2366">&#29992;&#25143;&#25918;&#24323;</text></g><!--link withdrawn to cancelled--><g class="link" data-entity-1="withdrawn" data-entity-2="cancelled" data-source-line="34" data-uid="lnk12" id="link_withdrawn_cancelled"><path d="M947.17,357.2483 C917.85,380.5883 878.2746,412.1119 846.1346,437.6919" fill="none" id="withdrawn-to-cancelled" style="stroke:#181818;stroke-width:1;"/><polygon fill="#181818" points="841.44,441.4283,850.9728,438.9534,845.3522,438.3146,845.991,432.6939,841.44,441.4283" style="stroke:#181818;stroke-width:1;"/><text fill="#000000" font-family="sans-serif" font-size="13" lengthAdjust="spacing" textLength="52" x="901.1" y="408.2366">&#29992;&#25143;&#25918;&#24323;</text></g><!--SRC=[fLDDJzj04BtxLwpK0sqbr5143qYjr58YzTnZgP1hRn8Niniv3f5w2aAG144JQ0eq3LzLAW4j0JKY2Gw1_s9br_Q9_eIkiqvg1pXX-s3jl3Vptipi47X-ZqSO0lIRGQhxJhe4p7GHi5-QExUhfwJzrLgkq_GyBHiCTQyYGc96GN5H4sV11r6QYMeuYUG9h68DF0XFkgyF8SE8c5JrC4RwM-KJ12EZlc0Y9ieufQ0eqBKaz0TqKOUl1fDFZeQVXb_VW65DXfe76HbxDZOH4WHTqLLuXttXtUFtO7Zu1OX39Bl5nu5LFA3P1iqNEaR5AjRiamPpwIRtOSny3P367mwQGjPnZbmkyWfJwEKRGB9BTAT0gYiqMn247i-j8yRZ6fw3Cal2yHt3O1Eohp81c0O_GaaVW1tMoFUT00n1A2UcDJYd91IC_62wbs5UdNAwSrMbnVC0InAH15MrczsgjQpMxXEhkcyLbiZQ5iblq7es04yfUapMn1JgDwVJR97b0xfUSVLupV4PCykBdX3kR0ezfEMqrSholZ_o63wFvlPAZz4rUOFXKMxuDKjxryqywFkqzt-oYGW3kDi6pF6ayDd9hDADKpxAsuY1Rl7TA5wIYuMU9d_yxsxfbxiOl8jtkV0tr5mwT0suoyJR-JzucshhOiE-N1jK7UJSBNW8cCKq-m2fb9ojEgsUqRDvk_sRrWwSpB8N511sXwD4Oph0aPu20G0fgMaGwTFCH9JTf-DDnhUlsdRpYBI_aDmgppZEa3ACwzqcmXGpk0uY2d8r-OyIKWnZrNyYuTcu2ja-i0HEPitviGtCN0MCXK8XG3VhTkQ8xPpTgB652h85fX2ueWKkNOMHhlBUHh9yVR_U_MWUNr-iq9DyuD0mtCeBRRwqhCSqjyhdzpzLlzG_]--></g></svg>