<svg xmlns="http://www.w3.org/2000/svg" xmlns:xlink="http://www.w3.org/1999/xlink" contentStyleType="text/css" data-diagram-type="DESCRIPTION" height="823px" preserveAspectRatio="none" style="width:2037px;height:823px;background:#FEFEFE;" version="1.1" viewBox="0 0 2037 823" width="2037px" zoomAndPan="magnify"><title>&#26234;&#23457;&#36890; &#37096;&#32626;&#26550;&#26500;&#22270; v5.0</title><defs><filter height="300%" id="f189k0giowf4ev" width="300%" x="-1" y="-1"><feGaussianBlur result="blurOut" stdDeviation="2"/><feColorMatrix in="blurOut" result="blurOut2" type="matrix" values="0 0 0 0 0 0 0 0 0 0 0 0 0 0 0 0 0 0 .4 0"/><feOffset dx="4" dy="4" in="blurOut2" result="blurOut3"/><feBlend in="SourceGraphic" in2="blurOut3" mode="normal"/></filter></defs><g><rect fill="#FEFEFE" height="823" style="stroke:none;stroke-width:1;" width="2037" x="0" y="0"/><text fill="#000000" font-family="sans-serif" font-size="14" font-weight="bold" lengthAdjust="spacing" textLength="151.4639" x="936.1466" y="23.5352">&#26234;&#23457;&#36890; &#37096;&#32626;&#26550;&#26500;&#22270; v5.0</text><!--cluster Nginx--><g class="cluster" data-entity="Nginx" data-source-line="17" data-uid="ent0003" id="cluster_Nginx"><polygon fill="#E8EAF6" filter="url(#f189k0giowf4ev)" points="127.41,167.6183,137.41,157.6183,519.41,157.6183,519.41,275.8783,509.41,285.8783,127.41,285.8783,127.41,167.6183" style="stroke:#181818;stroke-width:1;"/><line style="stroke:#181818;stroke-width:1;" x1="509.41" x2="519.41" y1="167.6183" y2="157.6183"/><line style="stroke:#181818;stroke-width:1;" x1="127.41" x2="509.41" y1="167.6183" y2="167.6183"/><line style="stroke:#181818;stroke-width:1;" x1="509.41" x2="509.41" y1="167.6183" y2="285.8783"/><text fill="#000000" font-family="sans-serif" font-size="12" font-weight="bold" lengthAdjust="spacing" textLength="58.7637" x="290.0282" y="182.2198">Nginx :80</text></g><!--cluster Backend--><g class="cluster" data-entity="Backend" data-source-line="22" data-uid="ent0006" id="cluster_Backend"><polygon fill="#E8EAF6" filter="url(#f189k0giowf4ev)" points="382.41,373.8783,392.41,363.8783,837.41,363.8783,837.41,670.4183,827.41,680.4183,382.41,680.4183,382.41,373.8783" style="stroke:#181818;stroke-width:1;"/><line style="stroke:#181818;stroke-width:1;" x1="827.41" x2="837.41" y1="373.8783" y2="363.8783"/><line style="stroke:#181818;stroke-width:1;" x1="382.41" x2="827.41" y1="373.8783" y2="373.8783"/><line style="stroke:#181818;stroke-width:1;" x1="827.41" x2="827.41" y1="373.8783" y2="680.4183"/><text fill="#000000" font-family="sans-serif" font-size="12" font-weight="bold" lengthAdjust="spacing" textLength="106.6172" x="552.6014" y="388.4798">&#21518;&#31471;&#23481;&#22120; (FastAPI)</text></g><!--cluster Inference--><g class="cluster" data-entity="Inference" data-source-line="29" data-uid="ent0011" id="cluster_Inference"><polygon fill="#E8EAF6" filter="url(#f189k0giowf4ev)" points="1602.41,562.1483,1612.41,552.1483,1957.41,552.1483,1957.41,670.4183,1947.41,680.4183,1602.41,680.4183,1602.41,562.1483" style="stroke:#181818;stroke-width:1;"/><line style="stroke:#181818;stroke-width:1;" x1="1947.41" x2="1957.41" y1="562.1483" y2="552.1483"/><line style="stroke:#181818;stroke-width:1;" x1="1602.41" x2="1947.41" y1="562.1483" y2="562.1483"/><line style="stroke:#181818;stroke-width:1;" x1="1947.41" x2="1947.41" y1="562.1483" y2="680.4183"/><text fill="#000000" font-family="sans-serif" font-size="12" font-weight="bold" lengthAdjust="spacing" textLength="119.6543" x="1716.0829" y="576.7498">&#25512;&#29702;&#23481;&#22120; (llama.cpp)</text></g><!--cluster Training--><g class="cluster" data-entity="Training" data-source-line="34" data-uid="ent0014" id="cluster_Training"><polygon fill="#E8EAF6" filter="url(#f189k0giowf4ev)" points="1106.41,562.1483,1116.41,552.1483,1562.41,552.1483,1562.41,670.4183,1552.41,680.4183,1106.41,680.4183,1106.41,562.1483" style="stroke:#181818;stroke-width:1;"/><line style="stroke:#181818;stroke-width:1;" x1="1552.41" x2="1562.41" y1="562.1483" y2="552.1483"/><line style="stroke:#181818;stroke-width:1;" x1="1106.41" x2="1552.41" y1="562.1483" y2="562.1483"/><line style="stroke:#181818;stroke-width:1;" x1="1552.41" x2="1552.41" y1="562.1483" y2="680.4183"/><text fill="#000000" font-family="sans-serif" font-size="12" font-weight="bold" lengthAdjust="spacing" textLength="84.8496" x="1287.9852" y="576.7498">&#35757;&#32451;&#29615;&#22659; (&#26412;&#22320;)</text></g><!--entity Browser--><g class="entity" data-entity="Browser" data-source-line="14" data-uid="ent0002" id="entity_Browser"><polygon fill="#E8EAF6" filter="url(#f189k0giowf4ev)" points="461.41,53.4883,471.41,43.4883,561.41,43.4883,561.41,77.6211,551.41,87.6211,461.41,87.6211,461.41,53.4883" style="stroke:#181818;stroke-width:0.5;"/><line style="stroke:#181818;stroke-width:0.5;" x1="551.41" x2="561.41" y1="53.4883" y2="43.4883"/><line style="stroke:#181818;stroke-width:0.5;" x1="461.41" x2="551.41" y1="53.4883" y2="53.4883"/><line style="stroke:#181818;stroke-width:0.5;" x1="551.41" x2="551.41" y1="53.4883" y2="87.6211"/><text fill="#000000" font-family="sans-serif" font-size="12" lengthAdjust="spacing" textLength="60" x="476.41" y="75.0898">&#29992;&#25143;&#27983;&#35272;&#22120;</text></g><!--entity Proxy--><g class="entity" data-entity="Proxy" data-source-line="18" data-uid="ent0004" id="entity_Proxy"><rect fill="#E8F5E9" filter="url(#f189k0giowf4ev)" height="58.2656" rx="2.5" ry="2.5" style="stroke:#181818;stroke-width:0.5;" width="178.7852" x="151.02" y="203.6183"/><rect fill="#E8F5E9" height="10" style="stroke:#181818;stroke-width:0.5;" width="15" x="309.8052" y="208.6183"/><rect fill="#E8F5E9" height="2" style="stroke:#181818;stroke-width:0.5;" width="4" x="307.8052" y="210.6183"/><rect fill="#E8F5E9" height="2" style="stroke:#181818;stroke-width:0.5;" width="4" x="307.8052" y="214.6183"/><text fill="#000000" font-family="sans-serif" font-size="12" lengthAdjust="spacing" textLength="48" x="166.02" y="235.2198">&#21453;&#21521;&#20195;&#29702;</text><text fill="#000000" font-family="sans-serif" font-size="12" lengthAdjust="spacing" textLength="138.7852" x="166.02" y="249.3527">/api/* &#8594; backend:8080</text></g><!--entity Static--><g class="entity" data-entity="Static" data-source-line="19" data-uid="ent0005" id="entity_Static"><rect fill="#E8F5E9" filter="url(#f189k0giowf4ev)" height="58.2656" rx="2.5" ry="2.5" style="stroke:#181818;stroke-width:0.5;" width="112" x="364.41" y="203.6183"/><rect fill="#E8F5E9" height="10" style="stroke:#181818;stroke-width:0.5;" width="15" x="456.41" y="208.6183"/><rect fill="#E8F5E9" height="2" style="stroke:#181818;stroke-width:0.5;" width="4" x="454.41" y="210.6183"/><rect fill="#E8F5E9" height="2" style="stroke:#181818;stroke-width:0.5;" width="4" x="454.41" y="214.6183"/><text fill="#000000" font-family="sans-serif" font-size="12" lengthAdjust="spacing" textLength="72" x="379.41" y="235.2198">&#21069;&#31471;&#38745;&#24577;&#25991;&#20214;</text><text fill="#000000" font-family="sans-serif" font-size="12" lengthAdjust="spacing" textLength="64.8223" x="379.41" y="249.3527">React build</text></g><!--entity Main--><g class="entity" data-entity="Main" data-source-line="23" data-uid="ent0007" id="entity_Main"><rect fill="#E8F5E9" filter="url(#f189k0giowf4ev)" height="58.2656" rx="2.5" ry="2.5" style="stroke:#181818;stroke-width:0.5;" width="148.9375" x="446.95" y="409.8783"/><rect fill="#E8F5E9" height="10" style="stroke:#181818;stroke-width:0.5;" width="15" x="575.8875" y="414.8783"/><rect fill="#E8F5E9" height="2" style="stroke:#181818;stroke-width:0.5;" width="4" x="573.8875" y="416.8783"/><rect fill="#E8F5E9" height="2" style="stroke:#181818;stroke-width:0.5;" width="4" x="573.8875" y="420.8783"/><text fill="#000000" font-family="sans-serif" font-size="12" lengthAdjust="spacing" textLength="46.3652" x="461.95" y="441.4798">main.py</text><text fill="#000000" font-family="sans-serif" font-size="12" lengthAdjust="spacing" textLength="108.9375" x="461.95" y="455.6127">(&#36335;&#30001;&#27880;&#20876; + &#20013;&#38388;&#20214;)</text></g><!--entity Routers--><g class="entity" data-entity="Routers" data-source-line="24" data-uid="ent0008" id="entity_Routers"><rect fill="#E8F5E9" filter="url(#f189k0giowf4ev)" height="44.1328" rx="2.5" ry="2.5" style="stroke:#181818;stroke-width:0.5;" width="119.377" x="630.73" y="416.9483"/><rect fill="#E8F5E9" height="10" style="stroke:#181818;stroke-width:0.5;" width="15" x="730.107" y="421.9483"/><rect fill="#E8F5E9" height="2" style="stroke:#181818;stroke-width:0.5;" width="4" x="728.107" y="423.9483"/><rect fill="#E8F5E9" height="2" style="stroke:#181818;stroke-width:0.5;" width="4" x="728.107" y="427.9483"/><text fill="#000000" font-family="sans-serif" font-size="12" lengthAdjust="spacing" textLength="79.377" x="645.73" y="448.5498">14 &#20010; Routers</text></g><!--entity Svc--><g class="entity" data-entity="Svc" data-source-line="25" data-uid="ent0009" id="entity_Svc"><rect fill="#E8F5E9" filter="url(#f189k0giowf4ev)" height="58.2656" rx="2.5" ry="2.5" style="stroke:#181818;stroke-width:0.5;" width="230.1191" x="406.35" y="598.1483"/><rect fill="#E8F5E9" height="10" style="stroke:#181818;stroke-width:0.5;" width="15" x="616.4691" y="603.1483"/><rect fill="#E8F5E9" height="2" style="stroke:#181818;stroke-width:0.5;" width="4" x="614.4691" y="605.1483"/><rect fill="#E8F5E9" height="2" style="stroke:#181818;stroke-width:0.5;" width="4" x="614.4691" y="609.1483"/><text fill="#000000" font-family="sans-serif" font-size="12" lengthAdjust="spacing" textLength="46.6875" x="421.35" y="629.7498">Services</text><text fill="#000000" font-family="sans-serif" font-size="12" lengthAdjust="spacing" textLength="190.1191" x="421.35" y="643.8827">(OCR/&#23457;&#25209;/RAG/&#35268;&#21017;&#24341;&#25806;/&#36890;&#30693;...)</text></g><!--entity Auth--><g class="entity" data-entity="Auth" data-source-line="26" data-uid="ent0010" id="entity_Auth"><rect fill="#E8F5E9" filter="url(#f189k0giowf4ev)" height="58.2656" rx="2.5" ry="2.5" style="stroke:#181818;stroke-width:0.5;" width="134.5234" x="671.15" y="598.1483"/><rect fill="#E8F5E9" height="10" style="stroke:#181818;stroke-width:0.5;" width="15" x="785.6734" y="603.1483"/><rect fill="#E8F5E9" height="2" style="stroke:#181818;stroke-width:0.5;" width="4" x="783.6734" y="605.1483"/><rect fill="#E8F5E9" height="2" style="stroke:#181818;stroke-width:0.5;" width="4" x="783.6734" y="609.1483"/><text fill="#000000" font-family="sans-serif" font-size="12" lengthAdjust="spacing" textLength="43.6289" x="686.15" y="629.7498">auth.py</text><text fill="#000000" font-family="sans-serif" font-size="12" lengthAdjust="spacing" textLength="94.5234" x="686.15" y="643.8827">(JWT + &#27169;&#25311;&#35206;&#30422;)</text></g><!--entity Server--><g class="entity" data-entity="Server" data-source-line="30" data-uid="ent0012" id="entity_Server"><rect fill="#E8F5E9" filter="url(#f189k0giowf4ev)" height="58.2656" rx="2.5" ry="2.5" style="stroke:#181818;stroke-width:0.5;" width="119.4238" x="1626.7" y="598.1483"/><rect fill="#E8F5E9" height="10" style="stroke:#181818;stroke-width:0.5;" width="15" x="1726.1238" y="603.1483"/><rect fill="#E8F5E9" height="2" style="stroke:#181818;stroke-width:0.5;" width="4" x="1724.1238" y="605.1483"/><rect fill="#E8F5E9" height="2" style="stroke:#181818;stroke-width:0.5;" width="4" x="1724.1238" y="609.1483"/><text fill="#000000" font-family="sans-serif" font-size="12" lengthAdjust="spacing" textLength="53.1387" x="1641.7" y="629.7498">server.py</text><text fill="#000000" font-family="sans-serif" font-size="12" lengthAdjust="spacing" textLength="79.4238" x="1641.7" y="643.8827">(GPU&#33258;&#21160;&#26816;&#27979;)</text></g><!--entity API--><g class="entity" data-entity="API" data-source-line="31" data-uid="ent0013" id="entity_API"><rect fill="#E8F5E9" filter="url(#f189k0giowf4ev)" height="58.2656" rx="2.5" ry="2.5" style="stroke:#181818;stroke-width:0.5;" width="132.707" x="1781.06" y="598.1483"/><rect fill="#E8F5E9" height="10" style="stroke:#181818;stroke-width:0.5;" width="15" x="1893.767" y="603.1483"/><rect fill="#E8F5E9" height="2" style="stroke:#181818;stroke-width:0.5;" width="4" x="1891.767" y="605.1483"/><rect fill="#E8F5E9" height="2" style="stroke:#181818;stroke-width:0.5;" width="4" x="1891.767" y="609.1483"/><text fill="#000000" font-family="sans-serif" font-size="12" lengthAdjust="spacing" textLength="92.707" x="1796.06" y="629.7498">OpenAI &#20860;&#23481; API</text><text fill="#000000" font-family="sans-serif" font-size="12" lengthAdjust="spacing" textLength="41.7363" x="1796.06" y="643.8827">:18080</text></g><!--entity Train--><g class="entity" data-entity="Train" data-source-line="35" data-uid="ent0015" id="entity_Train"><rect fill="#E8F5E9" filter="url(#f189k0giowf4ev)" height="58.2656" rx="2.5" ry="2.5" style="stroke:#181818;stroke-width:0.5;" width="140.9688" x="1129.93" y="598.1483"/><rect fill="#E8F5E9" height="10" style="stroke:#181818;stroke-width:0.5;" width="15" x="1250.8988" y="603.1483"/><rect fill="#E8F5E9" height="2" style="stroke:#181818;stroke-width:0.5;" width="4" x="1248.8988" y="605.1483"/><rect fill="#E8F5E9" height="2" style="stroke:#181818;stroke-width:0.5;" width="4" x="1248.8988" y="609.1483"/><text fill="#000000" font-family="sans-serif" font-size="12" lengthAdjust="spacing" textLength="100.9688" x="1144.93" y="629.7498">train_lora_mlx.py</text><text fill="#000000" font-family="sans-serif" font-size="12" lengthAdjust="spacing" textLength="77.918" x="1144.93" y="643.8827">MLX 14B &#20027;&#32447;</text></g><!--entity Merge--><g class="entity" data-entity="Merge" data-source-line="36" data-uid="ent0016" id="entity_Merge"><rect fill="#E8F5E9" filter="url(#f189k0giowf4ev)" height="58.2656" rx="2.5" ry="2.5" style="stroke:#181818;stroke-width:0.5;" width="213.0332" x="1305.9" y="598.1483"/><rect fill="#E8F5E9" height="10" style="stroke:#181818;stroke-width:0.5;" width="15" x="1498.9332" y="603.1483"/><rect fill="#E8F5E9" height="2" style="stroke:#181818;stroke-width:0.5;" width="4" x="1496.9332" y="605.1483"/><rect fill="#E8F5E9" height="2" style="stroke:#181818;stroke-width:0.5;" width="4" x="1496.9332" y="609.1483"/><text fill="#000000" font-family="sans-serif" font-size="12" lengthAdjust="spacing" textLength="173.0332" x="1320.9" y="629.7498">train_lora.py + merge_lora.py</text><text fill="#000000" font-family="sans-serif" font-size="12" lengthAdjust="spacing" textLength="90.9551" x="1320.9" y="643.8827">PEFT &#36328;&#24179;&#21488;&#22791;&#36873;</text></g><!--entity DB--><g class="entity" data-entity="DB" data-source-line="39" data-uid="ent0017" id="entity_DB"><path d="M861.15,608.6483 C861.15,598.6483 911.4098,598.6483 911.4098,598.6483 C911.4098,598.6483 961.6695,598.6483 961.6695,608.6483 L961.6695,645.9139 C961.6695,655.9139 911.4098,655.9139 911.4098,655.9139 C911.4098,655.9139 861.15,655.9139 861.15,645.9139 L861.15,608.6483" fill="#FFF3E0" filter="url(#f189k0giowf4ev)" style="stroke:#181818;stroke-width:0.5;"/><path d="M861.15,608.6483 C861.15,618.6483 911.4098,618.6483 911.4098,618.6483 C911.4098,618.6483 961.6695,618.6483 961.6695,608.6483" fill="none" style="stroke:#181818;stroke-width:0.5;"/><text fill="#000000" font-family="sans-serif" font-size="12" lengthAdjust="spacing" textLength="36.8262" x="871.15" y="634.2498">SQLite</text><text fill="#000000" font-family="sans-serif" font-size="12" lengthAdjust="spacing" textLength="80.5195" x="871.15" y="648.3827">zhishitong.db</text></g><!--entity Uploads--><g class="entity" data-entity="Uploads" data-source-line="40" data-uid="ent0018" id="entity_Uploads"><path d="M999.01,594.1483 L1040.01,594.1483 A3.75,3.75 0 0 1 1042.51,596.6483 L1049.51,615.1483 L1079.8147,615.1483 A2.5,2.5 0 0 1 1082.3147,617.6483 L1082.3147,657.9139 A2.5,2.5 0 0 1 1079.8147,660.4139 L999.01,660.4139 A2.5,2.5 0 0 1 996.51,657.9139 L996.51,596.6483 A2.5,2.5 0 0 1 999.01,594.1483" fill="#F1F1F1" filter="url(#f189k0giowf4ev)" style="stroke:#181818;stroke-width:0.5;"/><line style="stroke:#181818;stroke-width:0.5;" x1="996.51" x2="1049.51" y1="615.1483" y2="615.1483"/><text fill="#000000" font-family="sans-serif" font-size="12" lengthAdjust="spacing" textLength="52.4297" x="1006.51" y="633.7498">uploads/</text><text fill="#000000" font-family="sans-serif" font-size="12" lengthAdjust="spacing" textLength="55.8047" x="1006.51" y="647.8827">(&#25991;&#20214;&#23384;&#20648;)</text></g><!--entity Models--><g class="entity" data-entity="Models" data-source-line="41" data-uid="ent0019" id="entity_Models"><path d="M1629.07,742.6183 L1670.07,742.6183 A3.75,3.75 0 0 1 1672.57,745.1183 L1679.57,763.6183 L1721.7634,763.6183 A2.5,2.5 0 0 1 1724.2634,766.1183 L1724.2634,806.3839 A2.5,2.5 0 0 1 1721.7634,808.8839 L1629.07,808.8839 A2.5,2.5 0 0 1 1626.57,806.3839 L1626.57,745.1183 A2.5,2.5 0 0 1 1629.07,742.6183" fill="#F1F1F1" filter="url(#f189k0giowf4ev)" style="stroke:#181818;stroke-width:0.5;"/><line style="stroke:#181818;stroke-width:0.5;" x1="1626.57" x2="1679.57" y1="763.6183" y2="763.6183"/><text fill="#000000" font-family="sans-serif" font-size="12" lengthAdjust="spacing" textLength="48.6914" x="1636.57" y="782.2198">models/</text><text fill="#000000" font-family="sans-serif" font-size="12" lengthAdjust="spacing" textLength="67.6934" x="1636.57" y="796.3527">(GGUF &#27169;&#22411;)</text></g><!--entity Data--><g class="entity" data-entity="Data" data-source-line="42" data-uid="ent0020" id="entity_Data"><path d="M949.45,742.6183 L990.45,742.6183 A3.75,3.75 0 0 1 992.95,745.1183 L999.95,763.6183 L1059.3875,763.6183 A2.5,2.5 0 0 1 1061.8875,766.1183 L1061.8875,806.3839 A2.5,2.5 0 0 1 1059.3875,808.8839 L949.45,808.8839 A2.5,2.5 0 0 1 946.95,806.3839 L946.95,745.1183 A2.5,2.5 0 0 1 949.45,742.6183" fill="#F1F1F1" filter="url(#f189k0giowf4ev)" style="stroke:#181818;stroke-width:0.5;"/><line style="stroke:#181818;stroke-width:0.5;" x1="946.95" x2="999.95" y1="763.6183" y2="763.6183"/><text fill="#000000" font-family="sans-serif" font-size="12" lengthAdjust="spacing" textLength="31.5879" x="956.95" y="782.2198">data/</text><text fill="#000000" font-family="sans-serif" font-size="12" lengthAdjust="spacing" textLength="84.9375" x="956.95" y="796.3527">(&#30693;&#35782;&#24211; + &#35821;&#26009;)</text></g><g class="entity" data-entity="GMN30" data-source-line="55" data-uid="ent0031" id="entity_GMN30"><path d="M6,419.8783 L6,458.1439 L358.8281,458.1439 L358.8281,429.8783 L348.8281,419.8783 L6,419.8783" fill="#FEFFDD" filter="url(#f189k0giowf4ev)" style="stroke:#181818;stroke-width:0.5;"/><path d="M348.8281,419.8783 L348.8281,429.8783 L358.8281,429.8783 L348.8281,419.8783" fill="#FEFFDD" style="stroke:#181818;stroke-width:1;"/><text fill="#000000" font-family="sans-serif" font-size="12" lengthAdjust="spacing" textLength="133.0137" x="12" y="436.4798">docker compose up -d</text><text fill="#000000" font-family="sans-serif" font-size="12" lengthAdjust="spacing" textLength="331.8281" x="12" y="450.6127">&#38142;&#24335;&#21551;&#21160;: DB(health) &#8594; llama(health) &#8594; backend &#8594; nginx</text></g><g class="entity" data-entity="GMN33" data-source-line="60" data-uid="ent0034" id="entity_GMN33"><path d="M1875.73,735.4183 L1875.73,816.0823 L2023.0991,816.0823 L2023.0991,745.4183 L2013.0991,735.4183 L1875.73,735.4183" fill="#FEFFDD" filter="url(#f189k0giowf4ev)" style="stroke:#181818;stroke-width:0.5;"/><path d="M2013.0991,735.4183 L2013.0991,745.4183 L2023.0991,745.4183 L2013.0991,735.4183" fill="#FEFFDD" style="stroke:#181818;stroke-width:1;"/><text fill="#000000" font-family="sans-serif" font-size="12" lengthAdjust="spacing" textLength="79.2129" x="1881.73" y="752.0198">GPU &#33258;&#21160;&#26816;&#27979;:</text><text fill="#000000" font-family="sans-serif" font-size="12" lengthAdjust="spacing" textLength="126.3691" x="1881.73" y="766.1527">Apple Silicon &#8594; Metal</text><text fill="#000000" font-family="sans-serif" font-size="12" lengthAdjust="spacing" textLength="94.3711" x="1881.73" y="780.2855">NVIDIA &#8594; CUDA</text><text fill="#000000" font-family="sans-serif" font-size="12" lengthAdjust="spacing" textLength="83.6133" x="1881.73" y="794.4183">AMD &#8594; ROCm</text><text fill="#000000" font-family="sans-serif" font-size="12" lengthAdjust="spacing" textLength="78.4629" x="1881.73" y="808.5511">&#26080;GPU &#8594; CPU</text></g><!--link Browser to Nginx--><g class="link" data-entity-1="Browser" data-entity-2="Nginx" data-source-line="44" data-uid="lnk21" id="link_Browser_Nginx"><path d="M511.41,87.8083 C511.41,98.7883 511.41,113.0814 511.41,128.392 C511.41,136.0473 511.41,143.957 511.41,151.8341 C511.41,152.8188 511.41,153.8029 511.41,154.786 C511.41,155.2775 511.41,155.7688 511.41,156.2597 C511.41,156.5051 511.41,150.7505 511.41,150.9958" fill="none" id="Browser-to-Nginx" style="stroke:#181818;stroke-width:1;"/><polygon fill="#181818" points="511.41,156.9958,515.41,147.9958,511.41,151.9958,507.41,147.9958,511.41,156.9958" style="stroke:#181818;stroke-width:1;"/><text fill="#000000" font-family="sans-serif" font-size="12" lengthAdjust="spacing" textLength="53.3965" x="512.41" y="130.2198">HTTP :80</text></g><!--link Nginx to Backend--><g class="link" data-entity-1="Nginx" data-entity-2="Backend" data-source-line="45" data-uid="lnk22" id="link_Nginx_Backend"><path d="M519.7169,233.838 C520.0732,233.8461 520.4402,233.8549 520.8177,233.8645 C521.5727,233.8835 522.3696,233.9056 523.2071,233.931 C529.9077,234.1345 539.211,234.556 550.4608,235.4219 C572.9603,237.1536 603.2456,240.6627 636.0663,247.7595 C701.7075,261.9533 777.49,290.4983 821.41,347.8783 C824.37,351.7458 826.7305,355.9984 828.5932,360.4863 C828.826,361.0472 829.0511,361.6119 829.2686,362.1799 C829.3773,362.4639 829.4842,362.7488 829.5892,363.0345 C829.6417,363.1773 827.6616,357.6749 827.7132,357.8182" fill="none" id="Nginx-to-Backend" style="stroke:#181818;stroke-width:1;"/><polygon fill="#181818" points="829.7452,363.4636,830.4607,353.6407,828.0518,358.7591,822.9335,356.3502,829.7452,363.4636" style="stroke:#181818;stroke-width:1;"/><text fill="#000000" font-family="sans-serif" font-size="12" lengthAdjust="spacing" textLength="36.0176" x="811.1" y="322.4798">/api/*</text><text fill="#000000" font-family="sans-serif" font-size="12" lengthAdjust="spacing" textLength="34.1484" x="812.0346" y="336.6127">:8080</text></g><!--link Backend to Inference--><g class="link" data-entity-1="Backend" data-entity-2="Inference" data-source-line="46" data-uid="lnk23" id="link_Backend_Inference"><path d="M838.4655,440.5 C838.8885,440.5228 839.3258,440.5464 839.7773,440.5707 C840.6802,440.6194 841.6396,440.6713 842.6546,440.7262 C850.7746,441.1656 862.4505,441.8026 877.1849,442.6202 C906.6537,444.2554 948.3565,446.6129 998.3136,449.5556 C1098.2278,455.4411 1231.1594,463.6677 1365.2713,473.1395 C1633.495,492.0833 1906.44,516.0083 1929.41,536.1483 C1933.2075,539.477 1936.3733,543.3512 1939.0053,547.5863 C1939.6633,548.6451 1940.288,549.7264 1940.8808,550.8274 C1941.029,551.1026 1941.1752,551.3791 1941.3195,551.6568 C1941.3916,551.7956 1938.7359,546.5904 1938.8071,546.7298" fill="none" id="Backend-to-Inference" style="stroke:#181818;stroke-width:1;"/><polygon fill="#181818" points="1941.5344,552.0741,1941.0064,542.2394,1939.2616,547.6205,1933.8806,545.8758,1941.5344,552.0741" style="stroke:#181818;stroke-width:1;"/><text fill="#000000" font-family="sans-serif" font-size="12" lengthAdjust="spacing" textLength="128.707" x="1901.05" y="510.7498">/v1/chat/completions</text><text fill="#000000" font-family="sans-serif" font-size="12" lengthAdjust="spacing" textLength="41.7363" x="1944.5354" y="524.8827">:18080</text></g><!--link Backend to DB--><g class="link" data-entity-1="Backend" data-entity-2="DB" data-source-line="47" data-uid="lnk24" id="link_Backend_DB"><path d="M837.542,458.4802 C837.6908,458.8182 837.8413,459.1601 837.9934,459.5056 C842.8619,470.5636 849.4113,485.4402 856.6025,501.7745 C870.985,534.4433 885.5169,567.4521 896.7219,592.8971" fill="none" id="Backend-to-DB" style="stroke:#181818;stroke-width:1;"/><polygon fill="#181818" points="899.14,598.3883,899.1736,588.5395,897.1249,593.8123,891.8521,591.7636,899.14,598.3883" style="stroke:#181818;stroke-width:1;"/></g><!--link Backend to Uploads--><g class="link" data-entity-1="Backend" data-entity-2="Uploads" data-source-line="48" data-uid="lnk25" id="link_Backend_Uploads"><path d="M837.4904,443.6984 C837.7137,443.8029 837.9412,443.9095 838.1727,444.0182 C838.6359,444.2357 839.1154,444.4616 839.6109,444.6959 C841.5929,445.6332 843.8299,446.7048 846.2916,447.9047 C856.1381,452.7042 869.5788,459.5564 884.6675,468.077 C914.845,485.1183 951.615,508.8333 979.41,536.1483 C996.58,553.0183 1008.5519,570.3685 1019.2619,588.6885" fill="none" id="Backend-to-Uploads" style="stroke:#181818;stroke-width:1;"/><polygon fill="#181818" points="1022.29,593.8683,1021.201,584.0798,1019.7665,589.5518,1014.2946,588.1173,1022.29,593.8683" style="stroke:#181818;stroke-width:1;"/></g><!--link Inference to Models--><g class="link" data-entity-1="Inference" data-entity-2="Models" data-source-line="49" data-uid="lnk26" id="link_Inference_Models"><path d="M1940.0241,680.6533 C1939.9731,680.7631 1939.9218,680.8727 1939.8703,680.9822 C1939.6642,681.4202 1939.4537,681.856 1939.2387,682.2893 C1938.3788,684.0226 1937.4474,685.7167 1936.4386,687.3563 C1934.4209,690.6356 1932.0938,693.697 1929.41,696.4183 C1900.69,725.5283 1795.8568,750.6688 1730.4568,764.1288" fill="none" id="Inference-to-Models" style="stroke:#181818;stroke-width:1;"/><polygon fill="#181818" points="1724.58,765.3383,1734.2016,767.4419,1729.4774,764.3304,1732.5889,759.6061,1724.58,765.3383" style="stroke:#181818;stroke-width:1;"/></g><!--link Backend to Data--><g class="link" data-entity-1="Backend" data-entity-2="Data" data-source-line="50" data-uid="lnk27" id="link_Backend_Data"><path d="M382.2678,546.2845 C379.7318,549.6578 377.3739,553.0258 375.1948,556.3892 C370.8367,563.1158 367.1938,569.8237 364.2706,576.5172 C358.4244,589.9042 355.4575,603.2339 355.4075,616.542 C355.3075,643.1583 366.875,669.6883 390.41,696.4183 C426.92,737.8783 794.9199,762.9235 940.6999,771.3135" fill="none" id="Backend-to-Data" style="stroke:#181818;stroke-width:1;"/><polygon fill="#181818" points="946.69,771.6583,937.9347,767.1478,941.6983,771.371,937.475,775.1346,946.69,771.6583" style="stroke:#181818;stroke-width:1;"/></g><!--link Training to Models--><g class="link" data-entity-1="Training" data-entity-2="Models" data-source-line="51" data-uid="lnk28" id="link_Training_Models"><path d="M1562.4953,638.1421 C1562.5554,638.2154 1562.6157,638.289 1562.6764,638.363 C1562.9189,638.6588 1563.1658,638.9599 1563.4169,639.2663 C1564.4216,640.4917 1565.4946,641.8002 1566.6277,643.1819 C1568.8938,645.9451 1571.4003,649.0005 1574.0813,652.267 C1584.805,665.3333 1598.32,681.7783 1610.41,696.4183 C1622.9,711.5383 1632.9447,723.6641 1644.6647,737.7641" fill="none" id="Training-to-Models" style="stroke:#181818;stroke-width:1;"/><polygon fill="#181818" points="1648.5,742.3783,1645.8231,732.9002,1645.3039,738.5332,1639.6709,738.0139,1648.5,742.3783" style="stroke:#181818;stroke-width:1;"/></g><!--link Training to Data--><g class="link" data-entity-1="Training" data-entity-2="Data" data-source-line="52" data-uid="lnk29" id="link_Training_Data"><path d="M1546.7717,680.6489 C1546.7215,680.7573 1546.6709,680.8655 1546.62,680.9736 C1546.5183,681.1898 1546.4154,681.4052 1546.3112,681.62 C1546.1028,682.0497 1545.8894,682.4765 1545.6709,682.9004 C1544.797,684.5958 1543.8417,686.2431 1542.7976,687.826 C1540.7094,690.9917 1538.2663,693.8995 1535.41,696.4183 C1466.04,757.5783 1190.9983,770.8446 1068.2483,773.7846" fill="none" id="Training-to-Data" style="stroke:#181818;stroke-width:1;"/><polygon fill="#181818" points="1062.25,773.9283,1071.3432,777.7116,1067.2486,773.8086,1071.1516,769.7139,1062.25,773.9283" style="stroke:#181818;stroke-width:1;"/></g><!--link Nginx to GMN30--><g class="link" data-entity-1="Nginx" data-entity-2="GMN30" data-source-line="55" data-uid="lnk32" id="link_Nginx_GMN30"><path d="M502.175,285.9604 C501.9815,286.4047 501.7839,286.8471 501.5822,287.2875 C500.7756,289.0491 499.9034,290.7783 498.9604,292.4608 C497.0744,295.8256 494.905,299.0033 492.41,301.8783 C490.06,304.5983 310.05,382.7583 225.45,419.3983" fill="none" id="Nginx-GMN30" style="stroke:#181818;stroke-width:1;stroke-dasharray:7.0,7.0;"/></g><!--link Inference to GMN33--><g class="link" data-entity-1="Inference" data-entity-2="GMN33" data-source-line="60" data-uid="lnk35" id="link_Inference_GMN33"><path d="M1949.41,680.7704 C1949.41,680.9474 1949.41,681.1246 1949.41,681.3019 C1949.41,682.0113 1949.41,682.7233 1949.41,683.4379 C1949.41,689.1542 1949.41,695.0273 1949.41,700.9058 C1949.41,712.6627 1949.41,724.4408 1949.41,735.0283" fill="none" id="Inference-GMN33" style="stroke:#181818;stroke-width:1;stroke-dasharray:7.0,7.0;"/></g><!--SRC=[fLJVSrf557w_VyLEV6XQ9n2qTIepEWC18ftI83_K1sOw2tS3TthPPUvTQDgECsWg8TOcqSHKqfeQMorJJQZMDas2zN_fP2_mb7_1S-_ok_fKU67FVjyvt_dE7awX3zxWevn2LkrGxErqobleLNa3THRhhR__jBQVMzitnTsN9ysgjNbWxLIH_wIv9HvkYRq3KQkVD9U1-KQ55VEAHWlOm7cKnfahMOCLgJh3T6QWjq91-pk4KCayBkeyn2YFQzS9yhmpT6dciCgkQZIBk54aGnUKgSG_dZjuFkWBlJUS6tESnkRho50ez6vmUWYPOVa2euJo_qWQEXTyNr6undKovEYOcwXqpZMjABOkDD7Qg5lLVUlPQljH5IoTGDX4VeDTDOc1RYYVzs2NiXfTGDxpqmv0dcueQ206JOZLssBjs-EZ1wsrIegwSK5pdq6lAjyvnXAg0hbBZnfiuTeOUVbswxT6vyUQLVx2sbmwFdgUeZ62CnobYvgkEhGunrpB33I9jHNWoAU09aFOvBve-BJiG9OSbvZ76dKLhgNeP7k_qThumtfQ5vLlqDle-CLkvyvVK5NI8u0RPNhE0kOnYh4Y9uRfWBg_Ht5nOfIq336XnDnCp0q3i9OFt37VhBlzwAQeraJpUsjznGrJQTt_nULooNhnKcOq3Ixod1HwuTC4wBFgEzQj- -rVAwsxcvBY0yJ02ckb3gxthD1rdCUkJA4WeM4wJmn2CsJS3fXnYHYopcmqsLvwBBwkMm_ArhDRNLqEO9GqLo3K5qRYgoQKG-1uYdez_T72UQ2glRVREbfihJJ4pujeqhhtkxZtH2PE6E2mlIjZYhWTlmoF6L_EwmkEiiZ5pv3dh1_iFseT_ZDW_nyHI61OdXXPqZkdQ3GOIg3sVbqSF1MhJyJ3fKvvMKxQnjcAU_i78_pueiP9YbxFQMPEuuncNMhQ0GVyoZpJLTYCYM91PrWrtU2SVAvYzmVnPLrsbvINVN0UtD0TxEniCcGFKsnt7OuuLtsahSB6mUDeDohYS1rQQJTshSsQX0VWNb5w-parzM5t5RteeqGYQk-d8WFsLMy9l4Wk8mpAdfFIYzkOmTi0LCdZpkGmTzk-weHhZ9gzuOwGm8VXOw_TGIuxskriX6Uhxuz-23GIaprInWbACyvP7h5vsIQCN6MGpf2JXs4L2sXAXN1d_QLehegr1ZnWB-YRp16iyznfv__7MOUHIFSVoVbDdSpsoIxvMk5-Kr05TWGDBuaNOhu2M8NYcgvb67KIHWZ7EjnS-YGS2FkSq4mouBEnaO1pZCtDvE5etVd9pkW0eic1X7y1]--></g></svg>